<svg height="367" viewBox="0 0 550 367" width="550" xmlns="http://www.w3.org/2000/svg" xmlns:xlink="http://www.w3.org/1999/xlink"><clipPath id="a"><path d="m7244 548h550v367h-550z"/></clipPath><clipPath id="b"><path d="m0 0h501v200.715h-501z"/></clipPath><g clip-path="url(#a)" transform="translate(-7244 -548)"><g transform="translate(7274 631)"><path d="m1003.448 178.875-29.249 9.85 7.931-9.85-7.931-9.843z" fill="#fff300" transform="translate(-507.239 -88.01)"/><g clip-path="url(#b)"><path d="m268.5 143.412a5.675 5.675 0 0 1 -9.893-4.451l1.884-15.192a5.681 5.681 0 0 0 -5.637-6.377h-14.74l18.986-50.675h270.149l.28.1-24.144 64.537h-15.371a5.683 5.683 0 0 1 -5.651-6.2l3.171-34.476a5.675 5.675 0 0 0 -10.334-3.729l-35.31 51.523a5.672 5.672 0 0 1 -10.26-2.186l-3.2-17.421a5.675 5.675 0 0 0 -10.3-2.128l-20.887 31.341a5.68 5.68 0 0 1 -10.382-2.711l-.352-4.443a5.668 5.668 0 0 0 -9.239-3.962l-16.084 13.093a5.669 5.669 0 0 1 -7.859-.669l-7.427-8.52a5.663 5.663 0 0 0 -6.881-1.316l-13.46 6.931a5.677 5.677 0 0 1 -8.225-5.8l5.9-43.7a5.676 5.676 0 0 0 -9.886-4.508z" fill="#fff" transform="translate(-125.021 -34.738)"/><path d="m437.041 104.121a5.673 5.673 0 0 1 3.717 5.86l-3.171 34.476a5.683 5.683 0 0 0 5.651 6.2h15.372l-27.257 72.812-10.526 28.12v.618h-270.548v-.618l3.509-9.361-3 9.5h186.529v-13.628l3.782-14.754h-180.236l32.477-86.66h14.739a5.681 5.681 0 0 1 5.637 6.377l-1.884 15.192a5.675 5.675 0 0 0 9.893 4.451l44.843-50.941a5.676 5.676 0 0 1 9.886 4.508l-5.9 43.7a5.676 5.676 0 0 0 8.225 5.8l13.46-6.931a5.664 5.664 0 0 1 6.881 1.316l7.427 8.52a5.669 5.669 0 0 0 7.859.669l16.084-13.093a5.668 5.668 0 0 1 9.239 3.962l.352 4.443a5.68 5.68 0 0 0 10.382 2.711l20.887-31.341a5.675 5.675 0 0 1 10.3 2.128l3.2 17.421a5.672 5.672 0 0 0 10.26 2.186l35.31-51.523a5.691 5.691 0 0 1 6.615-2.128" fill="#fffcf5" transform="translate(-78.246 -54.037)"/><path d="m347.246 353.232-3.782 14.754v-.755h-181.38l1.488-4.824 3.437-9.174z" fill="#d2eef7" transform="translate(-84.393 -183.918)"/><path d="m343.214 382.437v.755h-181.614l.23-.755z" fill="#68ca82" transform="translate(-84.143 -199.124)"/><path d="m405.609 32.067a4.35 4.35 0 1 1 4.35 4.35 4.351 4.351 0 0 1 -4.35-4.35" fill="#fff" transform="translate(-211.19 -14.431)"/><path d="m344.417 24.756a4.35 4.35 0 1 0 -4.35-4.35 4.351 4.351 0 0 0 4.35 4.35m-36.46 0a4.35 4.35 0 1 0 -4.35-4.35 4.347 4.347 0 0 0 4.35 4.35m18.226 0a4.35 4.35 0 1 0 -4.35-4.35 4.351 4.351 0 0 0 4.35 4.35m226.784-13.656a13.233 13.233 0 0 1 1.517 12.187l-4.328 11.561-.28-.1h-270.147l7.808-20.836a13.229 13.229 0 0 1 12.4-8.592l242.163.08a13.221 13.221 0 0 1 10.871 5.7" fill="#ff7575" transform="translate(-145.647 -2.771)"/><path d="m371.919 27.717a4.35 4.35 0 1 1 -4.35 4.35 4.351 4.351 0 0 1 4.35-4.35" fill="#fff" transform="translate(-191.383 -14.431)"/><path d="m333.894 27.717a4.35 4.35 0 1 1 -4.35 4.35 4.346 4.346 0 0 1 4.35-4.35" fill="#fff" transform="translate(-171.585 -14.431)"/><path d="m168.626 353.232-3.437 9.174 2.818-9.174z" fill="#b9f3e9" transform="translate(-86.01 -183.918)"/><path d="m163.221 372.372-1.488 4.824h-.324z" fill="#ecfbf4" transform="translate(-84.041 -193.884)"/><path d="m156.262 383.192h181.61v13.618h-186.528l3-9.5 1.776-4.738.05-.137h.324z" fill="#a9cfdb" transform="translate(-78.801 -199.124)"/><path d="m159.425 382.437-.05.137-1.776 4.738 1.539-4.875z" fill="#68ca82" transform="translate(-82.058 -199.124)"/><path d="m487.3 195.62h-141.275l9.417-25.161a1.516 1.516 0 0 0 .4-1.024c0-.012 0-.024 0-.037l26.668-71.254h13.277a4.127 4.127 0 0 1 4.13 3.772l.772 8.491a7.2 7.2 0 0 0 13.429 2.922l24.8-43.406a4.147 4.147 0 0 1 7.738 2.333l-.831 12.458a7.2 7.2 0 0 0 7.188 7.683h18.687l-9.216 11.438 38.516-12.968-38.52-12.967 9.22 11.438h-18.686a4.147 4.147 0 0 1 -4.138-4.423l.831-12.458a7.2 7.2 0 0 0 -13.442-4.057l-24.8 43.406a4.147 4.147 0 0 1 -7.73-1.682l-.772-8.491a7.17 7.17 0 0 0 -7.175-6.552h-12.136l27.576-73.677a15.79 15.79 0 0 0 -14.783-21.321l-242.15-.083h-.005a15.863 15.863 0 0 0 -14.79 10.249l-.793 2.117h-22.387a1.529 1.529 0 0 0 0 3.057h21.244l-5.63 15.023h-53.177a1.529 1.529 0 1 0 0 3.057h52.032l-17.846 47.625h-16.1a4.146 4.146 0 0 1 -4.143-4.428l.83-12.458a7.2 7.2 0 0 0 -13.443-4.053l-24.262 42.471a4.147 4.147 0 0 1 -7.74-1.817l-.633-10.878a7.211 7.211 0 0 0 -7.192-6.786h-21.74a1.529 1.529 0 0 0 0 3.057h21.741a4.151 4.151 0 0 1 4.14 3.906l.632 10.878a7.2 7.2 0 0 0 13.447 3.155l24.266-42.465a4.147 4.147 0 0 1 7.738 2.333l-.831 12.457a7.205 7.205 0 0 0 7.188 7.683h14.959l-36.626 97.733h-19.457a1.529 1.529 0 0 0 0 3.058h18.31l-3.989 10.646h-67.49a2.548 2.548 0 0 0 0 5.1h484.752a2.548 2.548 0 0 0 0-5.1m4.122-104.753-19.984 6.726 5.42-6.726-5.42-6.727zm-347.147-78.83a10.743 10.743 0 0 1 10.015-6.937l242.15.083a10.695 10.695 0 0 1 10.012 14.444l-4.052 10.819h-265.024zm-8.044 21.463h265.029l-23.048 61.586h-13.22a4.147 4.147 0 0 1 -4.129-4.527l3.176-34.479a7.2 7.2 0 0 0 -13.116-4.733l-35.309 51.525a4.147 4.147 0 0 1 -7.5-1.6l-3.2-17.426a7.2 7.2 0 0 0 -13.079-2.7l-20.89 31.335a4.147 4.147 0 0 1 -7.584-1.979l-.347-4.446a7.2 7.2 0 0 0 -11.731-5.026l-16.083 13.1a4.13 4.13 0 0 1 -5.744-.491l-7.43-8.522a7.188 7.188 0 0 0 -8.729-1.67l-13.464 6.936a4.147 4.147 0 0 1 -6.008-4.241l5.892-43.7a7.2 7.2 0 0 0 -12.546-5.722l-44.842 50.944a4.147 4.147 0 0 1 -7.228-3.249l1.88-15.2a7.2 7.2 0 0 0 -7.149-8.088h-11.448zm-56.762 151.473h48.5a1.529 1.529 0 0 0 0-3.058h-47.354l36.623-97.731h12.6a4.146 4.146 0 0 1 4.115 4.656l-1.88 15.2a7.2 7.2 0 0 0 12.557 5.645l44.841-50.944a4.147 4.147 0 0 1 7.222 3.294l-5.892 43.7a7.2 7.2 0 0 0 10.438 7.367l13.464-6.936a4.137 4.137 0 0 1 5.024.962l7.43 8.521a7.174 7.174 0 0 0 9.979.852l16.083-13.1a4.147 4.147 0 0 1 6.752 2.894l.347 4.447a7.2 7.2 0 0 0 13.176 3.436l20.89-31.336a4.147 4.147 0 0 1 7.526 1.558l3.2 17.426a7.2 7.2 0 0 0 13.028 2.772l35.309-51.525a4.147 4.147 0 0 1 7.55 2.724l-3.176 34.479a7.2 7.2 0 0 0 7.174 7.864h12.075l-26.11 69.763h-85.32a1.529 1.529 0 0 0 0 3.058h84.175l-9.228 24.657h-265.107zm82.842-173.214a5.879 5.879 0 1 0 5.879 5.879 5.886 5.886 0 0 0 -5.879-5.879m0 8.7a2.822 2.822 0 1 1 2.822-2.822 2.825 2.825 0 0 1 -2.822 2.822m18.228-8.7a5.879 5.879 0 1 0 5.879 5.879 5.886 5.886 0 0 0 -5.879-5.879m0 8.7a2.822 2.822 0 1 1 2.822-2.822 2.825 2.825 0 0 1 -2.822 2.822m18.228-8.7a5.879 5.879 0 1 0 5.879 5.879 5.886 5.886 0 0 0 -5.879-5.879m0 8.7a2.822 2.822 0 1 1 2.822-2.822 2.825 2.825 0 0 1 -2.822 2.822m-150.277 11.516a1.529 1.529 0 0 1 1.529-1.529h13.137a1.529 1.529 0 0 1 0 3.057h-13.137a1.529 1.529 0 0 1 -1.529-1.529m224.7 151.47a1.529 1.529 0 0 1 -1.529 1.529h-76.361a1.529 1.529 0 0 1 0-3.058h76.361a1.529 1.529 0 0 1 1.529 1.529m41.054 0a1.529 1.529 0 0 1 -1.529 1.529h-18.883a1.529 1.529 0 1 1 0-3.058h18.885a1.529 1.529 0 0 1 1.529 1.529m-287.266 1.529a1.529 1.529 0 0 1 0-3.058h14.779a1.529 1.529 0 0 1 0 3.058zm196.075-15.539a1.529 1.529 0 0 1 1.529-1.529h18.885a1.529 1.529 0 0 1 0 3.058h-18.885a1.529 1.529 0 0 1 -1.529-1.529m-39.639 0a1.529 1.529 0 0 1 -1.529 1.529h-35.306a1.529 1.529 0 0 1 0-3.058h35.307a1.529 1.529 0 0 1 1.529 1.529m-97.363-155.534a1.529 1.529 0 0 1 1.529-1.529h14.78a1.529 1.529 0 0 1 0 3.057h-14.78a1.529 1.529 0 0 1 -1.529-1.528" fill="#212b38"/><path d="m703.458 404.749a6.727 6.727 0 1 1 13.45 0v.477h-13.45z" fill="#19bba2" transform="translate(-366.27 -207.149)"/><path d="m705.819 393.863a6.727 6.727 0 1 0 -13.45 0v.477h-10.2v-.212a16.932 16.932 0 0 1 29.382-11.728c.2.223.4.446.59.677a17.042 17.042 0 0 1 3.6 7.616 15.908 15.908 0 0 1 .28 3.432v.212h-10.2z" fill="#fff300" transform="translate(-355.181 -196.262)"/><path d="m641.416 270.851a67.975 67.975 0 0 1 68.04 68.04v.212h-50.076v-.212a15.881 15.881 0 0 0 -.28-3.432l.322-.068 31.418-13.065a4.234 4.234 0 1 0 -3.273-7.809c-.128.053-14.105 5.808-32.065 13.326-.189-.231-.386-.454-.59-.677a16.932 16.932 0 0 0 -29.387 11.725v.212h-52.145c0-.069 0-.144 0-.212a68.259 68.259 0 0 1 .988-11.612 67.543 67.543 0 0 1 8.024-22.255 67.949 67.949 0 0 1 59.023-34.173" fill="#f6fdff" transform="translate(-298.541 -141.025)"/><path d="m782.319 363.854a4.234 4.234 0 0 1 -2.27 5.543l-31.419 13.065-.322.068a17.047 17.047 0 0 0 -3.6-7.617c17.96-7.518 31.937-13.273 32.066-13.325a4.231 4.231 0 0 1 5.543 2.266" fill="#fff300" transform="translate(-387.751 -188.096)"/><path d="m539.406 382.464 16.6 2.925a68.309 68.309 0 0 0 -.989 11.611v.212h-16.9c0-.069 0-.144 0-.212a85.258 85.258 0 0 1 1.241-14.544z" fill="#e5fcfd" transform="translate(-280.182 -199.134)"/><path d="m550.846 324.566 14.533 8.392a67.529 67.529 0 0 0 -8.025 22.255l-16.6-2.925-.049-.008a84.212 84.212 0 0 1 10.027-27.78z" fill="#c9f9fd" transform="translate(-281.531 -168.959)"/><path d="m580.7 277.357 10.76 12.819a68.229 68.229 0 0 0 -15.183 18.168l-14.533-8.392-.114-.065a85.235 85.235 0 0 1 18.963-22.659z" fill="#a8f4ff" transform="translate(-292.422 -144.346)"/><path d="m654.561 240.713a84.879 84.879 0 0 1 29.126-5.123v16.9a67.923 67.923 0 0 0 -23.345 4.113l-5.705-15.679z" fill="#82ead4" transform="translate(-340.812 -122.665)"/><path d="m626.845 246.49 5.705 15.679a68 68 0 0 0 -20.5 11.892l-10.761-12.818-.11-.129a84.975 84.975 0 0 1 25.584-14.835z" fill="#8bf0dc" transform="translate(-313.021 -128.23)"/><path d="m744.45 240.717-.076.208-5.705 15.675a67.9 67.9 0 0 0 -23.345-4.113v-16.9a84.757 84.757 0 0 1 29.126 5.127" fill="#79e1c2" transform="translate(-372.45 -122.665)"/><path d="m795.388 261.121-.106.125-10.76 12.818a68 68 0 0 0 -20.5-11.892l5.706-15.679.076-.208a84.91 84.91 0 0 1 25.58 14.835" fill="#6bd8b4" transform="translate(-397.808 -128.234)"/><path d="m836.611 299.9-.106.06-14.537 8.392a68.3 68.3 0 0 0 -15.183-18.168l10.76-12.819.106-.125a85.227 85.227 0 0 1 18.959 22.66" fill="#59c89a" transform="translate(-420.071 -144.349)"/><path d="m863.138 352.285-.049.008-16.6 2.924a67.442 67.442 0 0 0 -8.029-22.255l14.54-8.391.106-.061a84.168 84.168 0 0 1 10.034 27.775" fill="#37bd82" transform="translate(-436.564 -168.964)"/><path d="m873.1 397v.212h-16.9c0-.068 0-.144 0-.212a68.27 68.27 0 0 0 -.987-11.612l16.6-2.925.049-.007a85.279 85.279 0 0 1 1.238 14.544" fill="#12ac6c" transform="translate(-445.286 -199.134)"/><path d="m620.29 230.274a87.471 87.471 0 0 0 -87.49 87.488v.214a2.54 2.54 0 0 0 4.575 1.529h165.825a2.54 2.54 0 0 0 4.574-1.529v-.214a87.587 87.587 0 0 0 -87.487-87.488m6.965 81.3a8.252 8.252 0 0 0 -14.133 4.871h-7.171a15.426 15.426 0 0 1 15.38-14.345 15.417 15.417 0 0 1 15.372 14.346h-7.169a8.156 8.156 0 0 0 -2.278-4.871m-.8 4.871h-10.253a5.2 5.2 0 0 1 10.259 0m40.335-21.55.24-.1a2.706 2.706 0 0 1 2.1 4.989l-30.079 12.507a18.548 18.548 0 0 0 -2.29-4.916c14.231-5.955 25.664-10.678 30.034-12.48m-27.117 20.447 30.618-12.736a5.762 5.762 0 1 0 -4.452-10.63l-.226.093-1.075.443a51.5 51.5 0 0 0 -14.31-15.975 1.529 1.529 0 0 0 -1.8 2.471 48.432 48.432 0 0 1 13.263 14.681c-5.813 2.4-15.5 6.418-26.908 11.194a18.452 18.452 0 0 0 -26.731-.216 18.32 18.32 0 0 0 -5.172 11.778h-49.089a66.505 66.505 0 0 1 132.985 0h-47.022c-.019-.368-.046-.736-.088-1.1m-100.817-10.177 12.642 2.231a69.767 69.767 0 0 0 -.756 9.05h-12.83a82.666 82.666 0 0 1 .945-11.278m9.252-27.1 11.106 6.411a69.068 69.068 0 0 0 -7.2 19.906l-12.633-2.227a81.782 81.782 0 0 1 8.724-24.09m42.5-37.165 4.392 12.049a69.609 69.609 0 0 0 -18.327 10.656l-8.243-9.821a82.424 82.424 0 0 1 22.181-12.891m81.541 12.889-8.243 9.822a69.61 69.61 0 0 0 -18.328-10.657l4.387-12.054a82.43 82.43 0 0 1 22.184 12.889m-29.441-1.889a69.214 69.214 0 0 0 -20.892-3.689v-12.822a81.973 81.973 0 0 1 25.281 4.461zm-23.95-3.689a69.216 69.216 0 0 0 -20.892 3.689l-4.387-12.053a81.976 81.976 0 0 1 25.279-4.462zm82.433 53.943-12.634 2.227a69.065 69.065 0 0 0 -7.2-19.906l11.106-6.411a81.8 81.8 0 0 1 8.724 24.091m-12.111 5.24 12.638-2.228a82.569 82.569 0 0 1 .944 11.278h-12.822a69.743 69.743 0 0 0 -.756-9.049m1.86-31.979-11.106 6.411a70.076 70.076 0 0 0 -13.592-16.246l8.244-9.823a83 83 0 0 1 16.453 19.658m-124.853-19.657 8.244 9.823a70.091 70.091 0 0 0 -13.592 16.246l-11.106-6.411a83 83 0 0 1 16.453-19.658m54.125 21.106a1.529 1.529 0 0 1 -1.468 1.587c-7.177.279-12.59 1.521-17.035 3.908a1.529 1.529 0 0 1 -1.447-2.693c4.869-2.615 10.7-3.972 18.363-4.269a1.531 1.531 0 0 1 1.587 1.468m7.06-.926a42.046 42.046 0 0 1 23.385 12.243 1.529 1.529 0 1 1 -2.19 2.133 39.013 39.013 0 0 0 -21.7-11.361 1.528 1.528 0 1 1 .5-3.015m13.46-1.5a47.5 47.5 0 0 0 -20.445-4.569 48.62 48.62 0 0 0 -7.024.51 1.528 1.528 0 1 1 -.442-3.025 51.652 51.652 0 0 1 7.466-.543 50.534 50.534 0 0 1 21.751 4.862 1.529 1.529 0 1 1 -1.306 2.765" fill="#212b38" transform="translate(-277.415 -119.897)"/></g></g></g></svg>