<?xml version="1.0" encoding="utf-8"?>
<!-- Generator: Adobe Illustrator 26.1.0, SVG Export Plug-In . SVG Version: 6.00 Build 0)  -->
<svg version="1.1" xmlns="http://www.w3.org/2000/svg" xmlns:xlink="http://www.w3.org/1999/xlink" x="0px" y="0px"
	 viewBox="0 0 30 124" style="enable-background:new 0 0 30 124;" xml:space="preserve">
<style type="text/css">
	.st0{fill:none;}
</style>
<g id="More-Area-Footprint01">
	<g>
		<path id="パス_481_00000044167241608428724650000014612211633254209669_" class="st0" d="M1.8,5.3c0-0.7,0-1.4,0.1-2.2
			C2.1,1.2,3.8-0.2,5.8,0c1.7,0.2,3,1.5,3.1,3.1C9,3.9,9.1,4.6,9.1,5.3L1.8,5.3z"/>
		<path id="パス_482_00000108277555333883173020000014209249816041586353_" class="st0" d="M2.8,7.8c-0.6,0-1.1,0.4-1.2,1
			c-0.4,2.5-1.5,7.1-1.5,9c0.1,14.7,10.7,14.9,10.6,0c0-2-1.1-6.5-1.6-9c-0.1-0.6-0.6-1-1.2-1L2.8,7.8z"/>
	</g>
</g>
<g id="More-Area-Footprint02">
	<g>
		<path id="パス_481_00000013176081938843123490000016164092181143044517_" class="st0" d="M20.7,52.8c0-0.7,0-1.4,0.1-2.2
			c0.2-1.9,1.9-3.3,3.8-3.1c1.7,0.2,3,1.5,3.1,3.1c0.1,0.7,0.1,1.4,0.2,2.2L20.7,52.8z"/>
		<path id="パス_482_00000169560253686649646560000005730723430191110560_" class="st0" d="M21.7,55.3c-0.6,0-1.1,0.4-1.2,1
			c-0.4,2.5-1.5,7.1-1.5,9c0.1,14.7,10.7,14.9,10.6,0c0-2-1.1-6.5-1.6-9c-0.1-0.6-0.6-1-1.2-1L21.7,55.3z"/>
	</g>
</g>
<g id="More-Area-Footprint03">
	<g>
		<path id="パス_481_00000065774888846199147120000016841836540950994622_" class="st0" d="M2.1,100.4c0-0.7,0-1.5,0.1-2.2
			c0.2-1.9,1.9-3.3,3.8-3.1c1.7,0.2,3,1.5,3.1,3.1c0.1,0.7,0.1,1.4,0.2,2.2L2.1,100.4z"/>
		<path id="パス_482_00000179606540364405507440000013355814942155677322_" class="st0" d="M3.2,102.9c-0.6,0-1.1,0.4-1.2,1
			c-0.4,2.5-1.5,7.1-1.5,9c0.1,14.8,10.7,14.9,10.7,0c0-2-1.1-6.5-1.6-9c-0.1-0.6-0.6-1-1.2-1L3.2,102.9z"/>
	</g>
</g>
</svg>
