<svg xmlns="http://www.w3.org/2000/svg" xmlns:xlink="http://www.w3.org/1999/xlink" width="30" height="124" viewBox="0 0 30 124">
  <defs>
    <clipPath id="clip-path">
      <rect id="長方形_180" data-name="長方形 180" width="30" height="124" transform="translate(0 0)" fill="none"/>
    </clipPath>
  </defs>
  <g id="グループ_89" data-name="グループ 89" transform="translate(0 -29.089)">
    <g id="グループ_82" data-name="グループ 82" transform="translate(0 29.089)" clip-path="url(#clip-path)">
      <path id="パス_565" data-name="パス 565" d="M.836,26.4A19.516,19.516,0,0,1,.97,24.219,3.478,3.478,0,0,1,7.894,24.2a20.176,20.176,0,0,1,.143,2.179Z" transform="translate(1.029 -21.071)" fill="#121f30"/>
      <path id="パス_566" data-name="パス 566" d="M2.737,24.543a1.158,1.158,0,0,0-1.149.962C1.16,27.976.1,32.591.109,34.558c.045,14.786,10.6,14.888,10.555-.036-.007-1.978-1.109-6.533-1.573-9.046a1.158,1.158,0,0,0-1.155-.953Z" transform="translate(0.134 -16.727)" fill="#121f30"/>
      <path id="パス_567" data-name="パス 567" d="M9.317,47.418a19.515,19.515,0,0,1,.134-2.179,3.478,3.478,0,0,1,6.924-.016A19.655,19.655,0,0,1,16.52,47.4Z" transform="translate(11.466 5.375)" fill="#121f30"/>
      <path id="パス_568" data-name="パス 568" d="M11.22,45.563a1.162,1.162,0,0,0-1.151.962C9.643,49,8.588,53.611,8.59,55.578c.047,14.786,10.6,14.888,10.558-.036-.009-1.978-1.109-6.533-1.573-9.046a1.158,1.158,0,0,0-1.155-.953Z" transform="translate(10.571 9.718)" fill="#121f30"/>
      <path id="パス_569" data-name="パス 569" d="M.962,68.489A19.515,19.515,0,0,1,1.1,66.31a3.478,3.478,0,0,1,6.924-.016,19.656,19.656,0,0,1,.145,2.179Z" transform="translate(1.184 31.884)" fill="#121f30"/>
      <path id="パス_570" data-name="パス 570" d="M2.864,66.634a1.158,1.158,0,0,0-1.149.962C1.287,70.067.232,74.682.236,76.649c.045,14.786,10.6,14.888,10.555-.036-.007-1.978-1.109-6.533-1.573-9.046a1.158,1.158,0,0,0-1.155-.953Z" transform="translate(0.29 36.228)" fill="#121f30"/>
    </g>
  </g>
</svg>
