<svg enable-background="new 0 0 30 124" viewBox="0 0 30 124" xmlns="http://www.w3.org/2000/svg"><g fill="none"><path d="m1.8 5.3c0-.7 0-1.4.1-2.2.2-1.9 1.9-3.3 3.9-3.1 1.7.2 3 1.5 3.1 3.1.1.8.2 1.5.2 2.2z"/><path d="m2.8 7.8c-.6 0-1.1.4-1.2 1-.4 2.5-1.5 7.1-1.5 9 .1 14.7 10.7 14.9 10.6 0 0-2-1.1-6.5-1.6-9-.1-.6-.6-1-1.2-1z"/><path d="m20.7 52.8c0-.7 0-1.4.1-2.2.2-1.9 1.9-3.3 3.8-3.1 1.7.2 3 1.5 3.1 3.1.1.7.1 1.4.2 2.2z"/><path d="m21.7 55.3c-.6 0-1.1.4-1.2 1-.4 2.5-1.5 7.1-1.5 9 .1 14.7 10.7 14.9 10.6 0 0-2-1.1-6.5-1.6-9-.1-.6-.6-1-1.2-1z"/><path d="m2.1 100.4c0-.7 0-1.5.1-2.2.2-1.9 1.9-3.3 3.8-3.1 1.7.2 3 1.5 3.1 3.1.1.7.1 1.4.2 2.2z"/><path d="m3.2 102.9c-.6 0-1.1.4-1.2 1-.4 2.5-1.5 7.1-1.5 9 .1 14.8 10.7 14.9 10.7 0 0-2-1.1-6.5-1.6-9-.1-.6-.6-1-1.2-1z"/></g></svg>