<svg xmlns="http://www.w3.org/2000/svg" width="17" height="48" viewBox="0 0 17 48">
  <g id="グループ_132" data-name="グループ 132" transform="translate(-711.5 -3929.884)">
    <path id="パス_704" data-name="パス 704" d="M2053,3555.008a2,2,0,0,1-2-2V3553a2,2,0,0,1,4,0v.006A2,2,0,0,1,2053,3555.008Zm0-8.006a2,2,0,0,1-2-2V3545a2,2,0,0,1,4,0V3545A2,2,0,0,1,2053,3547Zm0-8.005a2,2,0,0,1-2-2v-.006a2,2,0,0,1,4,0V3537A2,2,0,0,1,2053,3539Z" transform="translate(-1333 394.892)" fill="#ffcd64"/>
    <g id="グループ_120" data-name="グループ 120" transform="translate(728.5 3967.68) rotate(180)">
      <path id="パス_4" data-name="パス 4" d="M1.432,10.322A1.4,1.4,0,0,1,.407,9.87,1.55,1.55,0,0,1,.432,7.749L7.6.427A1.387,1.387,0,0,1,9.612.441l6.97,7.322a1.55,1.55,0,0,1,0,2.121,1.387,1.387,0,0,1-2.026,0L8.583,3.61,2.433,9.9A1.394,1.394,0,0,1,1.432,10.322Z" transform="translate(0 0)" fill="rgba(255,205,100,0.6)"/>
    </g>
    <g id="グループ_121" data-name="グループ 121" transform="translate(728.5 3977.884) rotate(180)">
      <path id="パス_4-2" data-name="パス 4" d="M1.432,10.322A1.4,1.4,0,0,1,.407,9.87,1.55,1.55,0,0,1,.432,7.749L7.6.427A1.387,1.387,0,0,1,9.612.441l6.97,7.322a1.55,1.55,0,0,1,0,2.121,1.387,1.387,0,0,1-2.026,0L8.583,3.61,2.433,9.9A1.394,1.394,0,0,1,1.432,10.322Z" transform="translate(0 0)" fill="rgba(255,205,100,0.4)"/>
    </g>
  </g>
</svg>
