<svg xmlns="http://www.w3.org/2000/svg" xmlns:xlink="http://www.w3.org/1999/xlink" width="330" height="220" viewBox="0 0 330 220">
  <defs>
    <clipPath id="clip-path">
      <rect id="長方形_222" data-name="長方形 222" width="330" height="220" transform="translate(555 3481)" fill="none" stroke="#707070" stroke-width="1"/>
    </clipPath>
  </defs>
  <g id="マスクグループ_41" data-name="マスクグループ 41" transform="translate(-555 -3481)" clip-path="url(#clip-path)">
    <g id="グループ_119" data-name="グループ 119" transform="translate(0 33)">
      <g id="グループ_112" data-name="グループ 112" transform="translate(0 -27.502)">
        <path id="パス_704" data-name="パス 704" d="M2053,3300.671a2,2,0,0,1-2-2v-.005a2,2,0,0,1,4,0v.005A2,2,0,0,1,2053,3300.671Zm0-7.005a2,2,0,0,1-2-2v-.006a2,2,0,0,1,4,0v.006A2,2,0,0,1,2053,3293.666Zm0-7.006a2,2,0,0,1-2-2v-.005a2,2,0,0,1,4,0v.005A2,2,0,0,1,2053,3286.66Zm0-7.005a2,2,0,0,1-2-2v-.006a2,2,0,0,1,4,0v.006A2,2,0,0,1,2053,3279.655Zm0-7.006a2,2,0,0,1-2-2v-.005a2,2,0,0,1,4,0v.005A2,2,0,0,1,2053,3272.649Zm0-7.005a2,2,0,0,1-2-2v-.006a2,2,0,0,1,4,0v.006A2,2,0,0,1,2053,3265.644Zm0-7.006a2,2,0,0,1-2-2v-.005a2,2,0,0,1,4,0v.005A2,2,0,0,1,2053,3258.638Zm0-7.005a2,2,0,0,1-2-2v-.006a2,2,0,0,1,4,0v.006A2,2,0,0,1,2053,3251.633Zm0-7.006a2,2,0,0,1-2-2v-.006a2,2,0,0,1,4,0v.006A2,2,0,0,1,2053,3244.627Zm0-7.006a2,2,0,0,1-2-2v-.005a2,2,0,0,1,4,0v.005A2,2,0,0,1,2053,3237.622Zm0-7.005a2,2,0,0,1-2-2v-.006a2,2,0,0,1,4,0v.006A2,2,0,0,1,2053,3230.616Zm0-7.006a2,2,0,0,1-2-2v-.005a2,2,0,0,1,4,0v.005A2,2,0,0,1,2053,3223.611Zm0-7.005a2,2,0,0,1-2-2v-.006a2,2,0,0,1,4,0v.006A2,2,0,0,1,2053,3216.605Zm0-7.006a2,2,0,0,1-2-2v-.005a2,2,0,0,1,4,0v.005A2,2,0,0,1,2053,3209.6Zm0-7.005a2,2,0,0,1-2-2v-.006a2,2,0,0,1,4,0v.006A2,2,0,0,1,2053,3202.594Zm0-7.006a2,2,0,0,1-2-2v-.005a2,2,0,0,1,4,0v.005A2,2,0,0,1,2053,3195.589Zm0-7.005a2,2,0,0,1-2-2v-.006a2,2,0,0,1,4,0v.006A2,2,0,0,1,2053,3188.583Zm0-7.006a2,2,0,0,1-2-2v-.005a2,2,0,0,1,4,0v.005A2,2,0,0,1,2053,3181.578Zm0-7.005a2,2,0,0,1-2-2v-.006a2,2,0,0,1,4,0v.006A2,2,0,0,1,2053,3174.573Zm0-7.006a2,2,0,0,1-2-2v-.005a2,2,0,0,1,4,0v.005A2,2,0,0,1,2053,3167.567Zm0-7.005a2,2,0,0,1-2-2v-.006a2,2,0,0,1,4,0v.006A2,2,0,0,1,2053,3160.562Zm0-7.006a2,2,0,0,1-2-2v-.005a2,2,0,0,1,4,0v.005A2,2,0,0,1,2053,3153.556Zm0-7.005a2,2,0,0,1-2-2v-.006a2,2,0,0,1,4,0v.006A2,2,0,0,1,2053,3146.551Zm0-7.006a2,2,0,0,1-2-2v-.005a2,2,0,0,1,4,0v.005A2,2,0,0,1,2053,3139.545Z" transform="translate(-1333 377.752)" fill="#ffcd64"/>
      </g>
      <g id="グループ_118" data-name="グループ 118" transform="translate(2078 6786.691) rotate(180)">
        <path id="パス_4" data-name="パス 4" d="M2681.049,2751.775a1.4,1.4,0,0,1-1.025-.452,1.55,1.55,0,0,1,.025-2.121l7.165-7.322a1.387,1.387,0,0,1,2.015.014l6.97,7.322a1.55,1.55,0,0,1,0,2.121,1.387,1.387,0,0,1-2.026,0l-5.97-6.271-6.151,6.285A1.394,1.394,0,0,1,2681.049,2751.775Z" transform="translate(-1330.117 380.995)" fill="#ffcd64"/>
      </g>
    </g>
    <text id="_2021.1_" data-name="2021.1 ~" transform="translate(723 3501)" fill="#333" stroke="#1d293f" stroke-width="1" font-size="14" font-family="ZenMaruGothic-Light, Zen Maru Gothic" font-weight="300" letter-spacing="0.15em"><tspan x="-30.205" y="0">2021.1 ~</tspan></text>
    <g id="グループ_135" data-name="グループ 135">
      <g id="長方形_219" data-name="長方形 219" transform="translate(560 3528)" fill="rgba(255,255,255,0.7)" stroke="#1d293f" stroke-width="1">
        <rect width="320" height="28" rx="14" stroke="none"/>
        <rect x="0.5" y="0.5" width="319" height="27" rx="13.5" fill="none"/>
      </g>
      <text id="スクール" transform="translate(644 3548)" fill="#333" font-size="15" font-family="ZenMaruGothic-Medium, Zen Maru Gothic" font-weight="500" letter-spacing="0.02em"><tspan x="-30.45" y="0">スクール</tspan></text>
      <text id="_ヶ月" data-name="３ヶ月" transform="translate(794 3546)" fill="#333" font-size="12" font-family="ZenMaruGothic-Medium, Zen Maru Gothic" font-weight="500" letter-spacing="0.02em"><tspan x="-18.24" y="0">３ヶ月</tspan></text>
    </g>
    <g id="グループ_134" data-name="グループ 134">
      <g id="長方形_220" data-name="長方形 220" transform="translate(560 3582)" fill="rgba(255,255,255,0.7)" stroke="#1d293f" stroke-width="1">
        <rect width="320" height="28" rx="14" stroke="none"/>
        <rect x="0.5" y="0.5" width="319" height="27" rx="13.5" fill="none"/>
      </g>
      <text id="独学" transform="translate(644 3602)" fill="#333" font-size="15" font-family="ZenMaruGothic-Medium, Zen Maru Gothic" font-weight="500" letter-spacing="0.02em"><tspan x="-15.15" y="0">独学</tspan></text>
      <text id="_ヶ月-2" data-name="９ヶ月" transform="translate(794 3600)" fill="#333" font-size="12" font-family="ZenMaruGothic-Medium, Zen Maru Gothic" font-weight="500" letter-spacing="0.02em"><tspan x="-18.24" y="0">９ヶ月</tspan></text>
    </g>
    <g id="グループ_133" data-name="グループ 133">
      <g id="長方形_221" data-name="長方形 221" transform="translate(560 3636)" fill="rgba(255,255,255,0.7)" stroke="#1d293f" stroke-width="1">
        <rect width="320" height="28" rx="14" stroke="none"/>
        <rect x="0.5" y="0.5" width="319" height="27" rx="13.5" fill="none"/>
      </g>
      <text id="メンターサポート" transform="translate(644 3656)" fill="#333" font-size="15" font-family="ZenMaruGothic-Medium, Zen Maru Gothic" font-weight="500" letter-spacing="0.02em"><tspan x="-61.05" y="0">メンターサポート</tspan></text>
      <text id="_ヶ月-3" data-name="３ヶ月" transform="translate(794 3654)" fill="#333" font-size="12" font-family="ZenMaruGothic-Medium, Zen Maru Gothic" font-weight="500" letter-spacing="0.02em"><tspan x="-18.24" y="0">３ヶ月</tspan></text>
    </g>
  </g>
</svg>
