<svg height="432" viewBox="0 0 685 432" width="685" xmlns="http://www.w3.org/2000/svg" xmlns:xlink="http://www.w3.org/1999/xlink"><clipPath id="a"><path d="m940 3876h685v432h-685z"/></clipPath><g clip-path="url(#a)" fill="#8aa6d9" transform="translate(-940 -3876)"><path d="m342.5 335c-46.237 0-91.091-2.086-133.317-6.2-20.3-1.977-39.87-4.425-58.179-7.274-18.136-2.822-35.19-6.063-50.689-9.633a430.212 430.212 0 0 1 -41.822-11.676 205.739 205.739 0 0 1 -31.578-13.4c-8.742-4.761-15.457-9.743-19.957-14.809-4.617-5.197-6.958-10.546-6.958-15.899v-256.109c0 5.352 2.34 10.7 6.958 15.9 4.5 5.065 11.214 10.047 19.957 14.808a205.751 205.751 0 0 0 31.578 13.4 430.21 430.21 0 0 0 41.822 11.675c15.5 3.57 32.554 6.811 50.689 9.633 18.309 2.849 37.883 5.3 58.179 7.274 42.225 4.114 87.08 6.2 133.317 6.2s91.091-2.086 133.316-6.2c20.3-1.977 39.87-4.425 58.178-7.274 18.135-2.822 35.19-6.063 50.689-9.633a430.215 430.215 0 0 0 41.822-11.675 205.746 205.746 0 0 0 31.578-13.4c8.743-4.761 15.457-9.743 19.957-14.808 4.619-5.2 6.96-10.547 6.96-15.9v256.109c0 5.353-2.341 10.7-6.958 15.9-4.5 5.065-11.215 10.048-19.957 14.809a205.757 205.757 0 0 1 -31.578 13.4 430.229 430.229 0 0 1 -41.822 11.676c-15.5 3.57-32.551 6.811-50.689 9.633-18.309 2.849-37.883 5.3-58.179 7.274-42.226 4.113-87.08 6.199-133.317 6.199z" opacity=".3" transform="translate(940 3973)"/><ellipse cx="342.5" cy="82.5" opacity=".3" rx="342.5" ry="82.5" transform="translate(940 3876)"/></g></svg>