<svg xmlns="http://www.w3.org/2000/svg" width="30" height="30" viewBox="0 0 30 30">
  <g id="グループ_99" data-name="グループ 99" transform="translate(-1263.479 378.341)">
    <path id="パス_425" data-name="パス 425" d="M1292.979-348.341a.5.5,0,0,1-.5-.5v-28a.5.5,0,0,1,.5-.5.5.5,0,0,1,.5.5v28A.5.5,0,0,1,1292.979-348.341Z" transform="translate(0 -1)" fill="rgba(29,41,63,0.1)"/>
    <path id="パス_426" data-name="パス 426" d="M1292.979-348.341a.5.5,0,0,1-.5-.5v-28a.5.5,0,0,1,.5-.5.5.5,0,0,1,.5.5v28A.5.5,0,0,1,1292.979-348.341Z" transform="translate(915.137 -1641.82) rotate(90)" fill="rgba(29,41,63,0.1)"/>
  </g>
</svg>
