<svg height="768" viewBox="0 0 320 768" width="320" xmlns="http://www.w3.org/2000/svg" xmlns:xlink="http://www.w3.org/1999/xlink"><clipPath id="a"><path d="m0 0h320v768h-320z"/></clipPath><clipPath id="b"><path d="m0 0h210.289v190.705h-210.289z"/></clipPath><g clip-path="url(#a)"><g clip-path="url(#b)" transform="matrix(.052 .999 -.999 .052 161.417 441.915)"><path d="m1.811.012a626.7 626.7 0 0 1 108.7 18.6c17.252 4.583 34.095 9.884 50.375 15.89 14.055 5.184 28.261 11.108 38.182 19.826 9.061 7.964 12.885 17.662 10.553 27.622-2.184 9.334-9.639 18.116-20.875 23.74-13.972 6.993-32.487 7.286-46.769 13.83-6.224 2.851-11.822 6.977-13.279 12.131-1.562 5.522 2.552 10.712 8 14.6 11.015 7.86 27.487 11.208 37.162 20.064 7.048 6.451 7.727 17.322-2.66 22.5a19.957 19.957 0 0 1 -7.658 1.881c-2.435.155-2.42-2.432 0-2.587 5.906-.378 9.635-3.815 11.053-7.475 1.615-4.173.51-8.449-2.991-12.026-8.675-8.862-25.017-12.251-36.026-19.46-5.307-3.476-9.786-7.841-10.785-12.909-.93-4.725 1.389-9.289 5.655-13 10.223-8.9 26.792-10.977 41.54-14.636 7.466-1.854 14.4-4.36 20.024-8.233a35.931 35.931 0 0 0 10.9-11.5c5.042-8.805 4.974-18.838-1.492-27.3-7.3-9.551-20.492-16.178-33.832-21.536a490.6 490.6 0 0 0 -48.124-16.19 614.724 614.724 0 0 0 -104.092-19.974q-6.772-.71-13.561-1.27c-2.4-.2-2.43-2.789 0-2.587" fill="#fff"/></g></g></svg>