<svg enable-background="new 0 0 185 191" viewBox="0 0 185 191" xmlns="http://www.w3.org/2000/svg"><g fill="none"><path d="m22.5 5.8c0-.4 0-.8.1-1.1.1-1 1-1.8 2-1.7.9.1 1.6.8 1.7 1.6 0 .4.1.8.1 1.1z"/><path d="m23 7.1c-.3 0-.6.2-.6.5-.2 1.3-.8 3.7-.8 4.8 0 7.8 5.6 7.8 5.6 0 0-1-.6-3.4-.8-4.8-.1-.3-.3-.5-.6-.5z"/><path d="m9.5 30.7c0-.4 0-.8.1-1.1.1-1 1-1.8 2-1.7.9.1 1.6.8 1.7 1.6 0 .4.1.8.1 1.1z"/><path d="m10 32.1c-.3 0-.6.2-.6.5-.2 1.3-.8 3.7-.8 4.8 0 7.8 5.6 7.8 5.6 0 0-1-.6-3.4-.8-4.8-.1-.3-.3-.5-.6-.5z"/><path d="m23.1 55.7c0-.4 0-.8.1-1.1.1-1 1-1.8 2-1.7.9.1 1.6.8 1.7 1.6 0 .4.1.8.1 1.1z"/><path d="m23.6 57c-.3 0-.6.2-.6.5-.2 1.3-.8 3.7-.8 4.8 0 7.8 5.6 7.8 5.6 0 0-1-.6-3.4-.8-4.8 0-.3-.3-.5-.6-.5z"/><path d="m7.9 77.2c0-.4 0-.8.1-1.1.1-1 1-1.8 2-1.7.9.1 1.6.8 1.7 1.6 0 .4.1.8.1 1.1z"/><path d="m8.4 78.5c-.3 0-.6.2-.6.5-.2 1.3-.8 3.7-.8 4.8 0 7.8 5.6 7.8 5.6 0 0-1-.6-3.4-.8-4.8-.1-.3-.3-.5-.6-.5z"/><path d="m23.8 101.1c-.1-.4-.2-.7-.2-1.1-.2-1 .5-2 1.5-2.1.9-.1 1.7.3 2 1.1.1.4.3.7.4 1.1z"/><path d="m24.7 102.2c-.3.1-.5.4-.5.7.1 1.3.2 3.8.5 4.8 2.1 7.5 7.5 6 5.4-1.5-.3-1-1.5-3.2-2.1-4.4-.1-.3-.4-.4-.7-.3z"/><path d="m10.5 126c-.1-.4-.2-.7-.2-1.1-.1-1 .6-1.9 1.6-2.1.9-.1 1.7.4 2 1.2.1.4.2.7.3 1.1z"/><path d="m11.3 127.2c-.3.1-.5.3-.5.6.1 1.3.1 3.8.3 4.8 1.8 7.6 7.3 6.3 5.5-1.3-.2-1-1.4-3.2-1.9-4.4-.1-.3-.4-.4-.7-.3z"/><path d="m32.3 137.8c-.3-.3-.5-.6-.8-.9-.6-.8-.5-2 .3-2.6.7-.6 1.7-.6 2.3 0 .3.2.6.5.9.8z"/><path d="m33.6 138.3c-.2.2-.2.5-.1.8.8 1.1 2.1 3.2 2.8 3.9 5.5 5.5 9.5 1.5 4-4-.7-.7-2.8-2-4-2.8-.2-.2-.6-.1-.8.1z"/><path d="m16.7 166.1c.1-.4.1-.8.3-1.1.3-1 1.3-1.6 2.3-1.3.8.2 1.4 1 1.4 1.9 0 .4 0 .8-.1 1.1z"/><path d="m17.1 167.5c-.3-.1-.6.1-.7.4-.4 1.2-1.4 3.6-1.5 4.6-1.2 7.7 4.3 8.6 5.5.9.2-1 0-3.5-.1-4.8 0-.3-.2-.5-.5-.6z"/><path d="m26.4 160.4c-.3-.3-.5-.6-.8-.9-.6-.8-.5-2 .3-2.6.7-.6 1.7-.6 2.3 0 .3.2.6.5.9.8z"/><path d="m27.7 161c-.2.2-.2.5-.1.8.8 1.1 2.1 3.2 2.8 3.9 5.5 5.5 9.5 1.5 4-4-.7-.7-2.8-2-4-2.8-.2-.2-.6-.1-.8.1z"/><path d="m51.2 170.9c-.3-.3-.5-.6-.8-.9-.6-.8-.5-2 .3-2.6.7-.6 1.7-.6 2.3 0 .3.2.6.5.9.8z"/><path d="m52.5 171.5c-.2.2-.2.5-.1.8.8 1.1 2.1 3.2 2.8 3.9 5.5 5.5 9.5 1.5 4-4-.7-.7-2.8-2-4-2.8-.2-.2-.6-.1-.8.1z"/><path d="m73.7 170.9c-.4-.1-.7-.2-1.1-.3-1-.3-1.5-1.4-1.1-2.4.3-.8 1.1-1.3 2-1.2.4 0 .8.1 1.1.2z"/><path d="m75.1 170.6c-.1.3.1.6.4.7 1.2.5 3.4 1.6 4.5 1.8 7.6 1.7 8.9-3.7 1.3-5.5-1-.2-3.5-.2-4.8-.3-.3 0-.6.2-.6.5z"/><path d="m103.5 185c-.4 0-.8 0-1.1-.1-1-.1-1.8-1-1.7-2 .1-.9.8-1.6 1.6-1.7.4 0 .8-.1 1.1-.1z"/><path d="m104.8 184.5c0 .3.2.6.5.6 1.3.2 3.7.8 4.8.8 7.8 0 7.8-5.6 0-5.6-1 0-3.4.6-4.8.8-.3.1-.5.3-.5.6z"/><path d="m128.5 171.4c-.4 0-.8 0-1.1-.1-1-.1-1.8-1-1.7-2 .1-.9.8-1.6 1.6-1.7.4 0 .8-.1 1.1-.1z"/><path d="m129.8 170.9c0 .3.2.6.5.6 1.3.2 3.7.8 4.8.8 7.8 0 7.8-5.6 0-5.6-1 0-3.4.6-4.8.8-.3.1-.5.3-.5.6z"/><path d="m153.5 184.8c-.4 0-.8 0-1.1-.1-1-.1-1.8-1-1.7-2 .1-.9.8-1.6 1.6-1.7.4 0 .8-.1 1.1-.1z"/><path d="m154.9 184.3c0 .3.2.6.5.6 1.3.2 3.7.8 4.8.8 7.8 0 7.8-5.6 0-5.6-1 0-3.4.6-4.8.8-.3.1-.5.3-.5.6z"/><path d="m178.6 176.5c-.4 0-.8 0-1.1-.1-1-.1-1.8-1-1.7-2 .1-.9.8-1.6 1.6-1.7.4 0 .8-.1 1.1-.1z"/><path d="m185 171.8c-.8.1-3.3.5-4.6.8-.3.1-.5.3-.5.6v2.8c0 .3.2.6.5.6 1.4.3 3.6.7 4.6.8z"/></g></svg>