<?xml version="1.0" encoding="utf-8"?>
<!-- Generator: Adobe Illustrator 26.1.0, SVG Export Plug-In . SVG Version: 6.00 Build 0)  -->
<svg version="1.1" xmlns="http://www.w3.org/2000/svg" xmlns:xlink="http://www.w3.org/1999/xlink" x="0px" y="0px"
	 viewBox="0 0 176 138" style="enable-background:new 0 0 176 138;" xml:space="preserve">
<style type="text/css">
	.st0{clip-path:url(#SVGID_00000167383084096044884200000008924019071044427917_);}
	.st1{clip-path:url(#SVGID_00000016756828823051921020000003370383833795060900_);}
	.st2{fill:#121F30;}
</style>
<g id="レイヤー_1">
	<g>
		<defs>
			<rect id="SVGID_1_" width="176" height="138"/>
		</defs>
		<clipPath id="SVGID_00000093139767467946250010000014217857337222085510_">
			<use xlink:href="#SVGID_1_"  style="overflow:visible;"/>
		</clipPath>
		
			<g id="マスクグループ_36" transform="translate(-545 -595)" style="clip-path:url(#SVGID_00000093139767467946250010000014217857337222085510_);">
			<g id="グループ_96" transform="translate(554.228 587.46) rotate(3)">
				<g>
					<defs>
						
							<rect id="SVGID_00000008839253314625992340000016668669579237254322_" x="11" y="-11" transform="matrix(5.233596e-02 -0.9986 0.9986 5.233596e-02 6.7548 151.118)" width="144" height="166"/>
					</defs>
					<clipPath id="SVGID_00000173882207256211873860000017582558119243255728_">
						<use xlink:href="#SVGID_00000008839253314625992340000016668669579237254322_"  style="overflow:visible;"/>
					</clipPath>
					
						<g id="グループ_72" transform="translate(0 0)" style="clip-path:url(#SVGID_00000173882207256211873860000017582558119243255728_);">
						<path id="パス_491" class="st2" d="M160.1,1.8c0.4-0.4,0.9-0.8,1.3-1.2c1.2-1,3-0.8,4,0.4c0.8,1,0.8,2.5,0,3.5
							c-0.4,0.5-0.7,0.9-1.2,1.3L160.1,1.8z"/>
						<path id="パス_492" class="st2" d="M159.2,3.8c-0.3-0.3-0.8-0.4-1.2-0.1c-2.1,1.3-4.1,2.7-6,4.3c-8.4,8.4-2.4,14.5,6.1,6
							c1.5-1.9,2.9-3.9,4.2-6c0.3-0.4,0.2-0.9-0.1-1.2L159.2,3.8z"/>
						<path id="パス_493" class="st2" d="M122.3,18.1c0.4-0.4,0.9-0.8,1.3-1.2c1.2-1,3-0.8,4,0.4c0.8,1,0.8,2.5,0,3.5
							c-0.4,0.5-0.7,0.9-1.2,1.3L122.3,18.1z"/>
						<path id="パス_494" class="st2" d="M121.5,20c-0.3-0.3-0.8-0.4-1.2-0.1c-2.1,1.3-4.1,2.7-6,4.3c-8.4,8.4-2.4,14.5,6.1,6
							c1.5-1.9,2.9-3.9,4.2-6c0.3-0.4,0.2-0.9-0.1-1.2L121.5,20z"/>
						<path id="パス_495" class="st2" d="M106.3,55.8c0.4-0.4,0.9-0.8,1.3-1.2c1.2-1,3-0.8,4,0.4c0.8,1,0.8,2.5,0,3.5
							c-0.4,0.5-0.7,0.9-1.2,1.3L106.3,55.8z"/>
						<path id="パス_496" class="st2" d="M105.4,57.7c-0.3-0.3-0.8-0.4-1.2-0.1c-2.1,1.3-4.1,2.7-6,4.3c-8.4,8.4-2.4,14.5,6.1,6
							c1.5-1.9,2.9-3.9,4.2-6c0.3-0.4,0.2-0.9-0.1-1.2L105.4,57.7z"/>
						<path id="パス_497" class="st2" d="M68.6,72c0.4-0.4,0.9-0.8,1.3-1.2c1.2-1,3-0.8,4,0.4c0.8,1,0.8,2.5,0,3.5
							c-0.4,0.5-0.7,0.9-1.2,1.3L68.6,72z"/>
						<path id="パス_498" class="st2" d="M67.7,74c-0.3-0.3-0.8-0.4-1.2-0.1c-2.1,1.3-4.1,2.7-6,4.3c-8.4,8.4-2.4,14.5,6.1,6
							c1.5-1.9,2.9-3.9,4.2-6c0.3-0.4,0.2-0.9-0.1-1.2L67.7,74z"/>
						<path id="パス_499" class="st2" d="M52.5,109.7c0.4-0.4,0.9-0.8,1.3-1.2c1.2-1,3-0.8,4,0.4c0.8,1,0.8,2.5,0,3.5
							c-0.4,0.5-0.7,0.9-1.2,1.3L52.5,109.7z"/>
						<path id="パス_500" class="st2" d="M51.7,111.7c-0.3-0.3-0.8-0.4-1.2-0.1c-2.1,1.3-4.1,2.7-6,4.3c-8.4,8.4-2.4,14.5,6.1,6
							c1.5-1.9,2.9-3.9,4.2-6c0.3-0.4,0.2-0.9-0.1-1.2L51.7,111.7z"/>
						<path id="パス_501" class="st2" d="M12,127.8c0.4-0.4,0.9-0.8,1.3-1.2c1.2-1,3-0.8,4,0.4c0.8,1,0.8,2.5,0,3.5
							c-0.4,0.5-0.7,0.9-1.2,1.3L12,127.8z"/>
						<path id="パス_502" class="st2" d="M11.2,129.7c-0.3-0.3-0.8-0.4-1.2-0.1c-2.1,1.3-4.1,2.7-6,4.3c-8.4,8.4-2.4,14.5,6.1,6
							c1.5-1.9,2.9-3.9,4.2-6c0.3-0.4,0.2-0.9-0.1-1.2L11.2,129.7z"/>
					</g>
				</g>
			</g>
		</g>
	</g>
</g>
<g id="MainVisual-FootPrint01">
	<g>
		<path id="パス_481" class="st2" d="M168.9,2.6c0.4-0.4,0.9-0.8,1.4-1.1c1.3-0.9,3-0.6,4,0.6c0.8,1.1,0.7,2.6-0.2,3.6
			c-0.4,0.4-0.8,0.9-1.2,1.3L168.9,2.6z"/>
		<path id="パス_482" class="st2" d="M168,4.5c-0.3-0.3-0.8-0.4-1.2-0.2c-1.7,1.1-5.1,2.9-6.2,4c-8.8,8-3.2,14.4,5.8,6.4
			c1.2-1.1,3.3-4.2,4.6-5.8c0.3-0.4,0.3-0.9-0.1-1.2L168,4.5z"/>
	</g>
</g>
<g id="MainVisual-FootPrint02">
	<g>
		<path id="パス_483" class="st2" d="M130.5,16.9c0.4-0.4,0.9-0.8,1.4-1.1c1.3-0.9,3-0.6,4,0.6c0.8,1.1,0.7,2.6-0.2,3.6
			c-0.4,0.4-0.8,0.9-1.2,1.3L130.5,16.9z"/>
		<path id="パス_484" class="st2" d="M129.5,18.8c-0.3-0.3-0.8-0.4-1.2-0.2c-1.7,1.1-5.1,2.9-6.2,4c-8.8,8-3.2,14.4,5.8,6.4
			c1.2-1.1,3.3-4.2,4.6-5.8c0.3-0.4,0.3-0.9-0.1-1.2L129.5,18.8z"/>
	</g>
</g>
<g id="MainVisual-FootPrint03">
	<g>
		<path id="パス_485" class="st2" d="M112.5,53.7c0.4-0.4,0.9-0.8,1.4-1.1c1.3-0.9,3-0.6,4,0.6c0.8,1.1,0.7,2.6-0.2,3.6
			c-0.4,0.4-0.8,0.9-1.2,1.3L112.5,53.7z"/>
		<path id="パス_486" class="st2" d="M111.6,55.6c-0.3-0.3-0.8-0.4-1.2-0.2c-1.7,1.1-5.1,2.9-6.2,4c-8.8,8-3.2,14.4,5.8,6.4
			c1.2-1.1,3.3-4.2,4.6-5.8c0.3-0.4,0.3-0.9-0.1-1.2L111.6,55.6z"/>
	</g>
</g>
<g id="MainVisual-FootPrint04">
	<g>
		<path id="パス_487" class="st2" d="M73.9,68c0.4-0.4,0.9-0.8,1.4-1.1c1.3-0.9,3-0.6,4,0.6c0.8,1.1,0.7,2.6-0.2,3.6
			c-0.4,0.4-0.8,0.9-1.2,1.3L73.9,68z"/>
		<path id="パス_488" class="st2" d="M73,69.9c-0.3-0.3-0.8-0.4-1.2-0.2c-1.7,1.1-5.1,2.9-6.2,4c-8.8,8-3.2,14.4,5.8,6.4
			c1.2-1.1,3.3-4.2,4.6-5.8c0.3-0.4,0.3-0.9-0.1-1.2L73,69.9z"/>
	</g>
</g>
<g id="MainVisual-FootPrint05">
	<g>
		<path id="パス_489" class="st2" d="M55.9,104.8c0.4-0.4,0.9-0.8,1.4-1.1c1.3-0.9,3-0.6,4,0.6c0.8,1.1,0.7,2.6-0.2,3.6
			c-0.4,0.4-0.8,0.9-1.2,1.3L55.9,104.8z"/>
		<path id="パス_490" class="st2" d="M55,106.7c-0.3-0.3-0.8-0.4-1.2-0.2c-1.7,1.1-5.1,2.9-6.2,4c-8.8,8-3.2,14.4,5.8,6.4
			c1.2-1.1,3.3-4.2,4.6-5.8c0.3-0.4,0.3-0.9-0.1-1.2L55,106.7z"/>
	</g>
</g>
<g id="MainVisual-FootPrint06">
	<g>
		<path id="パス_489_00000104701984881069917510000014408947503138276024_" class="st2" d="M14.5,120.7c0.4-0.4,0.9-0.8,1.4-1.1
			c1.3-0.9,3-0.6,4,0.6c0.8,1.1,0.7,2.6-0.2,3.6c-0.4,0.4-0.8,0.9-1.2,1.3L14.5,120.7z"/>
		<path id="パス_490_00000018221672252036551240000006413786067188879804_" class="st2" d="M13.6,122.6c-0.3-0.3-0.8-0.4-1.2-0.2
			c-1.7,1.1-5.1,2.9-6.2,4c-8.8,8-3.2,14.4,5.8,6.4c1.2-1.1,3.3-4.2,4.6-5.8c0.3-0.4,0.3-0.9-0.1-1.2L13.6,122.6z"/>
	</g>
</g>
</svg>
