<svg enable-background="new 0 0 13.4 119.8" viewBox="0 0 13.4 119.8" xmlns="http://www.w3.org/2000/svg" xmlns:xlink="http://www.w3.org/1999/xlink"><clipPath id="a"><path d="m0 0h13.4v119.8h-13.4z"/></clipPath><g clip-path="url(#a)" fill="#121f30"><path d="m9.2 2.4c0-.3 0-.6.1-1 .1-.9.8-1.5 1.7-1.4.7.1 1.3.6 1.4 1.4 0 .3.1.6.1 1z"/><path d="m9.6 3.5c-.3 0-.5.2-.5.4-.3 1.3-.5 2.7-.7 4 0 6.5 4.8 6.6 4.7 0-.2-1.3-.4-2.7-.7-4 0-.2-.3-.4-.5-.4z"/><path d="m.8 23.4c0-.3 0-.6.1-1 .1-.8.9-1.4 1.7-1.3.7.1 1.3.7 1.4 1.4 0 .3.1.6.1 1z"/><path d="m1.3 24.5c-.3 0-.5.2-.5.4-.3 1.3-.5 2.7-.7 4 0 6.5 4.8 6.6 4.7 0-.2-1.3-.4-2.7-.7-4 0-.2-.3-.4-.5-.4z"/><path d="m9.3 44.5c0-.3 0-.6.1-1 .1-.9.9-1.5 1.7-1.4.7.1 1.3.6 1.4 1.4 0 .3.1.6.1 1z"/><path d="m9.8 45.6c-.3 0-.5.2-.5.4-.3 1.3-.5 2.7-.7 4 0 6.5 4.8 6.6 4.7 0-.2-1.3-.4-2.7-.7-4 0-.2-.3-.4-.5-.4z"/><path d="m1 65.5c0-.3 0-.6.1-1 .1-.9.9-1.5 1.7-1.4.7.1 1.3.6 1.4 1.4 0 .3.1.6.1 1z"/><path d="m1.4 66.6c-.3 0-.5.2-.5.4-.3 1.3-.5 2.7-.7 4 0 6.5 4.8 6.6 4.7 0-.2-1.3-.4-2.7-.7-4 0-.2-.3-.4-.5-.4z"/><path d="m9.4 86.5c0-.3 0-.6.1-1 .1-.9.9-1.5 1.7-1.4.7.1 1.3.6 1.4 1.4 0 .3.1.6.1 1z"/><path d="m9.9 87.6c-.3 0-.5.2-.5.4-.3 1.3-.5 2.7-.7 4 0 6.5 4.8 6.6 4.7 0-.2-1.3-.4-2.7-.7-4 0-.2-.3-.4-.5-.4z"/><path d="m.7 109.4c0-.3 0-.6.1-1 .1-.9.9-1.5 1.7-1.4.7.1 1.3.6 1.4 1.4 0 .3.1.6.1 1z"/><path d="m1.2 110.5c-.3 0-.5.2-.5.4-.3 1.3-.5 2.7-.7 4 0 6.5 4.8 6.6 4.7 0-.2-1.3-.4-2.7-.7-4 0-.2-.3-.4-.5-.4z"/></g><g fill="none"><path d="m9.2 2.4c0-.3 0-.6.1-1 0-.8.8-1.5 1.7-1.4.7.1 1.3.7 1.4 1.4 0 .3.1.6.1 1z"/><path d="m9.6 3.5c-.3 0-.5.2-.5.4-.2 1.1-.6 3.1-.6 4 0 6.5 4.7 6.6 4.7 0 0-.9-.5-2.9-.7-4 0-.2-.3-.4-.5-.4z"/><path d="m.8 23.4c0-.3 0-.6.1-1 .1-.8.9-1.4 1.7-1.3.7.1 1.3.7 1.4 1.4 0 .3.1.6.1 1z"/><path d="m1.3 24.5c-.3 0-.5.2-.5.4-.2 1.1-.7 3.1-.7 4 0 6.5 4.7 6.6 4.7 0 0-.9-.5-2.9-.7-4 0-.2-.3-.4-.5-.4z"/><path d="m9.3 44.5c0-.3 0-.6.1-1 .1-.9.9-1.5 1.7-1.4.7.1 1.3.7 1.4 1.4 0 .3.1.6.1 1z"/><path d="m9.8 45.6c-.3 0-.5.2-.5.4-.2 1.1-.7 3.1-.7 4 0 6.5 4.7 6.6 4.7 0 0-.9-.5-2.9-.7-4 0-.2-.3-.4-.5-.4z"/><path d="m1 65.5c0-.3 0-.6.1-1 .1-.9.9-1.5 1.7-1.4.7.1 1.3.7 1.4 1.4 0 .3.1.6.1 1z"/><path d="m1.4 66.6c-.3 0-.5.2-.5.4-.2 1.1-.7 3.1-.7 4 0 6.5 4.7 6.6 4.7 0 0-.9-.5-2.9-.7-4 0-.2-.3-.4-.5-.4z"/><path d="m9.4 86.6c0-.3 0-.6.1-1 .1-.9.9-1.5 1.7-1.4.7.1 1.3.7 1.4 1.4 0 .3.1.6.1 1z"/><path d="m9.9 87.7c-.3 0-.5.2-.5.4-.2 1.1-.7 3.1-.7 4 0 6.5 4.7 6.6 4.7 0 0-.9-.5-2.9-.7-4 0-.2-.3-.4-.5-.4z"/><path d="m.7 109.4c0-.3 0-.6.1-1 .1-.9.9-1.5 1.7-1.4.7.1 1.3.7 1.4 1.4 0 .3.1.6.1 1z"/><path d="m1.2 110.5c-.3 0-.5.2-.5.4-.2 1.1-.7 3.1-.7 4 0 6.5 4.7 6.6 4.7 0 0-.9-.5-2.9-.7-4 0-.2-.3-.4-.5-.4z"/></g></svg>