<svg enable-background="new 0 0 176 138" viewBox="0 0 176 138" xmlns="http://www.w3.org/2000/svg" xmlns:xlink="http://www.w3.org/1999/xlink"><clipPath id="a"><path d="m0 0h176v138h-176z"/></clipPath><clipPath id="b"><path d="m11-11h144v166h-144z" transform="matrix(.05233596 -.9986 .9986 .05233596 6.7548 151.118)"/></clipPath><g clip-path="url(#a)" transform="translate(-545 -595)"><g clip-path="url(#b)" fill="#121f30" transform="matrix(.99862953 .05233596 -.05233596 .99862953 554.228 587.46)"><path d="m160.1 1.8c.4-.4.9-.8 1.3-1.2 1.2-1 3-.8 4 .4.8 1 .8 2.5 0 3.5-.4.5-.7.9-1.2 1.3z"/><path d="m159.2 3.8c-.3-.3-.8-.4-1.2-.1-2.1 1.3-4.1 2.7-6 4.3-8.4 8.4-2.4 14.5 6.1 6 1.5-1.9 2.9-3.9 4.2-6 .3-.4.2-.9-.1-1.2z"/><path d="m122.3 18.1c.4-.4.9-.8 1.3-1.2 1.2-1 3-.8 4 .4.8 1 .8 2.5 0 3.5-.4.5-.7.9-1.2 1.3z"/><path d="m121.5 20c-.3-.3-.8-.4-1.2-.1-2.1 1.3-4.1 2.7-6 4.3-8.4 8.4-2.4 14.5 6.1 6 1.5-1.9 2.9-3.9 4.2-6 .3-.4.2-.9-.1-1.2z"/><path d="m106.3 55.8c.4-.4.9-.8 1.3-1.2 1.2-1 3-.8 4 .4.8 1 .8 2.5 0 3.5-.4.5-.7.9-1.2 1.3z"/><path d="m105.4 57.7c-.3-.3-.8-.4-1.2-.1-2.1 1.3-4.1 2.7-6 4.3-8.4 8.4-2.4 14.5 6.1 6 1.5-1.9 2.9-3.9 4.2-6 .3-.4.2-.9-.1-1.2z"/><path d="m68.6 72c.4-.4.9-.8 1.3-1.2 1.2-1 3-.8 4 .4.8 1 .8 2.5 0 3.5-.4.5-.7.9-1.2 1.3z"/><path d="m67.7 74c-.3-.3-.8-.4-1.2-.1-2.1 1.3-4.1 2.7-6 4.3-8.4 8.4-2.4 14.5 6.1 6 1.5-1.9 2.9-3.9 4.2-6 .3-.4.2-.9-.1-1.2z"/><path d="m52.5 109.7c.4-.4.9-.8 1.3-1.2 1.2-1 3-.8 4 .4.8 1 .8 2.5 0 3.5-.4.5-.7.9-1.2 1.3z"/><path d="m51.7 111.7c-.3-.3-.8-.4-1.2-.1-2.1 1.3-4.1 2.7-6 4.3-8.4 8.4-2.4 14.5 6.1 6 1.5-1.9 2.9-3.9 4.2-6 .3-.4.2-.9-.1-1.2z"/><path d="m12 127.8c.4-.4.9-.8 1.3-1.2 1.2-1 3-.8 4 .4.8 1 .8 2.5 0 3.5-.4.5-.7.9-1.2 1.3z"/><path d="m11.2 129.7c-.3-.3-.8-.4-1.2-.1-2.1 1.3-4.1 2.7-6 4.3-8.4 8.4-2.4 14.5 6.1 6 1.5-1.9 2.9-3.9 4.2-6 .3-.4.2-.9-.1-1.2z"/></g></g><g fill="#121f30"><path d="m168.9 2.6c.4-.4.9-.8 1.4-1.1 1.3-.9 3-.6 4 .6.8 1.1.7 2.6-.2 3.6-.4.4-.8.9-1.2 1.3z"/><path d="m168 4.5c-.3-.3-.8-.4-1.2-.2-1.7 1.1-5.1 2.9-6.2 4-8.8 8-3.2 14.4 5.8 6.4 1.2-1.1 3.3-4.2 4.6-5.8.3-.4.3-.9-.1-1.2z"/><path d="m130.5 16.9c.4-.4.9-.8 1.4-1.1 1.3-.9 3-.6 4 .6.8 1.1.7 2.6-.2 3.6-.4.4-.8.9-1.2 1.3z"/><path d="m129.5 18.8c-.3-.3-.8-.4-1.2-.2-1.7 1.1-5.1 2.9-6.2 4-8.8 8-3.2 14.4 5.8 6.4 1.2-1.1 3.3-4.2 4.6-5.8.3-.4.3-.9-.1-1.2z"/><path d="m112.5 53.7c.4-.4.9-.8 1.4-1.1 1.3-.9 3-.6 4 .6.8 1.1.7 2.6-.2 3.6-.4.4-.8.9-1.2 1.3z"/><path d="m111.6 55.6c-.3-.3-.8-.4-1.2-.2-1.7 1.1-5.1 2.9-6.2 4-8.8 8-3.2 14.4 5.8 6.4 1.2-1.1 3.3-4.2 4.6-5.8.3-.4.3-.9-.1-1.2z"/><path d="m73.9 68c.4-.4.9-.8 1.4-1.1 1.3-.9 3-.6 4 .6.8 1.1.7 2.6-.2 3.6-.4.4-.8.9-1.2 1.3z"/><path d="m73 69.9c-.3-.3-.8-.4-1.2-.2-1.7 1.1-5.1 2.9-6.2 4-8.8 8-3.2 14.4 5.8 6.4 1.2-1.1 3.3-4.2 4.6-5.8.3-.4.3-.9-.1-1.2z"/><path d="m55.9 104.8c.4-.4.9-.8 1.4-1.1 1.3-.9 3-.6 4 .6.8 1.1.7 2.6-.2 3.6-.4.4-.8.9-1.2 1.3z"/><path d="m55 106.7c-.3-.3-.8-.4-1.2-.2-1.7 1.1-5.1 2.9-6.2 4-8.8 8-3.2 14.4 5.8 6.4 1.2-1.1 3.3-4.2 4.6-5.8.3-.4.3-.9-.1-1.2z"/><path d="m14.5 120.7c.4-.4.9-.8 1.4-1.1 1.3-.9 3-.6 4 .6.8 1.1.7 2.6-.2 3.6-.4.4-.8.9-1.2 1.3z"/><path d="m13.6 122.6c-.3-.3-.8-.4-1.2-.2-1.7 1.1-5.1 2.9-6.2 4-8.8 8-3.2 14.4 5.8 6.4 1.2-1.1 3.3-4.2 4.6-5.8.3-.4.3-.9-.1-1.2z"/></g></svg>