<?xml version="1.0" encoding="utf-8"?>
<!-- Generator: Adobe Illustrator 26.1.0, SVG Export Plug-In . SVG Version: 6.00 Build 0)  -->
<svg version="1.1" xmlns="http://www.w3.org/2000/svg" xmlns:xlink="http://www.w3.org/1999/xlink" x="0px" y="0px"
	 viewBox="0 0 13.4 119.8" style="enable-background:new 0 0 13.4 119.8;" xml:space="preserve">
<style type="text/css">
	.st0{clip-path:url(#SVGID_00000069384009705578394600000000956910323693651379_);}
	.st1{fill:#121F30;}
	.st2{fill:none;}
</style>
<g id="MainVisual-SP-FootPrints">
	<g>
		<defs>
			<rect id="SVGID_1_" width="13.4" height="119.8"/>
		</defs>
		<clipPath id="SVGID_00000125592526220081358110000005999908692743822006_">
			<use xlink:href="#SVGID_1_"  style="overflow:visible;"/>
		</clipPath>
		<g id="グループ_82" style="clip-path:url(#SVGID_00000125592526220081358110000005999908692743822006_);">
			<path id="パス_563" class="st1" d="M9.2,2.4c0-0.3,0-0.6,0.1-1C9.4,0.5,10.1-0.1,11,0c0.7,0.1,1.3,0.6,1.4,1.4
				c0,0.3,0.1,0.6,0.1,1L9.2,2.4z"/>
			<path id="パス_564" class="st1" d="M9.6,3.5c-0.3,0-0.5,0.2-0.5,0.4c-0.3,1.3-0.5,2.7-0.7,4c0,6.5,4.8,6.6,4.7,0
				c-0.2-1.3-0.4-2.7-0.7-4c0-0.2-0.3-0.4-0.5-0.4L9.6,3.5z"/>
			<path id="パス_565" class="st1" d="M0.8,23.4c0-0.3,0-0.6,0.1-1C1,21.6,1.8,21,2.6,21.1c0.7,0.1,1.3,0.7,1.4,1.4
				c0,0.3,0.1,0.6,0.1,1L0.8,23.4z"/>
			<path id="パス_566" class="st1" d="M1.3,24.5c-0.3,0-0.5,0.2-0.5,0.4c-0.3,1.3-0.5,2.7-0.7,4c0,6.5,4.8,6.6,4.7,0
				c-0.2-1.3-0.4-2.7-0.7-4c0-0.2-0.3-0.4-0.5-0.4L1.3,24.5z"/>
			<path id="パス_567" class="st1" d="M9.3,44.5c0-0.3,0-0.6,0.1-1c0.1-0.9,0.9-1.5,1.7-1.4c0.7,0.1,1.3,0.6,1.4,1.4
				c0,0.3,0.1,0.6,0.1,1L9.3,44.5z"/>
			<path id="パス_568" class="st1" d="M9.8,45.6c-0.3,0-0.5,0.2-0.5,0.4c-0.3,1.3-0.5,2.7-0.7,4c0,6.5,4.8,6.6,4.7,0
				c-0.2-1.3-0.4-2.7-0.7-4c0-0.2-0.3-0.4-0.5-0.4L9.8,45.6z"/>
			<path id="パス_569" class="st1" d="M1,65.5c0-0.3,0-0.6,0.1-1c0.1-0.9,0.9-1.5,1.7-1.4c0.7,0.1,1.3,0.6,1.4,1.4
				c0,0.3,0.1,0.6,0.1,1L1,65.5z"/>
			<path id="パス_570" class="st1" d="M1.4,66.6c-0.3,0-0.5,0.2-0.5,0.4c-0.3,1.3-0.5,2.7-0.7,4c0,6.5,4.8,6.6,4.7,0
				c-0.2-1.3-0.4-2.7-0.7-4c0-0.2-0.3-0.4-0.5-0.4L1.4,66.6z"/>
			<path id="パス_571" class="st1" d="M9.4,86.5c0-0.3,0-0.6,0.1-1c0.1-0.9,0.9-1.5,1.7-1.4c0.7,0.1,1.3,0.6,1.4,1.4
				c0,0.3,0.1,0.6,0.1,1L9.4,86.5z"/>
			<path id="パス_572" class="st1" d="M9.9,87.6c-0.3,0-0.5,0.2-0.5,0.4c-0.3,1.3-0.5,2.7-0.7,4c0,6.5,4.8,6.6,4.7,0
				c-0.2-1.3-0.4-2.7-0.7-4c0-0.2-0.3-0.4-0.5-0.4L9.9,87.6z"/>
			<path id="パス_573" class="st1" d="M0.7,109.4c0-0.3,0-0.6,0.1-1c0.1-0.9,0.9-1.5,1.7-1.4c0.7,0.1,1.3,0.6,1.4,1.4
				c0,0.3,0.1,0.6,0.1,1L0.7,109.4z"/>
			<path id="パス_574" class="st1" d="M1.2,110.5c-0.3,0-0.5,0.2-0.5,0.4c-0.3,1.3-0.5,2.7-0.7,4c0,6.5,4.8,6.6,4.7,0
				c-0.2-1.3-0.4-2.7-0.7-4c0-0.2-0.3-0.4-0.5-0.4L1.2,110.5z"/>
		</g>
	</g>
</g>
<g id="footprints01">
	<path id="パス_481" class="st2" d="M9.2,2.4c0-0.3,0-0.6,0.1-1C9.3,0.6,10.1-0.1,11,0c0.7,0.1,1.3,0.7,1.4,1.4
		c0,0.3,0.1,0.6,0.1,1L9.2,2.4z"/>
	<path id="パス_482" class="st2" d="M9.6,3.5c-0.3,0-0.5,0.2-0.5,0.4C8.9,5,8.5,7,8.5,7.9c0,6.5,4.7,6.6,4.7,0
		c0-0.9-0.5-2.9-0.7-4c0-0.2-0.3-0.4-0.5-0.4L9.6,3.5z"/>
</g>
<g id="footprints02">
	<g>
		<path id="パス_481_00000039847402072864474870000003949870843448242341_" class="st2" d="M0.8,23.4c0-0.3,0-0.6,0.1-1
			C1,21.6,1.8,21,2.6,21.1c0.7,0.1,1.3,0.7,1.4,1.4c0,0.3,0.1,0.6,0.1,1L0.8,23.4z"/>
		<path id="パス_482_00000009556418660282603480000010779232256345708425_" class="st2" d="M1.3,24.5c-0.3,0-0.5,0.2-0.5,0.4
			c-0.2,1.1-0.7,3.1-0.7,4c0,6.5,4.7,6.6,4.7,0c0-0.9-0.5-2.9-0.7-4c0-0.2-0.3-0.4-0.5-0.4L1.3,24.5z"/>
	</g>
</g>
<g id="footprints03">
	<g>
		<path id="パス_481_00000134235356099585359660000008398141379432735620_" class="st2" d="M9.3,44.5c0-0.3,0-0.6,0.1-1
			c0.1-0.9,0.9-1.5,1.7-1.4c0.7,0.1,1.3,0.7,1.4,1.4c0,0.3,0.1,0.6,0.1,1L9.3,44.5z"/>
		<path id="パス_482_00000026857168793422506830000000834562129649463207_" class="st2" d="M9.8,45.6c-0.3,0-0.5,0.2-0.5,0.4
			c-0.2,1.1-0.7,3.1-0.7,4c0,6.5,4.7,6.6,4.7,0c0-0.9-0.5-2.9-0.7-4c0-0.2-0.3-0.4-0.5-0.4L9.8,45.6z"/>
	</g>
</g>
<g id="footprints04">
	<g>
		<path id="パス_481_00000039834191561692069280000011903519289904802712_" class="st2" d="M1,65.5c0-0.3,0-0.6,0.1-1
			c0.1-0.9,0.9-1.5,1.7-1.4c0.7,0.1,1.3,0.7,1.4,1.4c0,0.3,0.1,0.6,0.1,1L1,65.5z"/>
		<path id="パス_482_00000129885135577730419400000006203328251901191298_" class="st2" d="M1.4,66.6c-0.3,0-0.5,0.2-0.5,0.4
			c-0.2,1.1-0.7,3.1-0.7,4c0,6.5,4.7,6.6,4.7,0c0-0.9-0.5-2.9-0.7-4c0-0.2-0.3-0.4-0.5-0.4L1.4,66.6z"/>
	</g>
</g>
<g id="footprints05">
	<g>
		<path id="パス_481_00000005967226286085420260000006171785152724056720_" class="st2" d="M9.4,86.6c0-0.3,0-0.6,0.1-1
			c0.1-0.9,0.9-1.5,1.7-1.4c0.7,0.1,1.3,0.7,1.4,1.4c0,0.3,0.1,0.6,0.1,1L9.4,86.6z"/>
		<path id="パス_482_00000032617525808469286820000001991054578806525856_" class="st2" d="M9.9,87.7c-0.3,0-0.5,0.2-0.5,0.4
			c-0.2,1.1-0.7,3.1-0.7,4c0,6.5,4.7,6.6,4.7,0c0-0.9-0.5-2.9-0.7-4c0-0.2-0.3-0.4-0.5-0.4L9.9,87.7z"/>
	</g>
</g>
<g id="footprint06">
	<g>
		<path id="パス_481_00000046304781749121525950000006720835037794787487_" class="st2" d="M0.7,109.4c0-0.3,0-0.6,0.1-1
			c0.1-0.9,0.9-1.5,1.7-1.4c0.7,0.1,1.3,0.7,1.4,1.4c0,0.3,0.1,0.6,0.1,1L0.7,109.4z"/>
		<path id="パス_482_00000153674111322156163080000009576711666390743456_" class="st2" d="M1.2,110.5c-0.3,0-0.5,0.2-0.5,0.4
			C0.5,112,0,114,0,114.9c0,6.5,4.7,6.6,4.7,0c0-0.9-0.5-2.9-0.7-4c0-0.2-0.3-0.4-0.5-0.4L1.2,110.5z"/>
	</g>
</g>
</svg>
