<?xml version="1.0" encoding="utf-8"?>
<!-- Generator: Adobe Illustrator 26.1.0, SVG Export Plug-In . SVG Version: 6.00 Build 0)  -->
<svg version="1.1" xmlns="http://www.w3.org/2000/svg" xmlns:xlink="http://www.w3.org/1999/xlink" x="0px" y="0px"
	 viewBox="0 0 185 191" style="enable-background:new 0 0 185 191;" xml:space="preserve">
<style type="text/css">
	.st0{fill:none;}
</style>
<g id="Footer-SP-Footprint01">
	<g>
		<path id="パス_481_00000044167241608428724650000014612211633254209669_" class="st0" d="M22.5,5.8c0-0.4,0-0.8,0.1-1.1
			c0.1-1,1-1.8,2-1.7c0.9,0.1,1.6,0.8,1.7,1.6c0,0.4,0.1,0.8,0.1,1.1L22.5,5.8z"/>
		<path id="パス_482_00000108277555333883173020000014209249816041586353_" class="st0" d="M23,7.1c-0.3,0-0.6,0.2-0.6,0.5
			c-0.2,1.3-0.8,3.7-0.8,4.8c0,7.8,5.6,7.8,5.6,0c0-1-0.6-3.4-0.8-4.8c-0.1-0.3-0.3-0.5-0.6-0.5L23,7.1z"/>
	</g>
</g>
<g id="Footer-SP-Footprint02">
	<g>
		<path id="パス_481_00000176014349597719848470000009863477401339529149_" class="st0" d="M9.5,30.7c0-0.4,0-0.8,0.1-1.1
			c0.1-1,1-1.8,2-1.7c0.9,0.1,1.6,0.8,1.7,1.6c0,0.4,0.1,0.8,0.1,1.1L9.5,30.7z"/>
		<path id="パス_482_00000157305154760519974450000012656457015269646775_" class="st0" d="M10,32.1c-0.3,0-0.6,0.2-0.6,0.5
			c-0.2,1.3-0.8,3.7-0.8,4.8c0,7.8,5.6,7.8,5.6,0c0-1-0.6-3.4-0.8-4.8c-0.1-0.3-0.3-0.5-0.6-0.5L10,32.1z"/>
	</g>
</g>
<g id="Footer-SP-Footprint03">
	<g>
		<path id="パス_481_00000026151509327483192040000013695768987919948956_" class="st0" d="M23.1,55.7c0-0.4,0-0.8,0.1-1.1
			c0.1-1,1-1.8,2-1.7c0.9,0.1,1.6,0.8,1.7,1.6c0,0.4,0.1,0.8,0.1,1.1L23.1,55.7z"/>
		<path id="パス_482_00000005971539309096027930000012712536061027690933_" class="st0" d="M23.6,57c-0.3,0-0.6,0.2-0.6,0.5
			c-0.2,1.3-0.8,3.7-0.8,4.8c0,7.8,5.6,7.8,5.6,0c0-1-0.6-3.4-0.8-4.8C27,57.2,26.7,57,26.4,57L23.6,57z"/>
	</g>
</g>
<g id="Footer-SP-Footprint04">
	<g>
		<path id="パス_481_00000130638201436723634650000016139731209313072799_" class="st0" d="M7.9,77.2c0-0.4,0-0.8,0.1-1.1
			c0.1-1,1-1.8,2-1.7c0.9,0.1,1.6,0.8,1.7,1.6c0,0.4,0.1,0.8,0.1,1.1L7.9,77.2z"/>
		<path id="パス_482_00000084525074627555343680000005782927456132237457_" class="st0" d="M8.4,78.5c-0.3,0-0.6,0.2-0.6,0.5
			C7.6,80.3,7,82.7,7,83.8c0,7.8,5.6,7.8,5.6,0c0-1-0.6-3.4-0.8-4.8c-0.1-0.3-0.3-0.5-0.6-0.5L8.4,78.5z"/>
	</g>
</g>
<g id="Footer-SP-Footprint05">
	<g>
		<path id="パス_481_00000161623878569405629510000000896337102835578010_" class="st0" d="M23.8,101.1c-0.1-0.4-0.2-0.7-0.2-1.1
			c-0.2-1,0.5-2,1.5-2.1c0.9-0.1,1.7,0.3,2,1.1c0.1,0.4,0.3,0.7,0.4,1.1L23.8,101.1z"/>
		<path id="パス_482_00000111912000059395722830000004622002786168063619_" class="st0" d="M24.7,102.2c-0.3,0.1-0.5,0.4-0.5,0.7
			c0.1,1.3,0.2,3.8,0.5,4.8c2.1,7.5,7.5,6,5.4-1.5c-0.3-1-1.5-3.2-2.1-4.4c-0.1-0.3-0.4-0.4-0.7-0.3L24.7,102.2z"/>
	</g>
</g>
<g id="Footer-SP-Footprint06">
	<g>
		<path id="パス_481_00000169536621732037013130000008066336767998948263_" class="st0" d="M10.5,126c-0.1-0.4-0.2-0.7-0.2-1.1
			c-0.1-1,0.6-1.9,1.6-2.1c0.9-0.1,1.7,0.4,2,1.2c0.1,0.4,0.2,0.7,0.3,1.1L10.5,126z"/>
		<path id="パス_482_00000020389318607107443790000013610172177289213884_" class="st0" d="M11.3,127.2c-0.3,0.1-0.5,0.3-0.5,0.6
			c0.1,1.3,0.1,3.8,0.3,4.8c1.8,7.6,7.3,6.3,5.5-1.3c-0.2-1-1.4-3.2-1.9-4.4c-0.1-0.3-0.4-0.4-0.7-0.3L11.3,127.2z"/>
	</g>
</g>
<g id="Footer-SP-Footprint07">
	<g>
		<path id="パス_481_00000078036759661881884970000007908398961052832148_" class="st0" d="M32.3,137.8c-0.3-0.3-0.5-0.6-0.8-0.9
			c-0.6-0.8-0.5-2,0.3-2.6c0.7-0.6,1.7-0.6,2.3,0c0.3,0.2,0.6,0.5,0.9,0.8L32.3,137.8z"/>
		<path id="パス_482_00000161628894144522150050000001022201631122118528_" class="st0" d="M33.6,138.3c-0.2,0.2-0.2,0.5-0.1,0.8
			c0.8,1.1,2.1,3.2,2.8,3.9c5.5,5.5,9.5,1.5,4-4c-0.7-0.7-2.8-2-4-2.8c-0.2-0.2-0.6-0.1-0.8,0.1L33.6,138.3z"/>
	</g>
</g>
<g id="Footer-SP-Footprint08">
	<g>
		<path id="パス_481_00000096040200613743381040000004313813976169940913_" class="st0" d="M16.7,166.1c0.1-0.4,0.1-0.8,0.3-1.1
			c0.3-1,1.3-1.6,2.3-1.3c0.8,0.2,1.4,1,1.4,1.9c0,0.4,0,0.8-0.1,1.1L16.7,166.1z"/>
		<path id="パス_482_00000013182582689527359310000012249264173779512219_" class="st0" d="M17.1,167.5c-0.3-0.1-0.6,0.1-0.7,0.4
			c-0.4,1.2-1.4,3.6-1.5,4.6c-1.2,7.7,4.3,8.6,5.5,0.9c0.2-1,0-3.5-0.1-4.8c0-0.3-0.2-0.5-0.5-0.6L17.1,167.5z"/>
	</g>
</g>
<g id="Footer-SP-Footprint09">
	<g>
		<path id="パス_481_00000154386400225044914840000015663115628641752203_" class="st0" d="M26.4,160.4c-0.3-0.3-0.5-0.6-0.8-0.9
			c-0.6-0.8-0.5-2,0.3-2.6c0.7-0.6,1.7-0.6,2.3,0c0.3,0.2,0.6,0.5,0.9,0.8L26.4,160.4z"/>
		<path id="パス_482_00000006697509875575205330000011410365139327277194_" class="st0" d="M27.7,161c-0.2,0.2-0.2,0.5-0.1,0.8
			c0.8,1.1,2.1,3.2,2.8,3.9c5.5,5.5,9.5,1.5,4-4c-0.7-0.7-2.8-2-4-2.8c-0.2-0.2-0.6-0.1-0.8,0.1L27.7,161z"/>
	</g>
</g>
<g id="Footer-SP-Footprint10">
	<g>
		<path id="パス_481_00000079478627582387705280000008168745634893581468_" class="st0" d="M51.2,170.9c-0.3-0.3-0.5-0.6-0.8-0.9
			c-0.6-0.8-0.5-2,0.3-2.6c0.7-0.6,1.7-0.6,2.3,0c0.3,0.2,0.6,0.5,0.9,0.8L51.2,170.9z"/>
		<path id="パス_482_00000171706738495327076250000007489963244532338325_" class="st0" d="M52.5,171.5c-0.2,0.2-0.2,0.5-0.1,0.8
			c0.8,1.1,2.1,3.2,2.8,3.9c5.5,5.5,9.5,1.5,4-4c-0.7-0.7-2.8-2-4-2.8c-0.2-0.2-0.6-0.1-0.8,0.1L52.5,171.5z"/>
	</g>
</g>
<g id="Footer-SP-Footprint11">
	<g>
		<path id="パス_481_00000170241843312599764950000006130083925198665368_" class="st0" d="M73.7,170.9c-0.4-0.1-0.7-0.2-1.1-0.3
			c-1-0.3-1.5-1.4-1.1-2.4c0.3-0.8,1.1-1.3,2-1.2c0.4,0,0.8,0.1,1.1,0.2L73.7,170.9z"/>
		<path id="パス_482_00000050640285765388645540000006499209919531933331_" class="st0" d="M75.1,170.6c-0.1,0.3,0.1,0.6,0.4,0.7
			c1.2,0.5,3.4,1.6,4.5,1.8c7.6,1.7,8.9-3.7,1.3-5.5c-1-0.2-3.5-0.2-4.8-0.3c-0.3,0-0.6,0.2-0.6,0.5L75.1,170.6z"/>
	</g>
</g>
<g id="Footer-SP-Footprint12">
	<g>
		<path id="パス_481_00000043452987302754251540000008622975328361593766_" class="st0" d="M103.5,185c-0.4,0-0.8,0-1.1-0.1
			c-1-0.1-1.8-1-1.7-2c0.1-0.9,0.8-1.6,1.6-1.7c0.4,0,0.8-0.1,1.1-0.1L103.5,185z"/>
		<path id="パス_482_00000158746912885891967570000016019659788389834934_" class="st0" d="M104.8,184.5c0,0.3,0.2,0.6,0.5,0.6
			c1.3,0.2,3.7,0.8,4.8,0.8c7.8,0,7.8-5.6,0-5.6c-1,0-3.4,0.6-4.8,0.8c-0.3,0.1-0.5,0.3-0.5,0.6L104.8,184.5z"/>
	</g>
</g>
<g id="Footer-SP-Footprint13">
	<g>
		<path id="パス_481_00000080173162309135629130000007300254428892675492_" class="st0" d="M128.5,171.4c-0.4,0-0.8,0-1.1-0.1
			c-1-0.1-1.8-1-1.7-2c0.1-0.9,0.8-1.6,1.6-1.7c0.4,0,0.8-0.1,1.1-0.1L128.5,171.4z"/>
		<path id="パス_482_00000110433053758595800330000007084535573259023765_" class="st0" d="M129.8,170.9c0,0.3,0.2,0.6,0.5,0.6
			c1.3,0.2,3.7,0.8,4.8,0.8c7.8,0,7.8-5.6,0-5.6c-1,0-3.4,0.6-4.8,0.8c-0.3,0.1-0.5,0.3-0.5,0.6L129.8,170.9z"/>
	</g>
</g>
<g id="Footer-SP-Footprint14">
	<g>
		<path id="パス_481_00000123398658031433183870000016145131135568217985_" class="st0" d="M153.5,184.8c-0.4,0-0.8,0-1.1-0.1
			c-1-0.1-1.8-1-1.7-2c0.1-0.9,0.8-1.6,1.6-1.7c0.4,0,0.8-0.1,1.1-0.1L153.5,184.8z"/>
		<path id="パス_482_00000155847188310906494310000014795028394072177291_" class="st0" d="M154.9,184.3c0,0.3,0.2,0.6,0.5,0.6
			c1.3,0.2,3.7,0.8,4.8,0.8c7.8,0,7.8-5.6,0-5.6c-1,0-3.4,0.6-4.8,0.8c-0.3,0.1-0.5,0.3-0.5,0.6L154.9,184.3z"/>
	</g>
</g>
<g id="Footer-SP-Footprint15">
	<g>
		<path id="パス_481_00000090990448995697102600000006118852188106767536_" class="st0" d="M178.6,176.5c-0.4,0-0.8,0-1.1-0.1
			c-1-0.1-1.8-1-1.7-2c0.1-0.9,0.8-1.6,1.6-1.7c0.4,0,0.8-0.1,1.1-0.1L178.6,176.5z"/>
		<path id="パス_482_00000027586249991293958510000004911490489328167343_" class="st0" d="M185.1,171.8"/>
		<path id="パス_482_00000016779759096034263840000017311797196576346539_" class="st0" d="M185,171.8c-0.8,0.1-3.3,0.5-4.6,0.8
			c-0.3,0.1-0.5,0.3-0.5,0.6l0,2.8c0,0.3,0.2,0.6,0.5,0.6c1.4,0.3,3.6,0.7,4.6,0.8L185,171.8z"/>
	</g>
</g>
</svg>
