<?xml version="1.0" encoding="utf-8"?>
<!-- Generator: Adobe Illustrator 26.1.0, SVG Export Plug-In . SVG Version: 6.00 Build 0)  -->
<svg version="1.1" xmlns="http://www.w3.org/2000/svg" xmlns:xlink="http://www.w3.org/1999/xlink" x="0px" y="0px"
	 viewBox="0 0 372 318" style="enable-background:new 0 0 372 318;" xml:space="preserve">
<style type="text/css">
	.st0{clip-path:url(#SVGID_00000053536172852951397270000014868159862332975286_);}
	.st1{fill:#121F30;}
	.st2{fill:#FFFFFF;}
	.st3{fill:none;}
</style>
<g id="base">
	<g>
		<defs>
			<rect id="SVGID_1_" width="372" height="318"/>
		</defs>
		<clipPath id="SVGID_00000118399596818134434830000011294058095246453432_">
			<use xlink:href="#SVGID_1_"  style="overflow:visible;"/>
		</clipPath>
		
			<g id="グループ_66" transform="translate(0 0)" style="clip-path:url(#SVGID_00000118399596818134434830000011294058095246453432_);">
			<path id="パス_449" class="st1" d="M4.8,5.5C4.8,4.7,4.9,4,5,3.2c0.2-2,2-3.4,4-3.2c1.7,0.2,3,1.5,3.2,3.2
				c0.1,0.7,0.1,1.5,0.1,2.2L4.8,5.5z"/>
			<path id="パス_450" class="st1" d="M5.9,8C5.3,8,4.8,8.4,4.7,9c-0.4,2.5-1.5,7.3-1.5,9.3c0,15.2,11,15.3,11,0
				c0-2-1.2-6.7-1.6-9.3c-0.1-0.6-0.6-1-1.2-1L5.9,8z"/>
			<path id="パス_451" class="st1" d="M31.4,54.1c0-0.7,0.1-1.5,0.1-2.2c0.2-2,2-3.4,4-3.2c1.7,0.2,3,1.5,3.2,3.2
				c0.1,0.7,0.1,1.5,0.2,2.2L31.4,54.1z"/>
			<path id="パス_452" class="st1" d="M32.4,56.7c-0.6,0-1.1,0.4-1.2,1c-0.4,2.5-1.5,7.3-1.5,9.3c0,15.2,11,15.3,11,0
				c0-2-1.2-6.7-1.6-9.3c-0.1-0.6-0.6-1-1.2-1L32.4,56.7z"/>
			<path id="パス_453" class="st2" d="M1.7,96.1c0-0.7,0.1-1.5,0.1-2.2c0.2-2,2-3.4,4-3.2c1.7,0.2,3,1.5,3.2,3.2
				c0.1,0.7,0.1,1.5,0.1,2.2L1.7,96.1z"/>
			<path id="パス_454" class="st2" d="M2.7,98.6c-0.6,0-1.1,0.4-1.2,1c-0.4,2.5-1.5,7.3-1.5,9.3c0,15.2,11,15.3,11,0
				c0-2-1.2-6.7-1.6-9.3c-0.1-0.6-0.6-1-1.2-1L2.7,98.6z"/>
			<path id="パス_455" class="st2" d="M32.8,142.6c-0.2-0.7-0.3-1.5-0.5-2.2c-0.3-2,1-3.8,3-4.2c1.7-0.3,3.3,0.7,3.9,2.2
				c0.3,0.7,0.5,1.4,0.7,2.1L32.8,142.6z"/>
			<path id="パス_456" class="st2" d="M34.4,144.8c-0.6,0.1-0.9,0.7-0.9,1.3c0.2,2.6,0.4,7.4,1,9.4c4.1,14.6,14.7,11.8,10.6-2.9
				c-0.5-2-2.9-6.2-4-8.5c-0.3-0.5-0.9-0.8-1.4-0.6L34.4,144.8z"/>
			<path id="パス_457" class="st2" d="M6.8,191.3c-0.2-0.7-0.3-1.5-0.4-2.2c-0.3-2,1.1-3.8,3.1-4c1.7-0.2,3.3,0.8,3.9,2.4
				c0.3,0.7,0.5,1.4,0.7,2.1L6.8,191.3z"/>
			<path id="パス_458" class="st2" d="M8.4,193.5c-0.6,0.1-1,0.7-0.9,1.2c0.2,2.6,0.2,7.4,0.7,9.4c3.6,14.7,14.3,12.3,10.7-2.6
				c-0.5-2-2.7-6.2-3.7-8.6c-0.2-0.5-0.8-0.8-1.4-0.7L8.4,193.5z"/>
			<path id="パス_459" class="st2" d="M49.3,214.2c-0.5-0.5-1-1.1-1.5-1.7c-1.3-1.6-1-3.8,0.5-5.1c1.3-1.1,3.2-1.1,4.5,0
				c0.6,0.5,1.2,1,1.7,1.5L49.3,214.2z"/>
			<path id="パス_460" class="st2" d="M51.9,215.3c-0.4,0.4-0.5,1.1-0.1,1.5c1.5,2.1,4,6.2,5.5,7.7c10.8,10.7,18.6,3,7.7-7.8
				c-1.4-1.4-5.6-3.9-7.7-5.4c-0.5-0.3-1.1-0.3-1.5,0.2L51.9,215.3z"/>
			<path id="パス_461" class="st2" d="M37.8,258.4c-0.5-0.5-1-1.1-1.5-1.7c-1.3-1.6-1-3.8,0.5-5.1c1.3-1.1,3.2-1.1,4.5,0
				c0.6,0.5,1.2,1,1.7,1.5L37.8,258.4z"/>
			<path id="パス_462" class="st2" d="M40.3,259.4c-0.4,0.4-0.5,1.1-0.1,1.5c1.5,2.1,4,6.2,5.5,7.7c10.8,10.7,18.6,3,7.7-7.8
				c-1.4-1.4-5.6-3.9-7.7-5.4c-0.5-0.3-1.1-0.3-1.5,0.2L40.3,259.4z"/>
			<path id="パス_463" class="st2" d="M86.1,278.9c-0.5-0.5-1-1.1-1.5-1.7c-1.3-1.6-1-3.8,0.5-5.1c1.3-1.1,3.2-1.1,4.5,0
				c0.6,0.5,1.2,1,1.7,1.5L86.1,278.9z"/>
			<path id="パス_464" class="st2" d="M88.7,280c-0.4,0.4-0.5,1.1-0.1,1.5c1.5,2.1,4.1,6.2,5.5,7.7c10.8,10.7,18.6,3,7.7-7.8
				c-1.4-1.4-5.6-3.9-7.7-5.4c-0.5-0.3-1.1-0.3-1.5,0.2L88.7,280z"/>
			<path id="パス_465" class="st2" d="M130,278.7c-0.7-0.2-1.4-0.4-2.1-0.6c-1.9-0.7-2.9-2.7-2.2-4.6c0.6-1.6,2.2-2.6,3.9-2.4
				c0.7,0.1,1.5,0.2,2.2,0.4L130,278.7z"/>
			<path id="パス_466" class="st2" d="M132.7,278.3c-0.1,0.6,0.1,1.2,0.7,1.4c2.4,1,6.7,3.2,8.7,3.6c14.8,3.5,17.4-7.2,2.5-10.7
				c-2-0.5-6.8-0.4-9.4-0.5c-0.6,0-1.1,0.4-1.2,0.9L132.7,278.3z"/>
			<path id="パス_467" class="st2" d="M187.9,306.3c-0.7,0-1.5-0.1-2.2-0.1c-2-0.2-3.4-2-3.2-4c0.2-1.7,1.5-3,3.2-3.2
				c0.7-0.1,1.5-0.1,2.2-0.1L187.9,306.3z"/>
			<path id="パス_468" class="st2" d="M190.5,305.3c0,0.6,0.4,1.1,1,1.2c2.5,0.4,7.3,1.5,9.3,1.5c15.2,0,15.3-11,0-11
				c-2,0-6.7,1.2-9.3,1.6c-0.6,0.1-1,0.6-1,1.2L190.5,305.3z"/>
			<path id="パス_469" class="st2" d="M236.6,279.8c-0.7,0-1.5-0.1-2.2-0.1c-2-0.2-3.4-2-3.2-4c0.2-1.7,1.5-3,3.2-3.2
				c0.7-0.1,1.5-0.1,2.2-0.1L236.6,279.8z"/>
			<path id="パス_470" class="st2" d="M239.2,278.7c0,0.6,0.4,1.1,1,1.2c2.5,0.4,7.3,1.5,9.3,1.5c15.2,0,15.3-11,0-11
				c-2,0-6.7,1.2-9.3,1.6c-0.6,0.1-1,0.6-1,1.2L239.2,278.7z"/>
			<path id="パス_471" class="st2" d="M285.5,306c-0.7,0-1.5-0.1-2.2-0.1c-2-0.2-3.4-2-3.2-4c0.2-1.7,1.5-3,3.2-3.2
				c0.7-0.1,1.5-0.1,2.2-0.1L285.5,306z"/>
			<path id="パス_472" class="st2" d="M288,305c0,0.6,0.4,1.1,1,1.2c2.5,0.4,7.3,1.5,9.3,1.5c15.2,0,15.3-11,0-11
				c-2,0-6.7,1.2-9.3,1.6c-0.6,0.1-1,0.6-1,1.2L288,305z"/>
			<path id="パス_473" class="st2" d="M334.2,289.8c-0.7,0-1.5-0.1-2.2-0.1c-2-0.2-3.4-2-3.2-4c0.2-1.7,1.5-3,3.2-3.2
				c0.7-0.1,1.5-0.1,2.2-0.1L334.2,289.8z"/>
			<path id="パス_474" class="st2" d="M336.7,288.8c0,0.6,0.4,1.1,1,1.2c2.5,0.4,7.3,1.5,9.3,1.5c15.2,0,15.3-11,0-11
				c-2,0-6.7,1.2-9.3,1.6c-0.6,0.1-1,0.6-1,1.2L336.7,288.8z"/>
			<path id="パス_679" class="st2" d="M19.1,270.3c0.2-0.7,0.4-1.4,0.7-2.1c0.7-1.9,2.8-2.8,4.7-2.1c1.6,0.6,2.5,2.2,2.3,3.9
				c-0.1,0.7-0.2,1.5-0.4,2.2L19.1,270.3z"/>
			<path id="パス_680" class="st2" d="M19.4,273c-0.6-0.2-1.2,0.1-1.4,0.6c-1.1,2.3-3.4,6.6-3.9,8.6c-3.9,14.7,6.7,17.6,10.6,2.8
				c0.5-2,0.6-6.8,0.8-9.4c0-0.6-0.3-1.1-0.9-1.3L19.4,273z"/>
		</g>
	</g>
</g>
<g id="Footer-Footprint01">
	<g>
		<path id="パス_481" class="st3" d="M4.8,5.5c0-0.7,0-1.5,0.1-2.2c0.2-2,2-3.4,4-3.2c1.7,0.2,3,1.5,3.2,3.2
			c0.1,0.7,0.1,1.5,0.1,2.2L4.8,5.5z"/>
		<path id="パス_482" class="st3" d="M5.9,8C5.3,8,4.8,8.4,4.7,9c-0.4,2.5-1.5,7.3-1.5,9.3c0,15.2,11,15.3,11,0
			c0-2-1.2-6.7-1.6-9.3c-0.1-0.6-0.6-1-1.2-1L5.9,8z"/>
	</g>
	<g>
		<path id="パス_481_00000044167241608428724650000014612211633254209669_" class="st3" d="M4.8,5.5c0-0.7,0-1.5,0.1-2.2
			c0.2-2,2-3.4,4-3.2c1.7,0.2,3,1.5,3.2,3.2c0.1,0.7,0.1,1.5,0.1,2.2L4.8,5.5z"/>
		<path id="パス_482_00000108277555333883173020000014209249816041586353_" class="st3" d="M5.9,8C5.3,8,4.8,8.4,4.7,9
			c-0.4,2.5-1.5,7.3-1.5,9.3c0,15.2,11,15.3,11,0c0-2-1.2-6.7-1.6-9.3c-0.1-0.6-0.6-1-1.2-1L5.9,8z"/>
	</g>
</g>
<g id="Footer-Footprint02">
	<g>
		<path id="パス_481_00000142142907373531836770000003609485861207592875_" class="st3" d="M31.4,54.1c0-0.7,0-1.5,0.1-2.2
			c0.2-2,2-3.4,4-3.2c1.7,0.2,3,1.5,3.2,3.2c0.1,0.7,0.1,1.5,0.1,2.2L31.4,54.1z"/>
		<path id="パス_482_00000049900027067195307670000008004771561993239940_" class="st3" d="M32.4,56.7c-0.6,0-1.1,0.4-1.2,1
			c-0.4,2.5-1.5,7.3-1.5,9.3c0,15.2,11,15.3,11,0c0-2-1.2-6.7-1.6-9.3c-0.1-0.6-0.6-1-1.2-1L32.4,56.7z"/>
	</g>
</g>
<g id="Footer-Footprint03">
	<g>
		<path id="パス_481_00000100343977679880568390000017041517121363259523_" class="st3" d="M1.7,96.1c0-0.7,0-1.5,0.1-2.2
			c0.2-2,2-3.4,4-3.2c1.7,0.2,3,1.5,3.2,3.2c0.1,0.7,0.1,1.5,0.1,2.2L1.7,96.1z"/>
		<path id="パス_482_00000107590024154620348590000001452008854526702753_" class="st3" d="M2.7,98.6c-0.6,0-1.1,0.4-1.2,1
			c-0.4,2.5-1.5,7.3-1.5,9.3c0,15.2,11,15.3,11,0c0-2-1.2-6.7-1.6-9.3c-0.1-0.6-0.6-1-1.2-1L2.7,98.6z"/>
	</g>
</g>
<g id="Footer-Footprint04">
	<g>
		<path id="パス_481_00000026134530351328501460000000867819450327539089_" class="st3" d="M32.8,142.7c-0.2-0.7-0.3-1.5-0.5-2.2
			c-0.3-2,1-3.8,3-4.2c1.7-0.3,3.3,0.6,4,2.2c0.3,0.7,0.5,1.4,0.7,2.1L32.8,142.7z"/>
		<path id="パス_482_00000171687950911052460630000002042754448930780834_" class="st3" d="M34.4,144.9c-0.6,0.1-0.9,0.7-0.9,1.3
			c0.2,2.6,0.5,7.4,1,9.4c4.1,14.6,14.7,11.8,10.5-3c-0.5-2-2.9-6.2-4-8.5c-0.3-0.5-0.9-0.8-1.4-0.6L34.4,144.9z"/>
	</g>
</g>
<g id="Footer-Footprint05">
	<g>
		<path id="パス_481_00000010301737970992505170000003416283166941695929_" class="st3" d="M6.8,191.2c-0.2-0.7-0.3-1.5-0.4-2.2
			c-0.3-2,1.1-3.8,3.1-4.1c1.7-0.2,3.3,0.8,3.9,2.4c0.3,0.7,0.5,1.4,0.7,2.1L6.8,191.2z"/>
		<path id="パス_482_00000065784650900319812190000015557673736279707268_" class="st3" d="M8.4,193.5c-0.6,0.1-1,0.7-0.9,1.2
			c0.2,2.6,0.2,7.4,0.7,9.4c3.6,14.7,14.2,12.3,10.6-2.6c-0.5-2-2.7-6.3-3.7-8.6c-0.2-0.5-0.8-0.8-1.4-0.7L8.4,193.5z"/>
	</g>
</g>
<g id="Footer-Footprint06">
	<g>
		<path id="パス_481_00000096767226919298701110000008282526331850812348_" class="st3" d="M49.3,214.2c-0.5-0.5-1-1.1-1.5-1.7
			c-1.3-1.5-1-3.8,0.5-5.1c1.3-1.1,3.2-1.1,4.6,0c0.6,0.5,1.2,1,1.7,1.5L49.3,214.2z"/>
		<path id="パス_482_00000032611595668593950910000011009578684045256636_" class="st3" d="M51.9,215.3c-0.4,0.4-0.5,1.1-0.1,1.5
			c1.5,2.1,4,6.2,5.5,7.6c10.8,10.7,18.6,3,7.7-7.8c-1.4-1.4-5.6-3.9-7.7-5.4c-0.5-0.3-1.1-0.3-1.5,0.2L51.9,215.3z"/>
	</g>
</g>
<g id="Footer-Footprint07">
	<g>
		<path id="パス_481_00000079477981184333892410000015080700673192366267_" class="st3" d="M19.1,270.3c0.2-0.7,0.4-1.4,0.7-2.1
			c0.7-1.9,2.8-2.8,4.7-2.1c1.6,0.6,2.5,2.3,2.3,3.9c-0.1,0.7-0.2,1.5-0.4,2.2L19.1,270.3z"/>
		<path id="パス_482_00000100355276320626890640000017279210325002262972_" class="st3" d="M19.4,273c-0.6-0.2-1.2,0.1-1.4,0.6
			c-1.1,2.3-3.4,6.6-3.9,8.6c-3.9,14.7,6.7,17.6,10.6,2.8c0.5-2,0.6-6.8,0.8-9.4c0-0.6-0.3-1.1-0.9-1.3L19.4,273z"/>
	</g>
</g>
<g id="Footer-Footprint08">
	<g>
		<path id="パス_481_00000060723174810917251440000013771351749134032555_" class="st3" d="M37.8,258.4c-0.5-0.5-1-1.1-1.5-1.7
			c-1.3-1.5-1-3.8,0.5-5.1c1.3-1.1,3.2-1.1,4.6,0c0.6,0.5,1.2,1,1.7,1.5L37.8,258.4z"/>
		<path id="パス_482_00000176724647911757476500000010743186587440867739_" class="st3" d="M40.3,259.4c-0.4,0.4-0.5,1.1-0.1,1.5
			c1.5,2.1,4,6.2,5.5,7.6c10.8,10.7,18.6,3,7.7-7.8c-1.4-1.4-5.6-3.9-7.7-5.4c-0.5-0.3-1.1-0.3-1.5,0.2L40.3,259.4z"/>
	</g>
</g>
<g id="Footer-Footprint09">
	<g>
		<path id="パス_481_00000119075861465598649410000014688170699513530241_" class="st3" d="M86.1,278.9c-0.5-0.5-1-1.1-1.5-1.7
			c-1.3-1.5-1-3.8,0.5-5.1c1.3-1.1,3.2-1.1,4.6,0c0.6,0.5,1.2,1,1.7,1.5L86.1,278.9z"/>
		<path id="パス_482_00000031166249818606774250000009748647169174822588_" class="st3" d="M88.7,280c-0.4,0.4-0.5,1.1-0.1,1.5
			c1.5,2.1,4,6.2,5.5,7.6c10.8,10.7,18.6,3,7.7-7.8c-1.4-1.4-5.6-3.9-7.7-5.4c-0.5-0.3-1.1-0.3-1.5,0.2L88.7,280z"/>
	</g>
</g>
<g id="Footer-Footprint10">
	<g>
		<path id="パス_481_00000016044365918115226400000009241566739369047459_" class="st3" d="M130,278.8c-0.7-0.2-1.4-0.4-2.1-0.6
			c-1.9-0.7-2.9-2.7-2.2-4.6c0.6-1.6,2.2-2.6,3.9-2.4c0.7,0.1,1.5,0.2,2.2,0.4L130,278.8z"/>
		<path id="パス_482_00000170243944415861289220000002160195299919898038_" class="st3" d="M132.8,278.3c-0.1,0.6,0.1,1.2,0.7,1.4
			c2.4,1,6.7,3.2,8.7,3.6c14.8,3.4,17.4-7.2,2.5-10.7c-2-0.5-6.8-0.4-9.4-0.5c-0.6,0-1.1,0.4-1.2,0.9L132.8,278.3z"/>
	</g>
</g>
<g id="Footer-Footprint11">
	<g>
		<path id="パス_481_00000125593185889073341100000000729652324350016420_" class="st3" d="M187.9,306.3c-0.7,0-1.5,0-2.2-0.1
			c-2-0.2-3.4-2-3.2-4c0.2-1.7,1.5-3,3.2-3.2c0.7-0.1,1.5-0.1,2.2-0.1L187.9,306.3z"/>
		<path id="パス_482_00000105387069143193773190000003573248724000490166_" class="st3" d="M190.5,305.2c0,0.6,0.4,1.1,1,1.2
			c2.5,0.4,7.3,1.5,9.3,1.5c15.2,0,15.3-11,0-11c-2,0-6.7,1.2-9.3,1.6c-0.6,0.1-1,0.6-1,1.2L190.5,305.2z"/>
	</g>
</g>
<g id="Footer-Footprint12">
	<g>
		<path id="パス_481_00000176725819983134825970000012064533476030888596_" class="st3" d="M236.6,279.8c-0.7,0-1.5,0-2.2-0.1
			c-2-0.2-3.4-2-3.2-4c0.2-1.7,1.5-3,3.2-3.2c0.7-0.1,1.5-0.1,2.2-0.1L236.6,279.8z"/>
		<path id="パス_482_00000163048669835332595500000005440075595127482286_" class="st3" d="M239.2,278.7c0,0.6,0.4,1.1,1,1.2
			c2.5,0.4,7.3,1.5,9.3,1.5c15.2,0,15.3-11,0-11c-2,0-6.7,1.2-9.3,1.6c-0.6,0.1-1,0.6-1,1.2L239.2,278.7z"/>
	</g>
</g>
<g id="Footer-Footprint13">
	<g>
		<path id="パス_481_00000002345346336330661830000000763914346555588531_" class="st3" d="M285.5,306c-0.7,0-1.5,0-2.2-0.1
			c-2-0.2-3.4-2-3.2-4c0.2-1.7,1.5-3,3.2-3.2c0.7-0.1,1.5-0.1,2.2-0.1L285.5,306z"/>
		<path id="パス_482_00000158021667822016477480000012137719156344878003_" class="st3" d="M288,305c0,0.6,0.4,1.1,1,1.2
			c2.5,0.4,7.3,1.5,9.3,1.5c15.2,0,15.3-11,0-11c-2,0-6.7,1.2-9.3,1.6c-0.6,0.1-1,0.6-1,1.2L288,305z"/>
	</g>
</g>
<g id="Footer-Footprint14">
	<g>
		<path id="パス_481_00000123406344239885084000000002021882988913064383_" class="st3" d="M334.2,289.8c-0.7,0-1.5,0-2.2-0.1
			c-2-0.2-3.4-2-3.2-4c0.2-1.7,1.5-3,3.2-3.2c0.7-0.1,1.5-0.1,2.2-0.1L334.2,289.8z"/>
		<path id="パス_482_00000012455797513586511400000009358154293057725370_" class="st3" d="M336.7,288.8c0,0.6,0.4,1.1,1,1.2
			c2.5,0.4,7.3,1.5,9.3,1.5c15.2,0,15.3-11,0-11c-2,0-6.7,1.2-9.3,1.6c-0.6,0.1-1,0.6-1,1.2L336.7,288.8z"/>
	</g>
</g>
</svg>
