<svg enable-background="new 0 0 372 318" viewBox="0 0 372 318" xmlns="http://www.w3.org/2000/svg" xmlns:xlink="http://www.w3.org/1999/xlink"><clipPath id="a"><path d="m0 0h372v318h-372z"/></clipPath><g clip-path="url(#a)"><g fill="#121f30"><path d="m4.8 5.5c0-.8.1-1.5.2-2.3.2-2 2-3.4 4-3.2 1.7.2 3 1.5 3.2 3.2.1.7.1 1.5.1 2.2z"/><path d="m5.9 8c-.6 0-1.1.4-1.2 1-.4 2.5-1.5 7.3-1.5 9.3 0 15.2 11 15.3 11 0 0-2-1.2-6.7-1.6-9.3-.1-.6-.6-1-1.2-1z"/><path d="m31.4 54.1c0-.7.1-1.5.1-2.2.2-2 2-3.4 4-3.2 1.7.2 3 1.5 3.2 3.2.1.7.1 1.5.2 2.2z"/><path d="m32.4 56.7c-.6 0-1.1.4-1.2 1-.4 2.5-1.5 7.3-1.5 9.3 0 15.2 11 15.3 11 0 0-2-1.2-6.7-1.6-9.3-.1-.6-.6-1-1.2-1z"/></g><g fill="#fff"><path d="m1.7 96.1c0-.7.1-1.5.1-2.2.2-2 2-3.4 4-3.2 1.7.2 3 1.5 3.2 3.2.1.7.1 1.5.1 2.2z"/><path d="m2.7 98.6c-.6 0-1.1.4-1.2 1-.4 2.5-1.5 7.3-1.5 9.3 0 15.2 11 15.3 11 0 0-2-1.2-6.7-1.6-9.3-.1-.6-.6-1-1.2-1z"/><path d="m32.8 142.6c-.2-.7-.3-1.5-.5-2.2-.3-2 1-3.8 3-4.2 1.7-.3 3.3.7 3.9 2.2.3.7.5 1.4.7 2.1z"/><path d="m34.4 144.8c-.6.1-.9.7-.9 1.3.2 2.6.4 7.4 1 9.4 4.1 14.6 14.7 11.8 10.6-2.9-.5-2-2.9-6.2-4-8.5-.3-.5-.9-.8-1.4-.6z"/><path d="m6.8 191.3c-.2-.7-.3-1.5-.4-2.2-.3-2 1.1-3.8 3.1-4 1.7-.2 3.3.8 3.9 2.4.3.7.5 1.4.7 2.1z"/><path d="m8.4 193.5c-.6.1-1 .7-.9 1.2.2 2.6.2 7.4.7 9.4 3.6 14.7 14.3 12.3 10.7-2.6-.5-2-2.7-6.2-3.7-8.6-.2-.5-.8-.8-1.4-.7z"/><path d="m49.3 214.2c-.5-.5-1-1.1-1.5-1.7-1.3-1.6-1-3.8.5-5.1 1.3-1.1 3.2-1.1 4.5 0 .6.5 1.2 1 1.7 1.5z"/><path d="m51.9 215.3c-.4.4-.5 1.1-.1 1.5 1.5 2.1 4 6.2 5.5 7.7 10.8 10.7 18.6 3 7.7-7.8-1.4-1.4-5.6-3.9-7.7-5.4-.5-.3-1.1-.3-1.5.2z"/><path d="m37.8 258.4c-.5-.5-1-1.1-1.5-1.7-1.3-1.6-1-3.8.5-5.1 1.3-1.1 3.2-1.1 4.5 0 .6.5 1.2 1 1.7 1.5z"/><path d="m40.3 259.4c-.4.4-.5 1.1-.1 1.5 1.5 2.1 4 6.2 5.5 7.7 10.8 10.7 18.6 3 7.7-7.8-1.4-1.4-5.6-3.9-7.7-5.4-.5-.3-1.1-.3-1.5.2z"/><path d="m86.1 278.9c-.5-.5-1-1.1-1.5-1.7-1.3-1.6-1-3.8.5-5.1 1.3-1.1 3.2-1.1 4.5 0 .6.5 1.2 1 1.7 1.5z"/><path d="m88.7 280c-.4.4-.5 1.1-.1 1.5 1.5 2.1 4.1 6.2 5.5 7.7 10.8 10.7 18.6 3 7.7-7.8-1.4-1.4-5.6-3.9-7.7-5.4-.5-.3-1.1-.3-1.5.2z"/><path d="m130 278.7c-.7-.2-1.4-.4-2.1-.6-1.9-.7-2.9-2.7-2.2-4.6.6-1.6 2.2-2.6 3.9-2.4.7.1 1.5.2 2.2.4z"/><path d="m132.7 278.3c-.1.6.1 1.2.7 1.4 2.4 1 6.7 3.2 8.7 3.6 14.8 3.5 17.4-7.2 2.5-10.7-2-.5-6.8-.4-9.4-.5-.6 0-1.1.4-1.2.9z"/><path d="m187.9 306.3c-.7 0-1.5-.1-2.2-.1-2-.2-3.4-2-3.2-4 .2-1.7 1.5-3 3.2-3.2.7-.1 1.5-.1 2.2-.1z"/><path d="m190.5 305.3c0 .6.4 1.1 1 1.2 2.5.4 7.3 1.5 9.3 1.5 15.2 0 15.3-11 0-11-2 0-6.7 1.2-9.3 1.6-.6.1-1 .6-1 1.2z"/><path d="m236.6 279.8c-.7 0-1.5-.1-2.2-.1-2-.2-3.4-2-3.2-4 .2-1.7 1.5-3 3.2-3.2.7-.1 1.5-.1 2.2-.1z"/><path d="m239.2 278.7c0 .6.4 1.1 1 1.2 2.5.4 7.3 1.5 9.3 1.5 15.2 0 15.3-11 0-11-2 0-6.7 1.2-9.3 1.6-.6.1-1 .6-1 1.2z"/><path d="m285.5 306c-.7 0-1.5-.1-2.2-.1-2-.2-3.4-2-3.2-4 .2-1.7 1.5-3 3.2-3.2.7-.1 1.5-.1 2.2-.1z"/><path d="m288 305c0 .6.4 1.1 1 1.2 2.5.4 7.3 1.5 9.3 1.5 15.2 0 15.3-11 0-11-2 0-6.7 1.2-9.3 1.6-.6.1-1 .6-1 1.2z"/><path d="m334.2 289.8c-.7 0-1.5-.1-2.2-.1-2-.2-3.4-2-3.2-4 .2-1.7 1.5-3 3.2-3.2.7-.1 1.5-.1 2.2-.1z"/><path d="m336.7 288.8c0 .6.4 1.1 1 1.2 2.5.4 7.3 1.5 9.3 1.5 15.2 0 15.3-11 0-11-2 0-6.7 1.2-9.3 1.6-.6.1-1 .6-1 1.2z"/><path d="m19.1 270.3c.2-.7.4-1.4.7-2.1.7-1.9 2.8-2.8 4.7-2.1 1.6.6 2.5 2.2 2.3 3.9-.1.7-.2 1.5-.4 2.2z"/><path d="m19.4 273c-.6-.2-1.2.1-1.4.6-1.1 2.3-3.4 6.6-3.9 8.6-3.9 14.7 6.7 17.6 10.6 2.8.5-2 .6-6.8.8-9.4 0-.6-.3-1.1-.9-1.3z"/></g></g><g fill="none"><path d="m4.8 5.5c0-.7 0-1.5.1-2.2.2-2 2-3.4 4-3.2 1.7.2 3 1.5 3.2 3.2.1.7.1 1.5.1 2.2z"/><path d="m5.9 8c-.6 0-1.1.4-1.2 1-.4 2.5-1.5 7.3-1.5 9.3 0 15.2 11 15.3 11 0 0-2-1.2-6.7-1.6-9.3-.1-.6-.6-1-1.2-1z"/><path d="m4.8 5.5c0-.7 0-1.5.1-2.2.2-2 2-3.4 4-3.2 1.7.2 3 1.5 3.2 3.2.1.7.1 1.5.1 2.2z"/><path d="m5.9 8c-.6 0-1.1.4-1.2 1-.4 2.5-1.5 7.3-1.5 9.3 0 15.2 11 15.3 11 0 0-2-1.2-6.7-1.6-9.3-.1-.6-.6-1-1.2-1z"/><path d="m31.4 54.1c0-.7 0-1.5.1-2.2.2-2 2-3.4 4-3.2 1.7.2 3 1.5 3.2 3.2.1.7.1 1.5.1 2.2z"/><path d="m32.4 56.7c-.6 0-1.1.4-1.2 1-.4 2.5-1.5 7.3-1.5 9.3 0 15.2 11 15.3 11 0 0-2-1.2-6.7-1.6-9.3-.1-.6-.6-1-1.2-1z"/><path d="m1.7 96.1c0-.7 0-1.5.1-2.2.2-2 2-3.4 4-3.2 1.7.2 3 1.5 3.2 3.2.1.7.1 1.5.1 2.2z"/><path d="m2.7 98.6c-.6 0-1.1.4-1.2 1-.4 2.5-1.5 7.3-1.5 9.3 0 15.2 11 15.3 11 0 0-2-1.2-6.7-1.6-9.3-.1-.6-.6-1-1.2-1z"/><path d="m32.8 142.7c-.2-.7-.3-1.5-.5-2.2-.3-2 1-3.8 3-4.2 1.7-.3 3.3.6 4 2.2.3.7.5 1.4.7 2.1z"/><path d="m34.4 144.9c-.6.1-.9.7-.9 1.3.2 2.6.5 7.4 1 9.4 4.1 14.6 14.7 11.8 10.5-3-.5-2-2.9-6.2-4-8.5-.3-.5-.9-.8-1.4-.6z"/><path d="m6.8 191.2c-.2-.7-.3-1.5-.4-2.2-.3-2 1.1-3.8 3.1-4.1 1.7-.2 3.3.8 3.9 2.4.3.7.5 1.4.7 2.1z"/><path d="m8.4 193.5c-.6.1-1 .7-.9 1.2.2 2.6.2 7.4.7 9.4 3.6 14.7 14.2 12.3 10.6-2.6-.5-2-2.7-6.3-3.7-8.6-.2-.5-.8-.8-1.4-.7z"/><path d="m49.3 214.2c-.5-.5-1-1.1-1.5-1.7-1.3-1.5-1-3.8.5-5.1 1.3-1.1 3.2-1.1 4.6 0 .6.5 1.2 1 1.7 1.5z"/><path d="m51.9 215.3c-.4.4-.5 1.1-.1 1.5 1.5 2.1 4 6.2 5.5 7.6 10.8 10.7 18.6 3 7.7-7.8-1.4-1.4-5.6-3.9-7.7-5.4-.5-.3-1.1-.3-1.5.2z"/><path d="m19.1 270.3c.2-.7.4-1.4.7-2.1.7-1.9 2.8-2.8 4.7-2.1 1.6.6 2.5 2.3 2.3 3.9-.1.7-.2 1.5-.4 2.2z"/><path d="m19.4 273c-.6-.2-1.2.1-1.4.6-1.1 2.3-3.4 6.6-3.9 8.6-3.9 14.7 6.7 17.6 10.6 2.8.5-2 .6-6.8.8-9.4 0-.6-.3-1.1-.9-1.3z"/><path d="m37.8 258.4c-.5-.5-1-1.1-1.5-1.7-1.3-1.5-1-3.8.5-5.1 1.3-1.1 3.2-1.1 4.6 0 .6.5 1.2 1 1.7 1.5z"/><path d="m40.3 259.4c-.4.4-.5 1.1-.1 1.5 1.5 2.1 4 6.2 5.5 7.6 10.8 10.7 18.6 3 7.7-7.8-1.4-1.4-5.6-3.9-7.7-5.4-.5-.3-1.1-.3-1.5.2z"/><path d="m86.1 278.9c-.5-.5-1-1.1-1.5-1.7-1.3-1.5-1-3.8.5-5.1 1.3-1.1 3.2-1.1 4.6 0 .6.5 1.2 1 1.7 1.5z"/><path d="m88.7 280c-.4.4-.5 1.1-.1 1.5 1.5 2.1 4 6.2 5.5 7.6 10.8 10.7 18.6 3 7.7-7.8-1.4-1.4-5.6-3.9-7.7-5.4-.5-.3-1.1-.3-1.5.2z"/><path d="m130 278.8c-.7-.2-1.4-.4-2.1-.6-1.9-.7-2.9-2.7-2.2-4.6.6-1.6 2.2-2.6 3.9-2.4.7.1 1.5.2 2.2.4z"/><path d="m132.8 278.3c-.1.6.1 1.2.7 1.4 2.4 1 6.7 3.2 8.7 3.6 14.8 3.4 17.4-7.2 2.5-10.7-2-.5-6.8-.4-9.4-.5-.6 0-1.1.4-1.2.9z"/><path d="m187.9 306.3c-.7 0-1.5 0-2.2-.1-2-.2-3.4-2-3.2-4 .2-1.7 1.5-3 3.2-3.2.7-.1 1.5-.1 2.2-.1z"/><path d="m190.5 305.2c0 .6.4 1.1 1 1.2 2.5.4 7.3 1.5 9.3 1.5 15.2 0 15.3-11 0-11-2 0-6.7 1.2-9.3 1.6-.6.1-1 .6-1 1.2z"/><path d="m236.6 279.8c-.7 0-1.5 0-2.2-.1-2-.2-3.4-2-3.2-4 .2-1.7 1.5-3 3.2-3.2.7-.1 1.5-.1 2.2-.1z"/><path d="m239.2 278.7c0 .6.4 1.1 1 1.2 2.5.4 7.3 1.5 9.3 1.5 15.2 0 15.3-11 0-11-2 0-6.7 1.2-9.3 1.6-.6.1-1 .6-1 1.2z"/><path d="m285.5 306c-.7 0-1.5 0-2.2-.1-2-.2-3.4-2-3.2-4 .2-1.7 1.5-3 3.2-3.2.7-.1 1.5-.1 2.2-.1z"/><path d="m288 305c0 .6.4 1.1 1 1.2 2.5.4 7.3 1.5 9.3 1.5 15.2 0 15.3-11 0-11-2 0-6.7 1.2-9.3 1.6-.6.1-1 .6-1 1.2z"/><path d="m334.2 289.8c-.7 0-1.5 0-2.2-.1-2-.2-3.4-2-3.2-4 .2-1.7 1.5-3 3.2-3.2.7-.1 1.5-.1 2.2-.1z"/><path d="m336.7 288.8c0 .6.4 1.1 1 1.2 2.5.4 7.3 1.5 9.3 1.5 15.2 0 15.3-11 0-11-2 0-6.7 1.2-9.3 1.6-.6.1-1 .6-1 1.2z"/></g></svg>