<?xml version="1.0" encoding="utf-8"?>
<!-- Generator: Adobe Illustrator 26.1.0, SVG Export Plug-In . SVG Version: 6.00 Build 0)  -->
<svg version="1.1" xmlns="http://www.w3.org/2000/svg" xmlns:xlink="http://www.w3.org/1999/xlink" x="0px" y="0px"
	 viewBox="0 0 170 173" style="enable-background:new 0 0 170 173;" xml:space="preserve">
<style type="text/css">
	.st0{fill:#101E2F;}
	.st1{fill:none;}
</style>
<g id="Ability-SP-Freeline">
	<path class="st0" d="M98.6,0.1c-6.2,4.2-11.9,9.1-17.4,14.3c-7,6.6-13.7,13.6-20,20.9C54.5,43.1,48.1,51.3,42.4,60
		c-5.5,8.3-11.2,17.4-13.1,27.3c-1.2,6.4-0.7,13,2.4,18.8c2,3.8,5.1,7.4,8.5,10c7.3,5.4,17,6.6,25.8,5.1c2.7-0.5,5.4-1.3,8.1-1.7
		c2.4-0.4,4.9-0.6,7.3-0.5c3.7,0.2,7.7,1.3,10.1,4.3c3,3.8,2.4,8.9,1,13.2c-1.5,4.7-4.2,8.9-6.2,13.4c-1.9,4.4-3.2,9.2-1.7,14
		c1.2,4,4.1,7.7,8.3,8.9c2,0.6,4.2,0.5,6.2-0.1c2.3-0.7,1.3-4.3-1-3.6c-3.8,1.2-7.2-0.7-9-4c-2.2-3.9-1.4-8.3,0.1-12.3
		c3.3-8.5,10.4-17.2,7.7-26.9c-2.6-9.3-12.9-11.3-21.3-10.2c-5.2,0.7-10.2,2.4-15.5,2.6c-4.4,0.1-8.9-0.5-13-2.2
		c-3-1.3-5.9-3.2-8-5.6c-0.5-0.6-1-1.2-1.5-1.8c-0.2-0.2-0.4-0.5-0.6-0.7c0.3,0.4-0.1-0.1-0.1-0.2c-0.1-0.2-0.3-0.4-0.4-0.6
		c-2.9-4.1-4.3-8.8-4.2-14c0.3-9.4,5.1-17.9,9.9-25.7c5.2-8.5,11.1-16.5,17.3-24.2c6.1-7.5,12.6-14.7,19.5-21.5
		C84.7,16,90.5,10.6,96.8,5.9c1.2-0.9,2.4-1.8,3.7-2.6C102.5,2,100.6-1.3,98.6,0.1L98.6,0.1z"/>
</g>
<g id="Mask">
	<g>
		<path class="st1" d="M99.8,1.6C76.7,15.5,45.7,55.1,35.1,74.8c-11.1,20.6-1.8,42.2,19.9,44.8c8.3,1,18.6-2.5,27-2.2
			c5.2,0.2,10.1,2.3,12.3,7c3.2,6.6-0.4,13.8-2.8,18.8c-3.3,7.1-7.6,15.4-4.1,22.9c2,4.1,7,6.4,11.2,4.6"/>
	</g>
</g>
</svg>
