<svg enable-background="new 0 0 1360 716" viewBox="0 0 1360 716" xmlns="http://www.w3.org/2000/svg"><g fill="none"><path d="m1019.7 234.3 6 6s2.1-1.9 2.5-3.5c.3-1.5-.1-2.9-1-3.8s-2.2-1.4-3.6-1.2c-1.8.2-3.9 2.5-3.9 2.5z"/><path d="m1022.9 241.5c.4.4.5 1.1.1 1.7 0 0-4.3 6.6-5.9 8.5-2.1 2.5-6.2 5-8.7 5.8-3.3 1.1-7.1-.2-5.8-5.9.7-3 3.6-6.7 5.5-8.4 1.7-1.5 6.6-4.9 8.7-6.2.5-.3 1.2-.4 1.8.2-.1-.1 3.7 3.7 4.3 4.3z"/><path d="m1019.7 234.3 6 6s2.1-1.9 2.5-3.5c.3-1.5-.1-2.9-1-3.8s-2.2-1.4-3.6-1.2c-1.8.2-3.9 2.5-3.9 2.5z"/><path d="m1022.9 241.5c.4.4.5 1.1.1 1.7 0 0-4.3 6.6-5.9 8.5-2.1 2.5-6.2 5-8.7 5.8-3.3 1.1-7.1-.2-5.8-5.9.7-3 3.6-6.7 5.5-8.4 1.7-1.5 6.6-4.9 8.7-6.2.5-.3 1.2-.4 1.8.2-.1-.1 3.7 3.7 4.3 4.3z"/><path d="m1097.7 155.8 6 6s2.1-1.9 2.5-3.5c.3-1.5-.1-2.9-1-3.8s-2.2-1.4-3.6-1.2c-1.9.2-3.9 2.5-3.9 2.5z"/><path d="m1100.9 163.1c.4.4.5 1.1.1 1.7 0 0-4.3 6.6-5.9 8.5-2.1 2.5-6.2 5-8.7 5.8-3.3 1.1-7.1-.2-5.8-5.9.7-3 3.6-6.7 5.5-8.4 1.7-1.5 6.6-4.9 8.7-6.2.5-.3 1.2-.4 1.8.2-.1-.1 3.6 3.6 4.3 4.3z"/><path d="m1120.9 101 6 6s2.1-1.9 2.5-3.5c.3-1.5-.1-2.9-1-3.8s-2.2-1.4-3.6-1.2c-1.8.2-3.9 2.5-3.9 2.5z"/><path d="m1124.1 108.3c.4.4.5 1.1.1 1.7 0 0-4.3 6.6-5.9 8.5-2.1 2.5-6.2 5-8.7 5.8-3.3 1.1-7.1-.2-5.8-5.9.7-3 3.6-6.7 5.5-8.4 1.7-1.5 6.6-4.9 8.7-6.2.5-.3 1.2-.4 1.8.2-.1-.1 3.6 3.6 4.3 4.3z"/><path d="m1175.6 77.4 6 6s2.1-1.9 2.5-3.5c.3-1.5-.1-2.9-1-3.8s-2.2-1.4-3.6-1.2c-1.8.2-3.9 2.5-3.9 2.5z"/><path d="m1178.8 84.7c.4.4.5 1.1.1 1.7 0 0-4.3 6.6-5.9 8.5-2.1 2.5-6.2 5-8.7 5.8-3.3 1.1-7.1-.2-5.8-5.9.7-3 3.6-6.7 5.5-8.4 1.7-1.5 6.6-4.9 8.7-6.2.5-.3 1.2-.4 1.8.2-.1-.1 3.7 3.6 4.3 4.3z"/></g><path d="m357.8 327.4c-19.7 1.3-39.2 5.2-58.4 9.7-24.7 5.8-49.1 13.2-73.1 21.7-25.7 9.1-50.9 19.6-75.2 31.9-11.9 6-23.7 12.4-34.9 19.6-11.3 7.3-22.1 15.9-30.6 26.3-10.6 13.1-17.5 28.9-17.2 46 .1 4.6.7 9.1 1.4 13.7.1.3.1.6.1.9.1.3.1 1-.1-.5.1.7.2 1.4.3 2.2.3 1.9.7 3.8 1.2 5.6 1.2 4.4 3 8.6 5.1 12.6 10.8 20.6 31.3 34.6 53 41.8 6.7 2.2 13.5 3.9 20.1 6.6 5.6 2.3 11 5.1 16 8.5 8 5.5 14.6 13.2 15.9 22.9 1.8 13-6.7 24.2-15.9 32.3-8.9 7.9-19.6 13.6-29.3 20.6-9.8 7.1-19 15.3-22.8 27.2-3.5 10.8-2.3 23.6 5.4 32.3 3.7 4.2 8.8 6.9 14.2 8.1 4.7 1 6.7-6.2 2-7.2-10.1-2.2-15.8-10.6-16-20.6-.2-11.3 5.8-20.6 14.1-27.8 18.2-15.9 44.5-24.7 53.8-49.1 4.1-10.9 2.3-23.3-4.6-32.7-6.9-9.3-17-15.7-27.5-20.2-12.4-5.4-25.9-7.8-38-14-9.8-5.1-18.7-11.8-25.9-20.2-5.6-6.6-10-14.4-12.3-22.5-.5-1.9-1-3.7-1.3-5.6 0-.2-.2-1.6-.1-.9.1.9-.1-.6-.1-1 0-.3-.1-.7-.2-1-.1-.8-.3-1.6-.4-2.4-.1-.4-.1-.9-.2-1.3 0-.1-.1-1.1 0-.3.1.7 0-.3-.1-.4-.3-2.4-.5-4.9-.5-7.4 0-1.4 0-2.9.1-4.3 0-.8.1-1.5.2-2.2 0-.4.1-.8.1-1.2 0-.2.2-1.6.1-.6 1.2-7.9 3.6-14.9 7.4-21.6 12.2-21.9 34.4-35.5 55.7-47.3 23.2-12.8 47.4-23.7 72.1-33.1 24-9.2 48.5-17.2 73.3-23.7 11-2.9 22-5.5 33.1-7.8 5-1 10-1.9 15-2.8 2.3-.4 4.7-.8 7-1.1s3.6-.5 6-.8c3.9-.5 7.8-.9 11.8-1.1 2-.1 3.8-1.6 3.8-3.8.2-2.2-1.5-4.1-3.6-4z" fill="#101e2f"/><path d="m1355.7 0c-20.1 8.4-40.2 16.9-59.2 27.7-22.1 12.5-42.9 28-59.2 47.6-12.7 15.3-22 33.6-26.2 53.1-3.9 18.1-3 39.5 13.5 51.1 9.4 6.6 22.1 8.4 32.4 2.8 10-5.4 14.7-17.2 10.9-28-8.5-24.4-38.6-24.1-59.5-19.2-13.2 3.1-25.3 8.8-37 15.6-11.1 6.4-21.6 13.7-31.6 21.7-20.5 16.3-38.4 35.4-56.3 54.5-9.6 10.2-18.9 20.9-29.1 30.5-9.3 8.7-19.4 16.4-30.1 23.2-23.5 14.9-50.3 25.6-78.1 28.7-7 .8-14.1 1.1-21.2.9-4.8-.1-4.8 7.4 0 7.5 27.8.7 55.3-6.3 80.3-18.1 22.5-10.6 43.5-25.3 60.8-43.2 18.7-19.4 36.4-39.7 55.8-58.3 17.6-16.8 36.6-31.8 58-43.5 11.2-6.1 22.8-10.9 35.4-13.2 10.4-1.9 21.9-2.5 31.9 1.3 8.4 3.1 15.7 12 14.5 21.4-1.2 9.7-11.3 14.6-20.2 14-8.8-.7-16.7-6.5-20.8-13.7-3.9-7-4.6-15.5-3.9-23.7 1.4-17.7 8.8-35.7 18.6-50.5 13-19.6 31.9-35.3 51.4-48 18.6-12 38.6-21.5 58.9-30.1 4-1.7 8-3.4 12-5 1.9-.8 3.2-2.5 2.6-4.6-.4-1.6-2.7-3.3-4.6-2.5z" fill="#101e2f"/></svg>