<svg height="716.269" viewBox="0 0 1291.07 716.269" width="1291.07" xmlns="http://www.w3.org/2000/svg" xmlns:xlink="http://www.w3.org/1999/xlink"><clipPath id="a"><path d="m0 0h1291.07v716.269h-1291.07z"/></clipPath><g fill="#121f30"><g clip-path="url(#a)"><path d="m757.739.3c-46.383 20.127-95.185 42.035-124.686 85.189-12.637 18.485-22.457 42.2-19.967 65.007 1.122 10.278 5 20.991 13.2 27.761a31.438 31.438 0 0 0 24.3 6.484c8.2-1.166 15.839-5.83 19.029-13.714 3.938-9.739-.152-20.828-7.4-27.856-8.68-8.41-21.32-10.6-32.982-9.852a118.654 118.654 0 0 0 -35.709 8.441c-46.824 18.508-79.8 58.074-113.844 93.32-17.639 18.262-36.226 35.942-58 49.228a178.534 178.534 0 0 1 -74.252 25.095 184.737 184.737 0 0 1 -19.586.954c-4.227-.013-4.235 6.555 0 6.568a186.047 186.047 0 0 0 71.733-14.087c22.247-9.235 41.946-22.875 59.847-38.88 35.2-31.471 63.425-70.55 102.547-97.623 18.553-12.839 39.571-22.983 62.135-25.949 11.158-1.466 24.438-1.056 33.121 7.109 6.536 6.145 10.548 17.124 4.111 24.8-4.892 5.838-13.674 7.214-20.786 5.664-9.156-2-15.513-8.888-18.6-17.571-7.222-20.284.675-44.032 10.753-61.92 23.844-42.321 68.259-65.905 111.09-84.947 5.74-2.551 11.5-5.055 17.263-7.553 3.867-1.679.525-7.34-3.315-5.672" transform="translate(528.297)"/><path d="m288.5 124.734a618 618 0 0 0 -219.972 70.132c-19.483 10.572-39.153 22.659-52.9 40.438a72.67 72.67 0 0 0 -14.692 56.671c3.048 19.136 13.48 37.088 29.128 48.611 19.294 14.205 44.859 14.8 64.576 28.09 8.46 5.7 16.049 13.945 18.033 24.244 2.112 10.971-3.531 21.3-10.882 29.017-15.256 16.012-37.991 22.837-51.414 40.881-9.962 13.4-10.722 35.906 3.909 46.606a21.485 21.485 0 0 0 10.905 3.912c4.206.394 4.177-6.176 0-6.568-7.85-.738-12.752-7.579-14.628-14.7a29.243 29.243 0 0 1 4.064-23.92c11.925-17.92 34.495-24.8 49.638-39.389 7.464-7.188 13.7-16.21 15.085-26.684 1.3-9.776-2-19.2-8-26.871-14.208-18.159-37.169-22.42-57.646-29.895-10.2-3.725-19.68-8.77-27.359-16.551a68.212 68.212 0 0 1 -14.886-23.069c-6.9-17.72-6.857-37.9 1.991-54.934 10.028-19.3 28.153-32.677 46.48-43.5a543.924 543.924 0 0 1 66.289-32.816 614.213 614.213 0 0 1 143.735-40.579q9.253-1.427 18.548-2.559c4.143-.507 4.193-7.08 0-6.568" transform="translate(-.001 202.918)"/></g><g clip-path="url(#a)"><path d="m421.254 30.953a22.671 22.671 0 0 1 1.9-1.681 4.1 4.1 0 0 1 5.78 5.754 22.428 22.428 0 0 1 -1.673 1.913z" transform="translate(685.456 46.084)"/><path d="m430.86 30.675a1.362 1.362 0 0 0 -1.75-.166c-2.388 1.676-7.062 4.595-8.677 6.219-12.127 12.2-3.421 21.073 8.819 8.756 1.624-1.631 4.453-6.3 6.134-8.749a1.366 1.366 0 0 0 -.179-1.747z" transform="translate(674.642 49.247)"/><path d="m400.447 39.944a22.315 22.315 0 0 1 1.9-1.681 4.1 4.1 0 0 1 5.777 5.756 22.3 22.3 0 0 1 -1.674 1.91z" transform="translate(651.599 60.714)"/><path d="m410.053 39.667a1.362 1.362 0 0 0 -1.75-.166c-2.388 1.676-7.062 4.595-8.678 6.219-12.127 12.2-3.421 21.073 8.819 8.756 1.624-1.631 4.453-6.3 6.134-8.749a1.366 1.366 0 0 0 -.179-1.747z" transform="translate(640.785 63.878)"/><path d="m391.58 60.806a22.665 22.665 0 0 1 1.9-1.681 4.1 4.1 0 0 1 5.78 5.754 22.418 22.418 0 0 1 -1.673 1.913z" transform="translate(637.171 94.66)"/><path d="m401.187 60.528a1.362 1.362 0 0 0 -1.75-.166c-2.388 1.676-7.062 4.595-8.677 6.219-12.127 12.2-3.421 21.073 8.819 8.756 1.624-1.631 4.453-6.3 6.134-8.749a1.366 1.366 0 0 0 -.179-1.747z" transform="translate(626.359 97.823)"/><path d="m370.773 69.8a22.653 22.653 0 0 1 1.9-1.681 4.1 4.1 0 0 1 5.78 5.754 22.427 22.427 0 0 1 -1.673 1.913z" transform="translate(603.315 109.29)"/><path d="m380.379 69.519a1.362 1.362 0 0 0 -1.75-.165c-2.388 1.676-7.062 4.595-8.678 6.219-12.127 12.2-3.421 21.073 8.819 8.756 1.624-1.631 4.453-6.3 6.134-8.749a1.366 1.366 0 0 0 -.179-1.747z" transform="translate(592.5 112.453)"/><path d="m361.907 90.658a22.682 22.682 0 0 1 1.9-1.681 4.1 4.1 0 0 1 5.78 5.754 22.437 22.437 0 0 1 -1.673 1.913z" transform="translate(588.888 143.234)"/><path d="m371.513 90.38a1.362 1.362 0 0 0 -1.75-.166c-2.388 1.676-7.062 4.595-8.678 6.219-12.127 12.2-3.421 21.073 8.819 8.756 1.624-1.631 4.453-6.3 6.134-8.749a1.366 1.366 0 0 0 -.179-1.747z" transform="translate(578.074 146.398)"/></g></g></svg>