<svg enable-background="new 0 0 170 173" viewBox="0 0 170 173" xmlns="http://www.w3.org/2000/svg"><path d="m98.6.1c-6.2 4.2-11.9 9.1-17.4 14.3-7 6.6-13.7 13.6-20 20.9-6.7 7.8-13.1 16-18.8 24.7-5.5 8.3-11.2 17.4-13.1 27.3-1.2 6.4-.7 13 2.4 18.8 2 3.8 5.1 7.4 8.5 10 7.3 5.4 17 6.6 25.8 5.1 2.7-.5 5.4-1.3 8.1-1.7 2.4-.4 4.9-.6 7.3-.5 3.7.2 7.7 1.3 10.1 4.3 3 3.8 2.4 8.9 1 13.2-1.5 4.7-4.2 8.9-6.2 13.4-1.9 4.4-3.2 9.2-1.7 14 1.2 4 4.1 7.7 8.3 8.9 2 .6 4.2.5 6.2-.1 2.3-.7 1.3-4.3-1-3.6-3.8 1.2-7.2-.7-9-4-2.2-3.9-1.4-8.3.1-12.3 3.3-8.5 10.4-17.2 7.7-26.9-2.6-9.3-12.9-11.3-21.3-10.2-5.2.7-10.2 2.4-15.5 2.6-4.4.1-8.9-.5-13-2.2-3-1.3-5.9-3.2-8-5.6-.5-.6-1-1.2-1.5-1.8-.2-.2-.4-.5-.6-.7.3.4-.1-.1-.1-.2-.1-.2-.3-.4-.4-.6-2.9-4.1-4.3-8.8-4.2-14 .3-9.4 5.1-17.9 9.9-25.7 5.2-8.5 11.1-16.5 17.3-24.2 6.1-7.5 12.6-14.7 19.5-21.5 5.7-5.8 11.5-11.2 17.8-15.9 1.2-.9 2.4-1.8 3.7-2.6 2-1.3.1-4.6-1.9-3.2z" fill="#101e2f"/><path d="m99.8 1.6c-23.1 13.9-54.1 53.5-64.7 73.2-11.1 20.6-1.8 42.2 19.9 44.8 8.3 1 18.6-2.5 27-2.2 5.2.2 10.1 2.3 12.3 7 3.2 6.6-.4 13.8-2.8 18.8-3.3 7.1-7.6 15.4-4.1 22.9 2 4.1 7 6.4 11.2 4.6" fill="none"/></svg>