<?xml version="1.0" encoding="utf-8"?>
<!-- Generator: Adobe Illustrator 26.1.0, SVG Export Plug-In . SVG Version: 6.00 Build 0)  -->
<svg version="1.1" xmlns="http://www.w3.org/2000/svg" xmlns:xlink="http://www.w3.org/1999/xlink" x="0px" y="0px"
	 viewBox="0 0 1360 716" style="enable-background:new 0 0 1360 716;" xml:space="preserve">
<style type="text/css">
	.st0{fill:none;}
	.st1{fill:#101E2F;}
</style>
<g id="footprint05">
	<g>
		<path class="st0" d="M1019.7,234.3l6,6c0,0,2.1-1.9,2.5-3.5c0.3-1.5-0.1-2.9-1-3.8c-0.9-0.9-2.2-1.4-3.6-1.2
			C1021.8,232,1019.7,234.3,1019.7,234.3z"/>
		<path class="st0" d="M1022.9,241.5c0.4,0.4,0.5,1.1,0.1,1.7c0,0-4.3,6.6-5.9,8.5c-2.1,2.5-6.2,5-8.7,5.8c-3.3,1.1-7.1-0.2-5.8-5.9
			c0.7-3,3.6-6.7,5.5-8.4c1.7-1.5,6.6-4.9,8.7-6.2c0.5-0.3,1.2-0.4,1.8,0.2C1018.5,237.1,1022.3,240.9,1022.9,241.5z"/>
	</g>
</g>
<g id="footprint04">
	<g>
		<path class="st0" d="M1019.7,234.3l6,6c0,0,2.1-1.9,2.5-3.5c0.3-1.5-0.1-2.9-1-3.8c-0.9-0.9-2.2-1.4-3.6-1.2
			C1021.8,232,1019.7,234.3,1019.7,234.3z"/>
		<path class="st0" d="M1022.9,241.5c0.4,0.4,0.5,1.1,0.1,1.7c0,0-4.3,6.6-5.9,8.5c-2.1,2.5-6.2,5-8.7,5.8c-3.3,1.1-7.1-0.2-5.8-5.9
			c0.7-3,3.6-6.7,5.5-8.4c1.7-1.5,6.6-4.9,8.7-6.2c0.5-0.3,1.2-0.4,1.8,0.2C1018.5,237.1,1022.3,240.9,1022.9,241.5z"/>
	</g>
</g>
<g id="footprint03">
	<g>
		<path class="st0" d="M1097.7,155.8l6,6c0,0,2.1-1.9,2.5-3.5c0.3-1.5-0.1-2.9-1-3.8c-0.9-0.9-2.2-1.4-3.6-1.2
			C1099.7,153.5,1097.7,155.8,1097.7,155.8z"/>
		<path class="st0" d="M1100.9,163.1c0.4,0.4,0.5,1.1,0.1,1.7c0,0-4.3,6.6-5.9,8.5c-2.1,2.5-6.2,5-8.7,5.8c-3.3,1.1-7.1-0.2-5.8-5.9
			c0.7-3,3.6-6.7,5.5-8.4c1.7-1.5,6.6-4.9,8.7-6.2c0.5-0.3,1.2-0.4,1.8,0.2C1096.5,158.7,1100.2,162.4,1100.9,163.1z"/>
	</g>
</g>
<g id="footprint02">
	<g>
		<path class="st0" d="M1120.9,101l6,6c0,0,2.1-1.9,2.5-3.5c0.3-1.5-0.1-2.9-1-3.8c-0.9-0.9-2.2-1.4-3.6-1.2
			C1123,98.7,1120.9,101,1120.9,101z"/>
		<path class="st0" d="M1124.1,108.3c0.4,0.4,0.5,1.1,0.1,1.7c0,0-4.3,6.6-5.9,8.5c-2.1,2.5-6.2,5-8.7,5.8c-3.3,1.1-7.1-0.2-5.8-5.9
			c0.7-3,3.6-6.7,5.5-8.4c1.7-1.5,6.6-4.9,8.7-6.2c0.5-0.3,1.2-0.4,1.8,0.2C1119.7,103.9,1123.4,107.6,1124.1,108.3z"/>
	</g>
</g>
<g id="footprint01">
	<g>
		<path class="st0" d="M1175.6,77.4l6,6c0,0,2.1-1.9,2.5-3.5c0.3-1.5-0.1-2.9-1-3.8c-0.9-0.9-2.2-1.4-3.6-1.2
			C1177.7,75.1,1175.6,77.4,1175.6,77.4z"/>
		<path class="st0" d="M1178.8,84.7c0.4,0.4,0.5,1.1,0.1,1.7c0,0-4.3,6.6-5.9,8.5c-2.1,2.5-6.2,5-8.7,5.8c-3.3,1.1-7.1-0.2-5.8-5.9
			c0.7-3,3.6-6.7,5.5-8.4c1.7-1.5,6.6-4.9,8.7-6.2c0.5-0.3,1.2-0.4,1.8,0.2C1174.4,80.3,1178.2,84,1178.8,84.7z"/>
	</g>
</g>
<g id="line02">
	<g>
		<g>
			<path class="st1" d="M357.8,327.4c-19.7,1.3-39.2,5.2-58.4,9.7c-24.7,5.8-49.1,13.2-73.1,21.7c-25.7,9.1-50.9,19.6-75.2,31.9
				c-11.9,6-23.7,12.4-34.9,19.6c-11.3,7.3-22.1,15.9-30.6,26.3c-10.6,13.1-17.5,28.9-17.2,46c0.1,4.6,0.7,9.1,1.4,13.7
				c0.1,0.3,0.1,0.6,0.1,0.9c0.1,0.3,0.1,1-0.1-0.5c0.1,0.7,0.2,1.4,0.3,2.2c0.3,1.9,0.7,3.8,1.2,5.6c1.2,4.4,3,8.6,5.1,12.6
				c10.8,20.6,31.3,34.6,53,41.8c6.7,2.2,13.5,3.9,20.1,6.6c5.6,2.3,11,5.1,16,8.5c8,5.5,14.6,13.2,15.9,22.9
				c1.8,13-6.7,24.2-15.9,32.3c-8.9,7.9-19.6,13.6-29.3,20.6c-9.8,7.1-19,15.3-22.8,27.2c-3.5,10.8-2.3,23.6,5.4,32.3
				c3.7,4.2,8.8,6.9,14.2,8.1c4.7,1,6.7-6.2,2-7.2c-10.1-2.2-15.8-10.6-16-20.6c-0.2-11.3,5.8-20.6,14.1-27.8
				c18.2-15.9,44.5-24.7,53.8-49.1c4.1-10.9,2.3-23.3-4.6-32.7c-6.9-9.3-17-15.7-27.5-20.2c-12.4-5.4-25.9-7.8-38-14
				c-9.8-5.1-18.7-11.8-25.9-20.2c-5.6-6.6-10-14.4-12.3-22.5c-0.5-1.9-1-3.7-1.3-5.6c0-0.2-0.2-1.6-0.1-0.9c0.1,0.9-0.1-0.6-0.1-1
				c0-0.3-0.1-0.7-0.2-1c-0.1-0.8-0.3-1.6-0.4-2.4c-0.1-0.4-0.1-0.9-0.2-1.3c0-0.1-0.1-1.1,0-0.3c0.1,0.7,0-0.3-0.1-0.4
				c-0.3-2.4-0.5-4.9-0.5-7.4c0-1.4,0-2.9,0.1-4.3c0-0.8,0.1-1.5,0.2-2.2c0-0.4,0.1-0.8,0.1-1.2c0-0.2,0.2-1.6,0.1-0.6
				c1.2-7.9,3.6-14.9,7.4-21.6c12.2-21.9,34.4-35.5,55.7-47.3c23.2-12.8,47.4-23.7,72.1-33.1c24-9.2,48.5-17.2,73.3-23.7
				c11-2.9,22-5.5,33.1-7.8c5-1,10-1.9,15-2.8c2.3-0.4,4.7-0.8,7-1.1c2.3-0.3,3.6-0.5,6-0.8c3.9-0.5,7.8-0.9,11.8-1.1
				c2-0.1,3.8-1.6,3.8-3.8C361.6,329.2,359.9,327.3,357.8,327.4L357.8,327.4z"/>
		</g>
	</g>
</g>
<g id="line01">
	<g>
		<g>
			<path class="st1" d="M1355.7,0c-20.1,8.4-40.2,16.9-59.2,27.7c-22.1,12.5-42.9,28-59.2,47.6c-12.7,15.3-22,33.6-26.2,53.1
				c-3.9,18.1-3,39.5,13.5,51.1c9.4,6.6,22.1,8.4,32.4,2.8c10-5.4,14.7-17.2,10.9-28c-8.5-24.4-38.6-24.1-59.5-19.2
				c-13.2,3.1-25.3,8.8-37,15.6c-11.1,6.4-21.6,13.7-31.6,21.7c-20.5,16.3-38.4,35.4-56.3,54.5c-9.6,10.2-18.9,20.9-29.1,30.5
				c-9.3,8.7-19.4,16.4-30.1,23.2c-23.5,14.9-50.3,25.6-78.1,28.7c-7,0.8-14.1,1.1-21.2,0.9c-4.8-0.1-4.8,7.4,0,7.5
				c27.8,0.7,55.3-6.3,80.3-18.1c22.5-10.6,43.5-25.3,60.8-43.2c18.7-19.4,36.4-39.7,55.8-58.3c17.6-16.8,36.6-31.8,58-43.5
				c11.2-6.1,22.8-10.9,35.4-13.2c10.4-1.9,21.9-2.5,31.9,1.3c8.4,3.1,15.7,12,14.5,21.4c-1.2,9.7-11.3,14.6-20.2,14
				c-8.8-0.7-16.7-6.5-20.8-13.7c-3.9-7-4.6-15.5-3.9-23.7c1.4-17.7,8.8-35.7,18.6-50.5c13-19.6,31.9-35.3,51.4-48
				c18.6-12,38.6-21.5,58.9-30.1c4-1.7,8-3.4,12-5c1.9-0.8,3.2-2.5,2.6-4.6C1359.9,0.9,1357.6-0.8,1355.7,0L1355.7,0z"/>
		</g>
	</g>
</g>
</svg>
