<?xml version="1.0" encoding="utf-8"?>
<!-- Generator: Adobe Illustrator 26.3.1, SVG Export Plug-In . SVG Version: 6.00 Build 0)  -->
<svg version="1.1" xmlns="http://www.w3.org/2000/svg" xmlns:xlink="http://www.w3.org/1999/xlink" x="0px" y="0px"
	 viewBox="0 0 1260 942" style="enable-background:new 0 0 1260 942;" xml:space="preserve">
<style type="text/css">
	.st0{fill:none;}
	.st1{fill:#121F30;}
</style>
<g id="Line01">
	<g>
		<path class="st0" d="M1257.5,3c-72.3,30.8-142.4,68.3-144.2,144c0.3,18.6,8.1,32.6,25.6,35.2c23.7,3.5,36.7-20.1,16-37.9
			c-7.1-6.1-14.5-6.8-23.9-7.1c-89.2,5.8-131.5,95.6-201.9,145.6c-25.6,18.5-67,31.6-104.1,31.6"/>
	</g>
</g>
<g id="Line02">
	<g>
		<path class="st0" d="M291.5,553.2C189.4,567,117.6,596.8,56.4,632.6c-43.6,25.5-69.2,72.2-34.6,118c11.1,14.7,28.2,22.4,46,27.2
			c58,15.8,57.9,48.7,42.8,67.4c-18.3,22.5-52.5,30.1-59.8,53.9c-6.6,21.6,3.5,36,22.6,37.5"/>
	</g>
</g>
<g id="Footprint01">
	<path id="パス_481" class="st1" d="M1075.3,77.7c0.6-0.6,1.2-1.2,1.9-1.7c1.8-1.4,4.3-1.2,5.8,0.6c1.2,1.5,1.2,3.7,0,5.2
		c-0.5,0.7-1.1,1.3-1.7,1.9L1075.3,77.7z"/>
	<path id="パス_482" class="st1" d="M1074.1,80.6c-0.5-0.5-1.2-0.5-1.8-0.2c-2.4,1.7-7.1,4.6-8.7,6.2c-12.1,12.2-3.4,21.1,8.8,8.8
		c1.6-1.6,4.5-6.3,6.1-8.7c0.4-0.5,0.3-1.3-0.2-1.7L1074.1,80.6z"/>
</g>
<g id="Footprint02">
	<path id="パス_483" class="st1" d="M1020.7,101.3c0.6-0.6,1.2-1.2,1.9-1.7c1.8-1.4,4.3-1.2,5.8,0.6c1.2,1.5,1.2,3.7,0,5.2
		c-0.5,0.7-1.1,1.3-1.7,1.9L1020.7,101.3z"/>
	<path id="パス_484" class="st1" d="M1019.5,104.2c-0.5-0.5-1.2-0.5-1.8-0.2c-2.4,1.7-7.1,4.6-8.7,6.2
		c-12.1,12.2-3.4,21.1,8.8,8.8c1.6-1.6,4.5-6.3,6.1-8.7c0.4-0.5,0.3-1.3-0.2-1.7L1019.5,104.2z"/>
</g>
<g id="Footprint03">
	<path id="パス_485" class="st1" d="M997.4,156.1c0.6-0.6,1.2-1.2,1.9-1.7c1.8-1.4,4.3-1.2,5.8,0.6c1.2,1.5,1.2,3.7,0,5.2
		c-0.5,0.7-1.1,1.3-1.7,1.9L997.4,156.1z"/>
	<path id="パス_486" class="st1" d="M996.2,159c-0.5-0.5-1.2-0.5-1.8-0.2c-2.4,1.7-7.1,4.6-8.7,6.2c-12.1,12.2-3.4,21.1,8.8,8.8
		c1.6-1.6,4.5-6.3,6.1-8.7c0.4-0.5,0.3-1.3-0.2-1.7L996.2,159z"/>
</g>
<g id="Footprint04">
	<path id="パス_487" class="st1" d="M942.7,179.7c0.6-0.6,1.2-1.2,1.9-1.7c1.8-1.4,4.3-1.2,5.8,0.6c1.2,1.5,1.2,3.7,0,5.2
		c-0.5,0.7-1.1,1.3-1.7,1.9L942.7,179.7z"/>
	<path id="パス_488" class="st1" d="M941.5,182.6c-0.5-0.5-1.2-0.5-1.8-0.2c-2.4,1.7-7.1,4.6-8.7,6.2c-12.1,12.2-3.4,21.1,8.8,8.8
		c1.6-1.6,4.5-6.3,6.1-8.7c0.4-0.5,0.3-1.3-0.2-1.7L941.5,182.6z"/>
</g>
<g id="Footprint05">
	<path id="パス_489" class="st1" d="M919.4,234.5c0.6-0.6,1.2-1.2,1.9-1.7c1.8-1.4,4.3-1.2,5.8,0.6c1.2,1.5,1.2,3.7,0,5.2
		c-0.5,0.7-1.1,1.3-1.7,1.9L919.4,234.5z"/>
	<path id="パス_490" class="st1" d="M918.2,237.4c-0.5-0.5-1.2-0.5-1.8-0.2c-2.4,1.7-7.1,4.6-8.7,6.2c-12.1,12.2-3.4,21.1,8.8,8.8
		c1.6-1.6,4.5-6.3,6.1-8.7c0.4-0.5,0.3-1.3-0.2-1.7L918.2,237.4z"/>
</g>
</svg>
