<svg height="811" viewBox="0 0 320 811" width="320" xmlns="http://www.w3.org/2000/svg" xmlns:xlink="http://www.w3.org/1999/xlink"><clipPath id="a"><path d="m3187-382h320v811h-320z"/></clipPath><clipPath id="b"><path d="m3151 23h320v320h-320z"/></clipPath><clipPath id="c"><path d="m.455 0h145v104h-145z"/></clipPath><clipPath id="d"><path d="m0 0h140.839v103.045h-140.839z"/></clipPath><g clip-path="url(#a)" transform="translate(-3187 382)"><g clip-path="url(#b)" transform="translate(36 86)"><path d="m32.533 0c17.575 0 23.298 2.458 28.567 11.04s-8.924 15.5-28.566 13.325-27.196-3.04-31.825-11.413 14.248-12.952 31.824-12.952z" fill="#8aa6d9" opacity=".998" transform="matrix(.998 -.07 .07 .998 3279.014 121.609)"/><g fill="none" stroke="#333" stroke-dasharray="800 800" stroke-linecap="round" stroke-width="1.5"><path d="m-2636 935.785h65.817" stroke-linejoin="round" transform="translate(5861.716 -803.156)"/><path d="m-2636 935.785h36.227" transform="translate(5793.001 -803.156)"/><path d="m-2635.914 935.785h-.086" transform="translate(5843.844 -803.156)"/><path d="m-2635.914 935.785h-.086" transform="translate(5847.936 -803.156)"/><path d="m0 0 211.267.143" transform="matrix(0 1 -1 0 3311.048 138.662)"/></g><g clip-path="url(#c)" transform="translate(3332.545 23)"><g clip-path="url(#d)" stroke-linejoin="round" stroke-width="1.5" transform="translate(5.9 1.239)"><path d="m16.838 127.656c-.721.566-3.3 4.353-5.089 5.343a6.142 6.142 0 0 1 -5.222.41 4.4 4.4 0 0 1 -2.848-3.1c.012-.342 0-1.592 2.522-4.493s2.01-4.033 3.5-6.58a37.156 37.156 0 0 1 3.947-6.084c2.234-2.83 3.464-5.348 5.436-8.349 1.953-2.971 3.212-6.049 5.445-7.889s17.884-8.088 22.948-9.927z" fill="#fff" stroke="#707070" transform="translate(-1.979 -48.779)"/><path d="m16.838 127.656c-.721.566-3.3 4.353-5.089 5.343a6.142 6.142 0 0 1 -5.222.41 4.4 4.4 0 0 1 -2.848-3.1c.012-.342 0-1.592 2.522-4.493s2.01-4.033 3.5-6.58a37.156 37.156 0 0 1 3.947-6.084c2.234-2.83 3.464-5.348 5.436-8.349 1.953-2.971 3.212-6.049 5.445-7.889s17.884-8.088 22.948-9.927z" fill="none" stroke="#1a1311" stroke-linecap="round" transform="translate(-1.979 -48.779)"/><path d="m59.913 120.358c4.763 5.126 1.636 6.049 1.115 7" fill="none" stroke="#1a1311" stroke-linecap="round" transform="translate(-32.216 -67.491)"/><path d="m44.275 147.038c.894-.708 4.041-5.6 4.786-6.028s2.172-2.648 3.558-4.7" fill="none" stroke="#1a1311" stroke-linecap="round" transform="translate(-23.807 -76.433)"/><path d="m155.175 143.835a58.717 58.717 0 0 0 -9.01-3.113 119.608 119.608 0 0 0 -20.477-3.4c-4.021-.141-26.434-.071-34.625-1.91-4.084-.917-12.435-3.679-16.382-4.882a33.249 33.249 0 0 0 -9.234-1.7c-3.053-.141-4.989.071-6.627.071s-4.915.354-7.081.283-9.45.92-15.854-1.245-5.584-7.457-3.8-10.924 5.957-3.538 7.595-4.174 2.83-.141 5.734-.566 6.85-.778 9.605-1.1 6.553.531 9.531.531a20.157 20.157 0 0 0 6.744-.7c4.2-1.065 3.966-.38 4.661-1.547s-.067-6.021-1.726-6.75c-1.841-.81-4.393 1.352-8.116 0-3.213-1.167-3.441-1.018-5.6-3l18.348-23.123c4.468-.708 15.3 10.6 16.233 11.32 7.139 5.554 20.463 12.732 21.743 13.3a73.175 73.175 0 0 0 16.819 5.059c5.527.893 22.595 2.441 22.595 2.441" fill="#fff" stroke="#707070" transform="translate(-16.567 -42.928)"/><path d="m155.175 143.835a58.717 58.717 0 0 0 -9.01-3.113 119.608 119.608 0 0 0 -20.477-3.4c-4.021-.141-26.434-.071-34.625-1.91-4.084-.917-12.435-3.679-16.382-4.882a33.249 33.249 0 0 0 -9.234-1.7c-3.053-.141-4.989.071-6.627.071s-4.915.354-7.081.283-9.45.92-15.854-1.245-5.584-7.457-3.8-10.924 5.957-3.538 7.595-4.174 2.83-.141 5.734-.566 6.85-.778 9.605-1.1 6.553.531 9.531.531a20.157 20.157 0 0 0 6.744-.7c4.2-1.065 3.966-.38 4.661-1.547s-.067-6.021-1.726-6.75c-1.841-.81-4.393 1.352-8.116 0-3.213-1.167-3.441-1.018-5.6-3l18.348-23.123c4.468-.708 15.3 10.6 16.233 11.32 7.139 5.554 20.463 12.732 21.743 13.3a73.175 73.175 0 0 0 16.819 5.059c5.527.893 22.595 2.441 22.595 2.441" fill="none" stroke="#1a1311" stroke-linecap="round" transform="translate(-16.567 -42.928)"/><path d="m63.541 78.386 42.513-52.837c.7-.864.534-2.862.534-2.862a12.9 12.9 0 0 0 -2.867-2.883c-.464-.333-1.638-1.38-2.886-2.193s-2.364-.038-3.555.141c-1.677.253-6.851 4.068-10.723 8.455s-9.457 11.356-11.243 14.044-5.584 8.88-6.478 10.719-1.213 5.624 1.973 1.663 16.978-25.046 18.091-24.338 3.053-1.981 3.053-1.981 4.138-4.033 5.138-6.3l-42.463 54.233a8.327 8.327 0 0 0 2.035 3.21c1.562 1.565 6.877.929 6.877.929" fill="#fff" stroke="#707070" transform="translate(-29.374 -9.671)"/><path d="m63.541 78.386 42.513-52.837c.7-.864.534-2.862.534-2.862a12.9 12.9 0 0 0 -2.867-2.883c-.464-.333-1.638-1.38-2.886-2.193s-2.364-.038-3.555.141c-1.677.253-6.851 4.068-10.723 8.455s-9.457 11.356-11.243 14.044-5.584 8.88-6.478 10.719-1.213 5.624 1.973 1.663 16.978-25.046 18.091-24.338 3.053-1.981 3.053-1.981 4.138-4.033 5.138-6.3l-42.463 54.233a8.327 8.327 0 0 0 2.035 3.21c1.563 1.566 6.878.929 6.878.929z" fill="none" stroke="#1a1311" stroke-linecap="round" transform="translate(-29.374 -9.671)"/><path d="m153.174 8.617c.1-.032 2.774-3.29 3.2-3.644s1.1-.955 1.1-.955 2.867-2.441 4.8-1.132 2.643 3.007 1.378 5.165a55.354 55.354 0 0 1 -4.464 5.84z" fill="#fff" stroke="#707070" transform="translate(-82.364 -1.402)"/><path d="m153.174 8.617c.1-.032 2.774-3.29 3.2-3.644s1.1-.955 1.1-.955 2.867-2.441 4.8-1.132 2.643 3.007 1.378 5.165a55.354 55.354 0 0 1 -4.464 5.84z" fill="none" stroke="#1a1311" stroke-linecap="round" transform="translate(-82.364 -1.402)"/><path d="m66.019 75.856s23.723-30.576 34.108-42.828" fill="none" stroke="#1a1311" stroke-linecap="round" transform="translate(-35.499 -18.521)"/><path d="m49.061 148.522a13.532 13.532 0 0 0 2.063 2.419 21.616 21.616 0 0 0 2.23 1.6l-9.079 1.35z" fill="#fff" stroke="#707070" transform="translate(-23.807 -83.284)"/><path d="m49.061 148.522a13.532 13.532 0 0 0 2.063 2.419 21.616 21.616 0 0 0 2.23 1.6l-9.079 1.35z" fill="none" stroke="#1a1311" transform="translate(-23.807 -83.284)"/><path d="m25.607 186.434s-.246.266-.631.694c-.656.73-1.718 1.931-2.656 3.091-1.489 1.84-1.452 2.547-2.979 4.351s-1.564 2.37-3.015 2.617-2.458-.389-4.207-1.592a5.216 5.216 0 0 1 -2.383-3.148c-.075-.566 1.489-2.37 2.569-3.785s1.936-1.981 3.388-3.891 3.3-4.493 3.3-4.493.842 2.99 2.713 4.341a12.072 12.072 0 0 0 3.9 1.815" fill="#fff" stroke="#707070" transform="translate(-5.234 -101.091)"/><path d="m25.607 186.434s-.246.266-.631.694c-.656.73-1.718 1.931-2.656 3.091-1.489 1.84-1.452 2.547-2.979 4.351s-1.564 2.37-3.015 2.617-2.458-.389-4.207-1.592a5.216 5.216 0 0 1 -2.383-3.148c-.075-.566 1.489-2.37 2.569-3.785s1.936-1.981 3.388-3.891 3.3-4.493 3.3-4.493.842 2.99 2.713 4.341a12.072 12.072 0 0 0 3.9 1.815" fill="none" stroke="#1a1311" stroke-linecap="round" transform="translate(-5.234 -101.091)"/><path d="m11.731 214.37c-.056-.064-3.991 3.723-5 4.569-1.622 1.363-2.507 1.465-3.382.936-1.228-.743-.931-1.784-.335-3.27a62.717 62.717 0 0 1 3.341-5.773 11.375 11.375 0 0 0 2.363 2.232 12.886 12.886 0 0 0 3.009 1.305" fill="#fff" stroke="#707070" transform="translate(-1.344 -118.225)"/><g fill="none" stroke="#1a1311" stroke-linecap="round"><path d="m11.731 214.37c-.056-.064-3.991 3.723-5 4.569-1.622 1.363-2.507 1.465-3.382.936-1.228-.743-.931-1.784-.335-3.27a62.717 62.717 0 0 1 3.341-5.773 11.375 11.375 0 0 0 2.363 2.232 12.886 12.886 0 0 0 3.013 1.306z" transform="translate(-1.344 -118.225)"/><path d="m83.564 146.205a39.97 39.97 0 0 1 -3.252 3.679l-.742.541" transform="translate(-42.786 -81.985)"/><path d="m118.746 113.758a3.51 3.51 0 0 1 1.843 3.361c.086 2.733-.363 2.423.6 4.58.951 2.139 1.955 2.831 2.253 5.379a5.87 5.87 0 0 1 -.477 3.716" transform="translate(-63.851 -63.79)"/><path d="m127.564 133.075c-.05.01 2.476-.816 3.127-2.122a21.17 21.17 0 0 0 1.34-6.509c.224-2.689.521-7.086.521-7.086" transform="translate(-68.593 -65.808)"/></g><path d="m83.939 129.16-9.593 11.671a19.144 19.144 0 0 1 6.161-.566c4.183.119 5.54 1.131 10.567.817s6.7-.339 8.3-2.112.766-2.522.011-4.4-.478-2.1-2.383-2.477-1.752 1.035-5.345.508-7.714-3.44-7.714-3.44" fill="#fff" stroke="#707070" transform="translate(-39.977 -72.427)"/><path d="m83.939 129.16-9.593 11.671a19.144 19.144 0 0 1 6.161-.566c4.183.119 5.54 1.131 10.567.817s6.7-.339 8.3-2.112.766-2.522.011-4.4-.478-2.1-2.383-2.477-1.752 1.035-5.345.508-7.718-3.441-7.718-3.441z" fill="none" stroke="#1a1311" stroke-linecap="round" transform="translate(-39.977 -72.427)"/><path d="m78.047 144.72c1.669-.1 6.193-3.017 7.254-3.706s1.005-1.327 1.955-1.221l.264.03a.546.546 0 0 1 .485.59c-.03.438.2 1.155 1.384 2.14 2.111 1.751 2 1.15 3.06 2.565a12.992 12.992 0 0 1 1.183 1.706" fill="none" stroke="#1a1311" stroke-linecap="round" transform="translate(-41.967 -78.383)"/><path d="m88.79 195.426c9.662-1.186 18.25 1.223 21.148 2.956a4.428 4.428 0 0 1 1.765 3.8 5.977 5.977 0 0 1 -1.992 4.173 1.426 1.426 0 0 1 -1.032.388 3.592 3.592 0 0 1 -.708-.077 21.486 21.486 0 0 1 -3.212-1.247c-2.01-.9-6.087-2.388-7.26-2.812a9.771 9.771 0 0 1 -4.077-2.123c-1.229-1.273-3.574-4.139-4.633-5.055" fill="#fff" stroke="#707070" transform="translate(-47.744 -109.408)"/><path d="m88.79 195.426c9.662-1.186 18.25 1.223 21.148 2.956a4.428 4.428 0 0 1 1.765 3.8 5.977 5.977 0 0 1 -1.992 4.173 1.426 1.426 0 0 1 -1.032.388 3.592 3.592 0 0 1 -.708-.077 21.486 21.486 0 0 1 -3.212-1.247c-2.01-.9-6.087-2.388-7.26-2.812a9.771 9.771 0 0 1 -4.077-2.123c-1.229-1.273-3.574-4.139-4.633-5.055" fill="none" stroke="#1a1311" stroke-linecap="round" transform="translate(-47.744 -109.408)"/><path d="m44.071 194.292c.436 1.8 1.106 2.688 1.441 3.962s.67 4.068 1.005 5.66a6.156 6.156 0 0 0 1.191 2.936 4.425 4.425 0 0 0 1.266.424s3.611.457 5.324-1.257 2.122-4.615 2.159-6.455a21.031 21.031 0 0 0 -.525-4.251s-2.732.066-5.668-.02a30.208 30.208 0 0 1 -6.194-1" fill="#fff" stroke="#707070" transform="translate(-23.698 -108.95)"/><path d="m44.071 194.292c.436 1.8 1.106 2.688 1.441 3.962s.67 4.068 1.005 5.66a6.156 6.156 0 0 0 1.191 2.936 4.425 4.425 0 0 0 1.266.424s3.611.457 5.324-1.257 2.122-4.615 2.159-6.455a21.031 21.031 0 0 0 -.525-4.251s-2.732.066-5.668-.02a30.208 30.208 0 0 1 -6.193-.999z" fill="none" stroke="#1a1311" stroke-linecap="round" transform="translate(-23.698 -108.95)"/></g></g></g></g></svg>