<svg xmlns="http://www.w3.org/2000/svg" xmlns:xlink="http://www.w3.org/1999/xlink" width="320" height="811" viewBox="0 0 320 811">
  <defs>
    <clipPath id="clip-path">
      <rect id="長方形_198" data-name="長方形 198" width="320" height="811" transform="translate(3187 -382)" fill="none"/>
    </clipPath>
    <clipPath id="clip-path-2">
      <rect id="長方形_197" data-name="長方形 197" width="320" height="320" transform="translate(3151 23)" fill="none"/>
    </clipPath>
    <clipPath id="clip-path-3">
      <rect id="長方形_196" data-name="長方形 196" width="145" height="104" transform="translate(0.455 0)" fill="none"/>
    </clipPath>
    <clipPath id="clip-path-4">
      <rect id="長方形_195" data-name="長方形 195" width="140.839" height="103.045" fill="none" stroke="#707070" stroke-linejoin="round" stroke-width="1.5"/>
    </clipPath>
  </defs>
  <g id="マスクグループ_28" data-name="マスクグループ 28" transform="translate(-3187 382)" clip-path="url(#clip-path)">
    <g id="マスクグループ_27" data-name="マスクグループ 27" transform="translate(36 86)" clip-path="url(#clip-path-2)">
      <g id="グループ_102" data-name="グループ 102" transform="translate(3115.917 24.096)">
        <g id="グループ_99" data-name="グループ 99" transform="translate(41.083 93.174)">
          <path id="パス_678" data-name="パス 678" d="M32.533,0C50.108,0,55.831,2.458,61.1,11.04s-8.924,15.5-28.566,13.325S5.338,21.325.709,12.952,14.957,0,32.533,0Z" transform="matrix(0.998, -0.07, 0.07, 0.998, 122.014, 4.339)" fill="#8aa6d9" opacity="0.998"/>
          <path id="パス_679" data-name="パス 679" d="M-2636,935.785h65.817" transform="translate(2704.716 -920.426)" fill="none" stroke="#333" stroke-linecap="round" stroke-linejoin="round" stroke-width="1.5" stroke-dasharray="800 800"/>
          <path id="パス_680" data-name="パス 680" d="M-2636,935.785h36.227" transform="translate(2636.001 -920.426)" fill="none" stroke="#333" stroke-linecap="round" stroke-width="1.5" stroke-dasharray="800 800"/>
          <path id="パス_681" data-name="パス 681" d="M-2635.914,935.785H-2636" transform="translate(2686.844 -920.426)" fill="none" stroke="#333" stroke-linecap="round" stroke-width="1.5" stroke-dasharray="800 800"/>
          <path id="パス_682" data-name="パス 682" d="M-2635.914,935.785H-2636" transform="translate(2690.936 -920.426)" fill="none" stroke="#333" stroke-linecap="round" stroke-width="1.5" stroke-dasharray="800 800"/>
          <path id="パス_683" data-name="パス 683" d="M0,0,211.267.143" transform="translate(154.048 21.392) rotate(90)" fill="none" stroke="#333" stroke-linecap="round" stroke-width="1.5" stroke-dasharray="800 800"/>
        </g>
        <g id="マスクグループ_26" data-name="マスクグループ 26" transform="translate(216.628 -1.096)" clip-path="url(#clip-path-3)">
          <g id="グループ_101" data-name="グループ 101" transform="translate(5.9 1.239)">
            <g id="グループ_100" data-name="グループ 100" clip-path="url(#clip-path-4)">
              <path id="パス_684" data-name="パス 684" d="M16.838,127.656c-.721.566-3.3,4.353-5.089,5.343a6.142,6.142,0,0,1-5.222.41,4.4,4.4,0,0,1-2.848-3.1c.012-.342,0-1.592,2.522-4.493s2.01-4.033,3.5-6.58a37.156,37.156,0,0,1,3.947-6.084c2.234-2.83,3.464-5.348,5.436-8.349,1.953-2.971,3.212-6.049,5.445-7.889s17.884-8.088,22.948-9.927Z" transform="translate(-1.979 -48.779)" fill="#fff" stroke="#707070" stroke-linejoin="round" stroke-width="1.5"/>
              <path id="パス_685" data-name="パス 685" d="M16.838,127.656c-.721.566-3.3,4.353-5.089,5.343a6.142,6.142,0,0,1-5.222.41,4.4,4.4,0,0,1-2.848-3.1c.012-.342,0-1.592,2.522-4.493s2.01-4.033,3.5-6.58a37.156,37.156,0,0,1,3.947-6.084c2.234-2.83,3.464-5.348,5.436-8.349,1.953-2.971,3.212-6.049,5.445-7.889s17.884-8.088,22.948-9.927Z" transform="translate(-1.979 -48.779)" fill="none" stroke="#1a1311" stroke-linecap="round" stroke-linejoin="round" stroke-width="1.5"/>
              <path id="パス_686" data-name="パス 686" d="M59.913,120.358c4.763,5.126,1.636,6.049,1.115,7" transform="translate(-32.216 -67.491)" fill="none" stroke="#1a1311" stroke-linecap="round" stroke-linejoin="round" stroke-width="1.5"/>
              <path id="パス_687" data-name="パス 687" d="M44.275,147.038c.894-.708,4.041-5.6,4.786-6.028s2.172-2.648,3.558-4.7" transform="translate(-23.807 -76.433)" fill="none" stroke="#1a1311" stroke-linecap="round" stroke-linejoin="round" stroke-width="1.5"/>
              <path id="パス_688" data-name="パス 688" d="M155.175,143.835a58.717,58.717,0,0,0-9.01-3.113,119.608,119.608,0,0,0-20.477-3.4c-4.021-.141-26.434-.071-34.625-1.91-4.084-.917-12.435-3.679-16.382-4.882a33.249,33.249,0,0,0-9.234-1.7c-3.053-.141-4.989.071-6.627.071s-4.915.354-7.081.283-9.45.92-15.854-1.245-5.584-7.457-3.8-10.924,5.957-3.538,7.595-4.174,2.83-.141,5.734-.566,6.85-.778,9.605-1.1,6.553.531,9.531.531a20.157,20.157,0,0,0,6.744-.7c4.2-1.065,3.966-.38,4.661-1.547s-.067-6.021-1.726-6.75c-1.841-.81-4.393,1.352-8.116,0-3.213-1.167-3.441-1.018-5.6-3L78.861,76.586c4.468-.708,15.3,10.6,16.233,11.32,7.139,5.554,20.463,12.732,21.743,13.3a73.175,73.175,0,0,0,16.819,5.059c5.527.893,22.595,2.441,22.595,2.441" transform="translate(-16.567 -42.928)" fill="#fff" stroke="#707070" stroke-linejoin="round" stroke-width="1.5"/>
              <path id="パス_689" data-name="パス 689" d="M155.175,143.835a58.717,58.717,0,0,0-9.01-3.113,119.608,119.608,0,0,0-20.477-3.4c-4.021-.141-26.434-.071-34.625-1.91-4.084-.917-12.435-3.679-16.382-4.882a33.249,33.249,0,0,0-9.234-1.7c-3.053-.141-4.989.071-6.627.071s-4.915.354-7.081.283-9.45.92-15.854-1.245-5.584-7.457-3.8-10.924,5.957-3.538,7.595-4.174,2.83-.141,5.734-.566,6.85-.778,9.605-1.1,6.553.531,9.531.531a20.157,20.157,0,0,0,6.744-.7c4.2-1.065,3.966-.38,4.661-1.547s-.067-6.021-1.726-6.75c-1.841-.81-4.393,1.352-8.116,0-3.213-1.167-3.441-1.018-5.6-3L78.861,76.586c4.468-.708,15.3,10.6,16.233,11.32,7.139,5.554,20.463,12.732,21.743,13.3a73.175,73.175,0,0,0,16.819,5.059c5.527.893,22.595,2.441,22.595,2.441" transform="translate(-16.567 -42.928)" fill="none" stroke="#1a1311" stroke-linecap="round" stroke-linejoin="round" stroke-width="1.5"/>
              <path id="パス_690" data-name="パス 690" d="M63.541,78.386l42.513-52.837c.7-.864.534-2.862.534-2.862a12.9,12.9,0,0,0-2.867-2.883c-.464-.333-1.638-1.38-2.886-2.193s-2.364-.038-3.555.141c-1.677.253-6.851,4.068-10.723,8.455S77.1,37.563,75.314,40.251,69.73,49.131,68.836,50.97s-1.213,5.624,1.973,1.663S87.787,27.587,88.9,28.295s3.053-1.981,3.053-1.981,4.138-4.033,5.138-6.3L54.628,74.247a8.327,8.327,0,0,0,2.035,3.21c1.562,1.565,6.877.929,6.877.929" transform="translate(-29.374 -9.671)" fill="#fff" stroke="#707070" stroke-linejoin="round" stroke-width="1.5"/>
              <path id="パス_691" data-name="パス 691" d="M63.541,78.386l42.513-52.837c.7-.864.534-2.862.534-2.862a12.9,12.9,0,0,0-2.867-2.883c-.464-.333-1.638-1.38-2.886-2.193s-2.364-.038-3.555.141c-1.677.253-6.851,4.068-10.723,8.455S77.1,37.563,75.314,40.251,69.73,49.131,68.836,50.97s-1.213,5.624,1.973,1.663S87.787,27.587,88.9,28.295s3.053-1.981,3.053-1.981,4.138-4.033,5.138-6.3L54.628,74.247a8.327,8.327,0,0,0,2.035,3.21C58.226,79.023,63.541,78.386,63.541,78.386Z" transform="translate(-29.374 -9.671)" fill="none" stroke="#1a1311" stroke-linecap="round" stroke-linejoin="round" stroke-width="1.5"/>
              <path id="パス_692" data-name="パス 692" d="M153.174,8.617c.1-.032,2.774-3.29,3.2-3.644s1.1-.955,1.1-.955,2.867-2.441,4.8-1.132,2.643,3.007,1.378,5.165a55.354,55.354,0,0,1-4.464,5.84Z" transform="translate(-82.364 -1.402)" fill="#fff" stroke="#707070" stroke-linejoin="round" stroke-width="1.5"/>
              <path id="パス_693" data-name="パス 693" d="M153.174,8.617c.1-.032,2.774-3.29,3.2-3.644s1.1-.955,1.1-.955,2.867-2.441,4.8-1.132,2.643,3.007,1.378,5.165a55.354,55.354,0,0,1-4.464,5.84Z" transform="translate(-82.364 -1.402)" fill="none" stroke="#1a1311" stroke-linecap="round" stroke-linejoin="round" stroke-width="1.5"/>
              <path id="パス_694" data-name="パス 694" d="M66.019,75.856S89.742,45.28,100.127,33.028" transform="translate(-35.499 -18.521)" fill="none" stroke="#1a1311" stroke-linecap="round" stroke-linejoin="round" stroke-width="1.5"/>
              <path id="パス_695" data-name="パス 695" d="M49.061,148.522a13.532,13.532,0,0,0,2.063,2.419,21.616,21.616,0,0,0,2.23,1.6l-9.079,1.35Z" transform="translate(-23.807 -83.284)" fill="#fff" stroke="#707070" stroke-linejoin="round" stroke-width="1.5"/>
              <path id="パス_696" data-name="パス 696" d="M49.061,148.522a13.532,13.532,0,0,0,2.063,2.419,21.616,21.616,0,0,0,2.23,1.6l-9.079,1.35Z" transform="translate(-23.807 -83.284)" fill="none" stroke="#1a1311" stroke-linejoin="round" stroke-width="1.5"/>
              <path id="パス_697" data-name="パス 697" d="M25.607,186.434s-.246.266-.631.694c-.656.73-1.718,1.931-2.656,3.091-1.489,1.84-1.452,2.547-2.979,4.351s-1.564,2.37-3.015,2.617-2.458-.389-4.207-1.592a5.216,5.216,0,0,1-2.383-3.148c-.075-.566,1.489-2.37,2.569-3.785s1.936-1.981,3.388-3.891,3.3-4.493,3.3-4.493.842,2.99,2.713,4.341a12.072,12.072,0,0,0,3.9,1.815" transform="translate(-5.234 -101.091)" fill="#fff" stroke="#707070" stroke-linejoin="round" stroke-width="1.5"/>
              <path id="パス_698" data-name="パス 698" d="M25.607,186.434s-.246.266-.631.694c-.656.73-1.718,1.931-2.656,3.091-1.489,1.84-1.452,2.547-2.979,4.351s-1.564,2.37-3.015,2.617-2.458-.389-4.207-1.592a5.216,5.216,0,0,1-2.383-3.148c-.075-.566,1.489-2.37,2.569-3.785s1.936-1.981,3.388-3.891,3.3-4.493,3.3-4.493.842,2.99,2.713,4.341a12.072,12.072,0,0,0,3.9,1.815" transform="translate(-5.234 -101.091)" fill="none" stroke="#1a1311" stroke-linecap="round" stroke-linejoin="round" stroke-width="1.5"/>
              <path id="パス_699" data-name="パス 699" d="M11.731,214.37c-.056-.064-3.991,3.723-5,4.569-1.622,1.363-2.507,1.465-3.382.936-1.228-.743-.931-1.784-.335-3.27a62.717,62.717,0,0,1,3.341-5.773,11.375,11.375,0,0,0,2.363,2.232,12.886,12.886,0,0,0,3.009,1.305" transform="translate(-1.344 -118.225)" fill="#fff" stroke="#707070" stroke-linejoin="round" stroke-width="1.5"/>
              <path id="パス_700" data-name="パス 700" d="M11.731,214.37c-.056-.064-3.991,3.723-5,4.569-1.622,1.363-2.507,1.465-3.382.936-1.228-.743-.931-1.784-.335-3.27a62.717,62.717,0,0,1,3.341-5.773,11.375,11.375,0,0,0,2.363,2.232A12.886,12.886,0,0,0,11.731,214.37Z" transform="translate(-1.344 -118.225)" fill="none" stroke="#1a1311" stroke-linecap="round" stroke-linejoin="round" stroke-width="1.5"/>
              <path id="パス_701" data-name="パス 701" d="M83.564,146.205a39.97,39.97,0,0,1-3.252,3.679l-.742.541" transform="translate(-42.786 -81.985)" fill="none" stroke="#1a1311" stroke-linecap="round" stroke-linejoin="round" stroke-width="1.5"/>
              <path id="パス_702" data-name="パス 702" d="M118.746,113.758a3.51,3.51,0,0,1,1.843,3.361c.086,2.733-.363,2.423.6,4.58.951,2.139,1.955,2.831,2.253,5.379a5.87,5.87,0,0,1-.477,3.716" transform="translate(-63.851 -63.79)" fill="none" stroke="#1a1311" stroke-linecap="round" stroke-linejoin="round" stroke-width="1.5"/>
              <path id="パス_703" data-name="パス 703" d="M127.564,133.075c-.05.01,2.476-.816,3.127-2.122a21.17,21.17,0,0,0,1.34-6.509c.224-2.689.521-7.086.521-7.086" transform="translate(-68.593 -65.808)" fill="none" stroke="#1a1311" stroke-linecap="round" stroke-linejoin="round" stroke-width="1.5"/>
              <path id="パス_704" data-name="パス 704" d="M83.939,129.16l-9.593,11.671a19.144,19.144,0,0,1,6.161-.566c4.183.119,5.54,1.131,10.567.817s6.7-.339,8.3-2.112.766-2.522.011-4.4-.478-2.1-2.383-2.477-1.752,1.035-5.345.508-7.714-3.44-7.714-3.44" transform="translate(-39.977 -72.427)" fill="#fff" stroke="#707070" stroke-linejoin="round" stroke-width="1.5"/>
              <path id="パス_705" data-name="パス 705" d="M83.939,129.16l-9.593,11.671a19.144,19.144,0,0,1,6.161-.566c4.183.119,5.54,1.131,10.567.817s6.7-.339,8.3-2.112.766-2.522.011-4.4-.478-2.1-2.383-2.477-1.752,1.035-5.345.508S83.939,129.16,83.939,129.16Z" transform="translate(-39.977 -72.427)" fill="none" stroke="#1a1311" stroke-linecap="round" stroke-linejoin="round" stroke-width="1.5"/>
              <path id="パス_706" data-name="パス 706" d="M78.047,144.72c1.669-.1,6.193-3.017,7.254-3.706s1.005-1.327,1.955-1.221l.264.03a.546.546,0,0,1,.485.59c-.03.438.2,1.155,1.384,2.14,2.111,1.751,2,1.15,3.06,2.565a12.992,12.992,0,0,1,1.183,1.706" transform="translate(-41.967 -78.383)" fill="none" stroke="#1a1311" stroke-linecap="round" stroke-linejoin="round" stroke-width="1.5"/>
              <path id="パス_707" data-name="パス 707" d="M88.79,195.426c9.662-1.186,18.25,1.223,21.148,2.956a4.428,4.428,0,0,1,1.765,3.8,5.977,5.977,0,0,1-1.992,4.173,1.426,1.426,0,0,1-1.032.388,3.592,3.592,0,0,1-.708-.077,21.486,21.486,0,0,1-3.212-1.247c-2.01-.9-6.087-2.388-7.26-2.812a9.771,9.771,0,0,1-4.077-2.123c-1.229-1.273-3.574-4.139-4.633-5.055" transform="translate(-47.744 -109.408)" fill="#fff" stroke="#707070" stroke-linejoin="round" stroke-width="1.5"/>
              <path id="パス_708" data-name="パス 708" d="M88.79,195.426c9.662-1.186,18.25,1.223,21.148,2.956a4.428,4.428,0,0,1,1.765,3.8,5.977,5.977,0,0,1-1.992,4.173,1.426,1.426,0,0,1-1.032.388,3.592,3.592,0,0,1-.708-.077,21.486,21.486,0,0,1-3.212-1.247c-2.01-.9-6.087-2.388-7.26-2.812a9.771,9.771,0,0,1-4.077-2.123c-1.229-1.273-3.574-4.139-4.633-5.055" transform="translate(-47.744 -109.408)" fill="none" stroke="#1a1311" stroke-linecap="round" stroke-linejoin="round" stroke-width="1.5"/>
              <path id="パス_709" data-name="パス 709" d="M44.071,194.292c.436,1.8,1.106,2.688,1.441,3.962s.67,4.068,1.005,5.66a6.156,6.156,0,0,0,1.191,2.936,4.425,4.425,0,0,0,1.266.424s3.611.457,5.324-1.257,2.122-4.615,2.159-6.455a21.031,21.031,0,0,0-.525-4.251s-2.732.066-5.668-.02a30.208,30.208,0,0,1-6.194-1" transform="translate(-23.698 -108.95)" fill="#fff" stroke="#707070" stroke-linejoin="round" stroke-width="1.5"/>
              <path id="パス_710" data-name="パス 710" d="M44.071,194.292c.436,1.8,1.106,2.688,1.441,3.962s.67,4.068,1.005,5.66a6.156,6.156,0,0,0,1.191,2.936,4.425,4.425,0,0,0,1.266.424s3.611.457,5.324-1.257,2.122-4.615,2.159-6.455a21.031,21.031,0,0,0-.525-4.251s-2.732.066-5.668-.02A30.208,30.208,0,0,1,44.071,194.292Z" transform="translate(-23.698 -108.95)" fill="none" stroke="#1a1311" stroke-linecap="round" stroke-linejoin="round" stroke-width="1.5"/>
            </g>
          </g>
        </g>
      </g>
    </g>
  </g>
</svg>
