<svg height="752.788" viewBox="0 0 1282 752.788" width="1282" xmlns="http://www.w3.org/2000/svg" xmlns:xlink="http://www.w3.org/1999/xlink"><clipPath id="a"><path d="m0 0h504v359h-504z"/></clipPath><clipPath id="b"><path d="m0 0h490.235v358.681h-490.235z"/></clipPath><path d="m-2635.7 935.785h-.3" fill="none" stroke="#333" stroke-dasharray="800 800" stroke-linecap="round" stroke-width="6" transform="translate(2774.762 -558.867)"/><path d="m113.241 0c61.178 0 81.1 8.555 99.432 38.427s-31.064 53.954-99.432 46.381-94.661-10.578-110.772-39.723 49.594-45.085 110.772-45.085z" fill="#8aa6d9" opacity=".998" transform="matrix(.998 -.07 .07 .998 595.376 338.561)"/><g fill="none" stroke="#333" stroke-dasharray="800 800" stroke-linecap="round"><path d="m-2636 935.785h229.1" stroke-width="4" transform="translate(3045.851 -558.867)"/><path d="m-2636 935.785h126.1" stroke-width="4" transform="translate(2806.666 -558.867)"/><path d="m-2636 935.785h96.227" stroke-width="4" transform="translate(2638 -558.867)"/><path d="m-2635.7 935.785h-.3" stroke-width="6" transform="translate(2983.641 -558.867)"/><path d="m-2635.7 935.785h-.3" stroke-width="6" transform="translate(2997.883 -558.867)"/><path d="m-2635.7 935.785h-.3" stroke-width="6" transform="translate(2760.762 -558.867)"/><path d="m0 0 647.32.5" stroke-width="4" transform="matrix(-.819 .574 -.574 -.819 714.41 378.712)"/></g><g clip-path="url(#a)" transform="translate(778)"><g clip-path="url(#b)" transform="translate(20.765 -.03)"><path d="m49.483 228.545c-2.51 1.971-11.492 15.15-17.713 18.6s-11.439 3.4-18.177 1.427-9.963-9.31-9.913-10.787c.04-1.19 0-5.541 8.779-15.638s7-14.037 12.183-22.9 5.958-11.332 13.738-21.183 12.057-18.616 18.92-29.064c6.8-10.343 11.179-21.057 18.954-27.46s62.253-28.152 79.878-34.556z" fill="#fff" transform="translate(2.241 46.012)"/><path d="m49.483 228.545c-2.51 1.971-11.492 15.15-17.713 18.6s-11.439 3.4-18.177 1.427-9.963-9.31-9.913-10.787c.04-1.19 0-5.541 8.779-15.638s7-14.037 12.183-22.9 5.958-11.332 13.738-21.183 12.057-18.616 18.92-29.064c6.8-10.343 11.179-21.057 18.954-27.46s62.253-28.152 79.878-34.556z" fill="none" stroke="#1a1311" stroke-linecap="round" stroke-linejoin="round" stroke-width="5" transform="translate(2.241 46.012)"/><path d="m59.913 120.358c16.579 17.841 5.695 21.057 3.88 24.381" fill="none" stroke="#1a1311" stroke-linecap="round" stroke-linejoin="round" stroke-width="5" transform="translate(36.495 63.663)"/><path d="m44.275 173.663c3.11-2.463 14.067-19.5 16.659-20.982s7.56-9.216 12.384-16.377" fill="none" stroke="#1a1311" stroke-linecap="round" stroke-linejoin="round" stroke-width="5" transform="translate(26.97 72.098)"/><path d="m463.7 310.747s-10.109-4.925-31.362-10.836-57.281-11.329-71.277-11.822-92.012-.246-120.523-6.649c-14.215-3.192-43.286-12.806-57.021-16.993s-21.514-5.417-32.141-5.911-17.364.246-23.067.246-17.107 1.232-24.647.986-32.892 3.2-55.184-4.335-19.438-25.957-13.217-38.025 20.739-12.308 26.439-14.528 9.85-.492 19.958-1.971 23.844-2.709 33.435-3.816 22.81 1.847 33.177 1.847 12.778.29 23.476-2.422c14.613-3.706 13.806-1.324 16.225-5.386s-.233-20.957-6.007-23.5c-6.409-2.819-15.292 4.706-28.252 0-11.184-4.062-11.977-3.544-19.493-10.44l63.847-80.531c15.551-2.463 53.269 36.887 56.5 39.4 24.85 19.333 71.228 44.32 75.683 46.3a254.71 254.71 0 0 0 58.551 17.615c19.237 3.107 78.648 8.5 78.648 8.5" fill="#fff" transform="translate(18.767 40.493)"/><path d="m463.7 310.747s-10.109-4.925-31.362-10.836-57.281-11.329-71.277-11.822-92.012-.246-120.523-6.649c-14.215-3.192-43.286-12.806-57.021-16.993s-21.514-5.417-32.141-5.911-17.364.246-23.067.246-17.107 1.232-24.647.986-32.892 3.2-55.184-4.335-19.438-25.957-13.217-38.025 20.739-12.308 26.439-14.528 9.85-.492 19.958-1.971 23.844-2.709 33.435-3.816 22.81 1.847 33.177 1.847 12.778.29 23.476-2.422c14.613-3.706 13.806-1.324 16.225-5.386s-.233-20.957-6.007-23.5c-6.409-2.819-15.292 4.706-28.252 0-11.184-4.062-11.977-3.544-19.493-10.44l63.847-80.531c15.551-2.463 53.269 36.887 56.5 39.4 24.85 19.333 71.228 44.32 75.683 46.3a254.71 254.71 0 0 0 58.551 17.615c19.237 3.107 78.648 8.5 78.648 8.5" fill="none" stroke="#1a1311" stroke-linecap="round" stroke-linejoin="round" stroke-width="5" transform="translate(18.767 40.493)"/><path d="m85.652 230.064 147.981-183.917c2.42-3.009 1.86-9.961 1.86-9.961a44.891 44.891 0 0 0 -9.978-10.036c-1.616-1.159-5.7-4.8-10.044-7.634s-8.229-.133-12.376.492c-5.838.881-23.846 14.161-37.324 29.429s-32.917 39.528-39.137 48.885-19.434 30.908-22.549 37.311-4.221 19.577 6.868 5.787 59.1-87.18 62.983-84.717 10.627-6.9 10.627-6.9 14.4-14.037 17.884-21.919l-147.819 188.773a28.985 28.985 0 0 0 7.085 11.175c5.437 5.449 23.939 3.232 23.939 3.232" fill="#fff" transform="translate(33.276 9.122)"/><path d="m85.652 230.064 147.981-183.917c2.42-3.009 1.86-9.961 1.86-9.961a44.891 44.891 0 0 0 -9.978-10.036c-1.616-1.159-5.7-4.8-10.044-7.634s-8.229-.133-12.376.492c-5.838.881-23.846 14.161-37.324 29.429s-32.917 39.528-39.137 48.885-19.434 30.908-22.549 37.311-4.221 19.577 6.868 5.787 59.1-87.18 62.983-84.717 10.627-6.9 10.627-6.9 14.4-14.037 17.884-21.919l-147.819 188.773a28.985 28.985 0 0 0 7.085 11.175c5.437 5.449 23.939 3.232 23.939 3.232z" fill="none" stroke="#1a1311" stroke-linecap="round" stroke-linejoin="round" stroke-width="5" transform="translate(33.276 9.122)"/><path d="m153.174 23.792c.348-.112 9.655-11.452 11.145-12.683s3.823-3.325 3.823-3.325 9.978-8.5 16.717-3.94 9.2 10.467 4.8 17.977-15.542 20.329-15.542 20.329z" fill="#fff" transform="translate(93.304 1.323)"/><path d="m153.174 23.792c.348-.112 9.655-11.452 11.145-12.683s3.823-3.325 3.823-3.325 9.978-8.5 16.717-3.94 9.2 10.467 4.8 17.977-15.542 20.329-15.542 20.329z" fill="none" stroke="#1a1311" stroke-linecap="round" stroke-linejoin="round" stroke-width="5" transform="translate(93.304 1.323)"/><path d="m66.019 182.106s82.575-106.43 118.724-149.078" fill="none" stroke="#1a1311" stroke-linecap="round" stroke-linejoin="round" stroke-width="5" transform="translate(40.215 17.47)"/><path d="m60.934 148.522a47.1 47.1 0 0 0 7.18 8.42 75.24 75.24 0 0 0 7.762 5.561l-31.6 4.7z" fill="#fff" transform="translate(26.97 78.56)"/><path d="m60.934 148.522a47.1 47.1 0 0 0 7.18 8.42 75.24 75.24 0 0 0 7.762 5.561l-31.6 4.7z" fill="none" stroke="#1a1311" stroke-linecap="round" stroke-linejoin="round" stroke-width="5" transform="translate(26.97 78.56)"/><path d="m64.987 201.7s-.856.927-2.2 2.417c-2.285 2.541-5.98 6.723-9.246 10.758-5.185 6.4-5.054 8.865-10.368 15.146s-5.444 8.25-10.5 9.111-8.554-1.353-14.645-5.541-8.028-8.984-8.286-10.954 5.183-8.25 8.942-13.176 6.737-6.9 11.792-13.545 11.486-15.638 11.486-15.638 2.932 10.408 9.442 15.109a42.02 42.02 0 0 0 13.583 6.313" fill="#fff" transform="translate(5.929 95.357)"/><path d="m64.987 201.7s-.856.927-2.2 2.417c-2.285 2.541-5.98 6.723-9.246 10.758-5.185 6.4-5.054 8.865-10.368 15.146s-5.444 8.25-10.5 9.111-8.554-1.353-14.645-5.541-8.028-8.984-8.286-10.954 5.183-8.25 8.942-13.176 6.737-6.9 11.792-13.545 11.486-15.638 11.486-15.638 2.932 10.408 9.442 15.109a42.02 42.02 0 0 0 13.583 6.313" fill="none" stroke="#1a1311" stroke-linecap="round" stroke-linejoin="round" stroke-width="5" transform="translate(5.929 95.357)"/><path d="m34.631 223.146c-.195-.222-13.893 12.961-17.4 15.9-5.646 4.743-8.725 5.1-11.771 3.257-4.272-2.582-3.235-6.203-1.16-11.378s11.63-20.093 11.63-20.093 4.277 5.4 8.226 7.77a44.852 44.852 0 0 0 10.475 4.544" fill="#fff" transform="translate(1.523 111.518)"/><g fill="none" stroke="#1a1311" stroke-linecap="round" stroke-linejoin="round" stroke-width="5"><path d="m34.631 223.146c-.195-.222-13.893 12.961-17.4 15.9-5.646 4.743-8.725 5.1-11.771 3.257-4.272-2.582-3.235-6.203-1.16-11.378s11.63-20.093 11.63-20.093 4.277 5.4 8.226 7.77a44.852 44.852 0 0 0 10.475 4.544z" transform="translate(1.523 111.518)"/><path d="m93.471 146.205s-8.738 10.923-11.319 12.8l-2.583 1.884" transform="translate(48.469 77.334)"/><path d="m118.746 113.758c4.485 3.043 6.221 5.5 6.416 11.7.3 9.512-1.265 8.435 2.073 15.941 3.31 7.444 6.8 9.856 7.841 18.722s-1.659 12.935-1.659 12.935" transform="translate(72.333 60.172)"/><path d="m127.566 172.069c-.174.034 8.62-2.839 10.886-7.388 2.185-4.385 3.888-13.3 4.665-22.657s1.815-24.666 1.815-24.666" transform="translate(77.704 62.075)"/></g><path d="m107.737 129.16-33.391 40.626s6.889-2.387 21.447-1.971 19.284 3.939 36.783 2.842 23.312-1.179 28.876-7.351 2.665-8.778.037-15.317-1.664-7.322-8.3-8.622-6.1 3.6-18.606 1.767-26.85-11.975-26.85-11.975" fill="#fff" transform="translate(45.287 68.318)"/><path d="m107.737 129.16-33.391 40.626s6.889-2.387 21.447-1.971 19.284 3.939 36.783 2.842 23.312-1.179 28.876-7.351 2.665-8.778.037-15.317-1.664-7.322-8.3-8.622-6.1 3.6-18.606 1.767-26.846-11.974-26.846-11.974z" fill="none" stroke="#1a1311" stroke-linecap="round" stroke-linejoin="round" stroke-width="5" transform="translate(45.287 68.318)"/><path d="m78.047 156.972c5.811-.341 21.556-10.5 25.249-12.9s3.5-4.617 6.805-4.249l.917.1a1.9 1.9 0 0 1 1.69 2.053c-.1 1.526.684 4.02 4.818 7.447 7.349 6.1 6.96 4 10.652 8.928s4.118 5.937 4.118 5.937" fill="none" stroke="#1a1311" stroke-linecap="round" stroke-linejoin="round" stroke-width="5" transform="translate(47.541 73.937)"/><path d="m88.79 196.211c33.633-4.13 63.524 4.257 73.613 10.288 3.218 1.925 6.028 6.626 6.144 13.218.109 6.157-3.8 11.542-6.935 14.525a4.962 4.962 0 0 1 -3.592 1.35 12.494 12.494 0 0 1 -2.464-.268 74.8 74.8 0 0 1 -11.179-4.341c-7-3.139-21.188-8.311-25.27-9.788s-9.914-2.955-14.191-7.389-12.441-14.406-16.126-17.595" fill="#fff" transform="translate(54.085 103.202)"/><path d="m88.79 196.211c33.633-4.13 63.524 4.257 73.613 10.288 3.218 1.925 6.028 6.626 6.144 13.218.109 6.157-3.8 11.542-6.935 14.525a4.962 4.962 0 0 1 -3.592 1.35 12.494 12.494 0 0 1 -2.464-.268 74.8 74.8 0 0 1 -11.179-4.341c-7-3.139-21.188-8.311-25.27-9.788s-9.914-2.955-14.191-7.389-12.441-14.406-16.126-17.595" fill="none" stroke="#1a1311" stroke-linecap="round" stroke-linejoin="round" stroke-width="5" transform="translate(54.085 103.202)"/><path d="m44.071 194.292c1.517 6.279 3.849 9.357 5.016 13.79s2.333 14.161 3.5 19.7 2.98 9.359 4.147 10.221 4.406 1.477 4.406 1.477 12.571 1.592 18.532-4.376 7.386-16.065 7.516-22.468-1.826-14.8-1.826-14.8-9.51.229-19.73-.069-21.561-3.478-21.561-3.478" fill="#fff" transform="translate(26.845 102.77)"/><path d="m44.071 194.292c1.517 6.279 3.849 9.357 5.016 13.79s2.333 14.161 3.5 19.7 2.98 9.359 4.147 10.221 4.406 1.477 4.406 1.477 12.571 1.592 18.532-4.376 7.386-16.065 7.516-22.468-1.826-14.8-1.826-14.8-9.51.229-19.73-.069-21.561-3.475-21.561-3.475z" fill="none" stroke="#1a1311" stroke-linecap="round" stroke-linejoin="round" stroke-width="5" transform="translate(26.845 102.77)"/></g></g></svg>