<svg xmlns="http://www.w3.org/2000/svg" xmlns:xlink="http://www.w3.org/1999/xlink" width="1282" height="752.788" viewBox="0 0 1282 752.788">
  <defs>
    <clipPath id="clip-path">
      <rect id="長方形_142" data-name="長方形 142" width="504" height="359" fill="none"/>
    </clipPath>
    <clipPath id="clip-path-2">
      <rect id="長方形_120" data-name="長方形 120" width="490.235" height="358.681" fill="none"/>
    </clipPath>
  </defs>
  <g id="グループ_45" data-name="グループ 45" transform="translate(2)">
    <path id="パス_276" data-name="パス 276" d="M-2635.7,935.785h-.3" transform="translate(2772.762 -558.867)" fill="none" stroke="#333" stroke-linecap="round" stroke-width="6" stroke-dasharray="800 800"/>
    <g id="グループ_32" data-name="グループ 32">
      <path id="パス_277" data-name="パス 277" d="M113.241,0c61.178,0,81.1,8.555,99.432,38.427s-31.064,53.954-99.432,46.381S18.58,74.23,2.469,45.085,52.063,0,113.241,0Z" transform="matrix(0.998, -0.07, 0.07, 0.998, 593.376, 338.561)" fill="#8aa6d9" opacity="0.998"/>
      <path id="パス_278" data-name="パス 278" d="M-2636,935.785h229.1" transform="translate(3043.851 -558.867)" fill="none" stroke="#333" stroke-linecap="round" stroke-width="4" stroke-dasharray="800 800"/>
      <path id="パス_279" data-name="パス 279" d="M-2636,935.785h126.1" transform="translate(2804.666 -558.867)" fill="none" stroke="#333" stroke-linecap="round" stroke-width="4" stroke-dasharray="800 800"/>
      <path id="パス_280" data-name="パス 280" d="M-2636,935.785h96.227" transform="translate(2636 -558.867)" fill="none" stroke="#333" stroke-linecap="round" stroke-width="4" stroke-dasharray="800 800"/>
      <path id="パス_281" data-name="パス 281" d="M-2635.7,935.785h-.3" transform="translate(2981.641 -558.867)" fill="none" stroke="#333" stroke-linecap="round" stroke-width="6" stroke-dasharray="800 800"/>
      <path id="パス_282" data-name="パス 282" d="M-2635.7,935.785h-.3" transform="translate(2995.883 -558.867)" fill="none" stroke="#333" stroke-linecap="round" stroke-width="6" stroke-dasharray="800 800"/>
      <path id="パス_283" data-name="パス 283" d="M-2635.7,935.785h-.3" transform="translate(2758.762 -558.867)" fill="none" stroke="#333" stroke-linecap="round" stroke-width="6" stroke-dasharray="800 800"/>
      <path id="パス_284" data-name="パス 284" d="M0,0,647.32.5" transform="matrix(-0.819, 0.574, -0.574, -0.819, 712.41, 378.712)" fill="none" stroke="#333" stroke-linecap="round" stroke-width="4" stroke-dasharray="800 800"/>
      <g id="マスクグループ_15" data-name="マスクグループ 15" transform="translate(776)" clip-path="url(#clip-path)">
        <g id="グループ_31" data-name="グループ 31" transform="translate(20.765 -0.03)">
          <g id="グループ_30" data-name="グループ 30" clip-path="url(#clip-path-2)">
            <path id="パス_285" data-name="パス 285" d="M49.483,228.545c-2.51,1.971-11.492,15.15-17.713,18.6s-11.439,3.4-18.177,1.427S3.63,239.262,3.68,237.785c.04-1.19,0-5.541,8.779-15.638s7-14.037,12.183-22.9S30.6,187.915,38.38,178.064,50.437,159.448,57.3,149c6.8-10.343,11.179-21.057,18.954-27.46s62.253-28.152,79.878-34.556Z" transform="translate(2.241 46.012)" fill="#fff"/>
            <path id="パス_286" data-name="パス 286" d="M49.483,228.545c-2.51,1.971-11.492,15.15-17.713,18.6s-11.439,3.4-18.177,1.427S3.63,239.262,3.68,237.785c.04-1.19,0-5.541,8.779-15.638s7-14.037,12.183-22.9S30.6,187.915,38.38,178.064,50.437,159.448,57.3,149c6.8-10.343,11.179-21.057,18.954-27.46s62.253-28.152,79.878-34.556Z" transform="translate(2.241 46.012)" fill="none" stroke="#1a1311" stroke-linecap="round" stroke-linejoin="round" stroke-width="5"/>
            <path id="パス_287" data-name="パス 287" d="M59.913,120.358c16.579,17.841,5.695,21.057,3.88,24.381" transform="translate(36.495 63.663)" fill="none" stroke="#1a1311" stroke-linecap="round" stroke-linejoin="round" stroke-width="5"/>
            <path id="パス_288" data-name="パス 288" d="M44.275,173.663c3.11-2.463,14.067-19.5,16.659-20.982s7.56-9.216,12.384-16.377" transform="translate(26.97 72.098)" fill="none" stroke="#1a1311" stroke-linecap="round" stroke-linejoin="round" stroke-width="5"/>
            <path id="パス_289" data-name="パス 289" d="M463.7,310.747s-10.109-4.925-31.362-10.836-57.281-11.329-71.277-11.822-92.012-.246-120.523-6.649c-14.215-3.192-43.286-12.806-57.021-16.993s-21.514-5.417-32.141-5.911-17.364.246-23.067.246-17.107,1.232-24.647.986-32.892,3.2-55.184-4.335-19.438-25.957-13.217-38.025S56,205.1,61.7,202.88s9.85-.492,19.958-1.971,23.844-2.709,33.435-3.816,22.81,1.847,33.177,1.847,12.778.29,23.476-2.422c14.613-3.706,13.806-1.324,16.225-5.386s-.233-20.957-6.007-23.5c-6.409-2.819-15.292,4.706-28.252,0-11.184-4.062-11.977-3.544-19.493-10.44l63.847-80.531c15.551-2.463,53.269,36.887,56.5,39.4,24.85,19.333,71.228,44.32,75.683,46.3A254.71,254.71,0,0,0,388.8,179.976c19.237,3.107,78.648,8.5,78.648,8.5" transform="translate(18.767 40.493)" fill="#fff"/>
            <path id="パス_290" data-name="パス 290" d="M463.7,310.747s-10.109-4.925-31.362-10.836-57.281-11.329-71.277-11.822-92.012-.246-120.523-6.649c-14.215-3.192-43.286-12.806-57.021-16.993s-21.514-5.417-32.141-5.911-17.364.246-23.067.246-17.107,1.232-24.647.986-32.892,3.2-55.184-4.335-19.438-25.957-13.217-38.025S56,205.1,61.7,202.88s9.85-.492,19.958-1.971,23.844-2.709,33.435-3.816,22.81,1.847,33.177,1.847,12.778.29,23.476-2.422c14.613-3.706,13.806-1.324,16.225-5.386s-.233-20.957-6.007-23.5c-6.409-2.819-15.292,4.706-28.252,0-11.184-4.062-11.977-3.544-19.493-10.44l63.847-80.531c15.551-2.463,53.269,36.887,56.5,39.4,24.85,19.333,71.228,44.32,75.683,46.3A254.71,254.71,0,0,0,388.8,179.976c19.237,3.107,78.648,8.5,78.648,8.5" transform="translate(18.767 40.493)" fill="none" stroke="#1a1311" stroke-linecap="round" stroke-linejoin="round" stroke-width="5"/>
            <path id="パス_291" data-name="パス 291" d="M85.652,230.064,233.633,46.147c2.42-3.009,1.86-9.961,1.86-9.961a44.891,44.891,0,0,0-9.978-10.036c-1.616-1.159-5.7-4.8-10.044-7.634s-8.229-.133-12.376.492c-5.838.881-23.846,14.161-37.324,29.429s-32.917,39.528-39.137,48.885S107.2,128.23,104.085,134.633s-4.221,19.577,6.868,5.787,59.1-87.18,62.983-84.717,10.627-6.9,10.627-6.9,14.4-14.037,17.884-21.919L54.628,215.657a28.985,28.985,0,0,0,7.085,11.175c5.437,5.449,23.939,3.232,23.939,3.232" transform="translate(33.276 9.122)" fill="#fff"/>
            <path id="パス_292" data-name="パス 292" d="M85.652,230.064,233.633,46.147c2.42-3.009,1.86-9.961,1.86-9.961a44.891,44.891,0,0,0-9.978-10.036c-1.616-1.159-5.7-4.8-10.044-7.634s-8.229-.133-12.376.492c-5.838.881-23.846,14.161-37.324,29.429s-32.917,39.528-39.137,48.885S107.2,128.23,104.085,134.633s-4.221,19.577,6.868,5.787,59.1-87.18,62.983-84.717,10.627-6.9,10.627-6.9,14.4-14.037,17.884-21.919L54.628,215.657a28.985,28.985,0,0,0,7.085,11.175C67.15,232.281,85.652,230.064,85.652,230.064Z" transform="translate(33.276 9.122)" fill="none" stroke="#1a1311" stroke-linecap="round" stroke-linejoin="round" stroke-width="5"/>
            <path id="パス_293" data-name="パス 293" d="M153.174,23.792c.348-.112,9.655-11.452,11.145-12.683s3.823-3.325,3.823-3.325,9.978-8.5,16.717-3.94,9.2,10.467,4.8,17.977S174.117,42.15,174.117,42.15Z" transform="translate(93.304 1.323)" fill="#fff"/>
            <path id="パス_294" data-name="パス 294" d="M153.174,23.792c.348-.112,9.655-11.452,11.145-12.683s3.823-3.325,3.823-3.325,9.978-8.5,16.717-3.94,9.2,10.467,4.8,17.977S174.117,42.15,174.117,42.15Z" transform="translate(93.304 1.323)" fill="none" stroke="#1a1311" stroke-linecap="round" stroke-linejoin="round" stroke-width="5"/>
            <path id="パス_295" data-name="パス 295" d="M66.019,182.106S148.594,75.676,184.743,33.028" transform="translate(40.215 17.47)" fill="none" stroke="#1a1311" stroke-linecap="round" stroke-linejoin="round" stroke-width="5"/>
            <path id="パス_296" data-name="パス 296" d="M60.934,148.522a47.1,47.1,0,0,0,7.18,8.42,75.24,75.24,0,0,0,7.762,5.561l-31.6,4.7Z" transform="translate(26.97 78.56)" fill="#fff"/>
            <path id="パス_297" data-name="パス 297" d="M60.934,148.522a47.1,47.1,0,0,0,7.18,8.42,75.24,75.24,0,0,0,7.762,5.561l-31.6,4.7Z" transform="translate(26.97 78.56)" fill="none" stroke="#1a1311" stroke-linecap="round" stroke-linejoin="round" stroke-width="5"/>
            <path id="パス_298" data-name="パス 298" d="M64.987,201.7s-.856.927-2.2,2.417c-2.285,2.541-5.98,6.723-9.246,10.758-5.185,6.4-5.054,8.865-10.368,15.146s-5.444,8.25-10.5,9.111-8.554-1.353-14.645-5.541S10,224.607,9.742,222.637s5.183-8.25,8.942-13.176,6.737-6.9,11.792-13.545,11.486-15.638,11.486-15.638,2.932,10.408,9.442,15.109A42.02,42.02,0,0,0,64.987,201.7" transform="translate(5.929 95.357)" fill="#fff"/>
            <path id="パス_299" data-name="パス 299" d="M64.987,201.7s-.856.927-2.2,2.417c-2.285,2.541-5.98,6.723-9.246,10.758-5.185,6.4-5.054,8.865-10.368,15.146s-5.444,8.25-10.5,9.111-8.554-1.353-14.645-5.541S10,224.607,9.742,222.637s5.183-8.25,8.942-13.176,6.737-6.9,11.792-13.545,11.486-15.638,11.486-15.638,2.932,10.408,9.442,15.109A42.02,42.02,0,0,0,64.987,201.7" transform="translate(5.929 95.357)" fill="none" stroke="#1a1311" stroke-linecap="round" stroke-linejoin="round" stroke-width="5"/>
            <path id="パス_300" data-name="パス 300" d="M34.631,223.146c-.195-.222-13.893,12.961-17.4,15.9-5.646,4.743-8.725,5.1-11.771,3.257C1.188,239.721,2.225,236.1,4.3,230.925S15.93,210.832,15.93,210.832s4.277,5.4,8.226,7.77a44.852,44.852,0,0,0,10.475,4.544" transform="translate(1.523 111.518)" fill="#fff"/>
            <path id="パス_301" data-name="パス 301" d="M34.631,223.146c-.195-.222-13.893,12.961-17.4,15.9-5.646,4.743-8.725,5.1-11.771,3.257C1.188,239.721,2.225,236.1,4.3,230.925S15.93,210.832,15.93,210.832s4.277,5.4,8.226,7.77A44.852,44.852,0,0,0,34.631,223.146Z" transform="translate(1.523 111.518)" fill="none" stroke="#1a1311" stroke-linecap="round" stroke-linejoin="round" stroke-width="5"/>
            <path id="パス_302" data-name="パス 302" d="M93.471,146.205s-8.738,10.923-11.319,12.8l-2.583,1.884" transform="translate(48.469 77.334)" fill="none" stroke="#1a1311" stroke-linecap="round" stroke-linejoin="round" stroke-width="5"/>
            <path id="パス_303" data-name="パス 303" d="M118.746,113.758c4.485,3.043,6.221,5.5,6.416,11.7.3,9.512-1.265,8.435,2.073,15.941,3.31,7.444,6.8,9.856,7.841,18.722s-1.659,12.935-1.659,12.935" transform="translate(72.333 60.172)" fill="none" stroke="#1a1311" stroke-linecap="round" stroke-linejoin="round" stroke-width="5"/>
            <path id="パス_304" data-name="パス 304" d="M127.566,172.069c-.174.034,8.62-2.839,10.886-7.388,2.185-4.385,3.888-13.3,4.665-22.657s1.815-24.666,1.815-24.666" transform="translate(77.704 62.075)" fill="none" stroke="#1a1311" stroke-linecap="round" stroke-linejoin="round" stroke-width="5"/>
            <path id="パス_305" data-name="パス 305" d="M107.737,129.16,74.346,169.786s6.889-2.387,21.447-1.971,19.284,3.939,36.783,2.842,23.312-1.179,28.876-7.351,2.665-8.778.037-15.317-1.664-7.322-8.3-8.622-6.1,3.6-18.606,1.767-26.85-11.975-26.85-11.975" transform="translate(45.287 68.318)" fill="#fff"/>
            <path id="パス_306" data-name="パス 306" d="M107.737,129.16,74.346,169.786s6.889-2.387,21.447-1.971,19.284,3.939,36.783,2.842,23.312-1.179,28.876-7.351,2.665-8.778.037-15.317-1.664-7.322-8.3-8.622-6.1,3.6-18.606,1.767S107.737,129.16,107.737,129.16Z" transform="translate(45.287 68.318)" fill="none" stroke="#1a1311" stroke-linecap="round" stroke-linejoin="round" stroke-width="5"/>
            <path id="パス_307" data-name="パス 307" d="M78.047,156.972c5.811-.341,21.556-10.5,25.249-12.9s3.5-4.617,6.805-4.249l.917.1a1.9,1.9,0,0,1,1.69,2.053c-.1,1.526.684,4.02,4.818,7.447,7.349,6.1,6.96,4,10.652,8.928s4.118,5.937,4.118,5.937" transform="translate(47.541 73.937)" fill="none" stroke="#1a1311" stroke-linecap="round" stroke-linejoin="round" stroke-width="5"/>
            <path id="パス_308" data-name="パス 308" d="M88.79,196.211c33.633-4.13,63.524,4.257,73.613,10.288,3.218,1.925,6.028,6.626,6.144,13.218.109,6.157-3.8,11.542-6.935,14.525a4.962,4.962,0,0,1-3.592,1.35,12.494,12.494,0,0,1-2.464-.268,74.8,74.8,0,0,1-11.179-4.341c-7-3.139-21.188-8.311-25.27-9.788s-9.914-2.955-14.191-7.389S92.475,199.4,88.79,196.211" transform="translate(54.085 103.202)" fill="#fff"/>
            <path id="パス_309" data-name="パス 309" d="M88.79,196.211c33.633-4.13,63.524,4.257,73.613,10.288,3.218,1.925,6.028,6.626,6.144,13.218.109,6.157-3.8,11.542-6.935,14.525a4.962,4.962,0,0,1-3.592,1.35,12.494,12.494,0,0,1-2.464-.268,74.8,74.8,0,0,1-11.179-4.341c-7-3.139-21.188-8.311-25.27-9.788s-9.914-2.955-14.191-7.389S92.475,199.4,88.79,196.211" transform="translate(54.085 103.202)" fill="none" stroke="#1a1311" stroke-linecap="round" stroke-linejoin="round" stroke-width="5"/>
            <path id="パス_310" data-name="パス 310" d="M44.071,194.292c1.517,6.279,3.849,9.357,5.016,13.79s2.333,14.161,3.5,19.7,2.98,9.359,4.147,10.221,4.406,1.477,4.406,1.477,12.571,1.592,18.532-4.376,7.386-16.065,7.516-22.468-1.826-14.8-1.826-14.8-9.51.229-19.73-.069-21.561-3.478-21.561-3.478" transform="translate(26.845 102.77)" fill="#fff"/>
            <path id="パス_311" data-name="パス 311" d="M44.071,194.292c1.517,6.279,3.849,9.357,5.016,13.79s2.333,14.161,3.5,19.7,2.98,9.359,4.147,10.221,4.406,1.477,4.406,1.477,12.571,1.592,18.532-4.376,7.386-16.065,7.516-22.468-1.826-14.8-1.826-14.8-9.51.229-19.73-.069S44.071,194.292,44.071,194.292Z" transform="translate(26.845 102.77)" fill="none" stroke="#1a1311" stroke-linecap="round" stroke-linejoin="round" stroke-width="5"/>
          </g>
        </g>
      </g>
    </g>
  </g>
</svg>
