<svg height="280" viewBox="0 0 508 280" width="508" xmlns="http://www.w3.org/2000/svg" xmlns:xlink="http://www.w3.org/1999/xlink"><clipPath id="a"><path d="m80 2830h508v280h-508z"/></clipPath><clipPath id="b"><path d="m0 0h328v280h-328z"/></clipPath><g clip-path="url(#a)" transform="translate(-80 -2830)"><g clip-path="url(#b)" transform="translate(218 2830)"><path d="m16.8 65.493s42.734 80.371 44.957 83.833 73.118-21.267 77.07-22.5-46.685-79.137-48.414-80.869a17.406 17.406 0 0 1 -2.471-2.968s-64.224 20.278-71.142 22.504" fill="#fff" transform="translate(8.965 23.012)"/><path d="m16.8 65.493s42.734 80.371 44.957 83.833 73.118-21.267 77.07-22.5-46.685-79.137-48.414-80.869a17.406 17.406 0 0 1 -2.471-2.968s-64.224 20.278-71.142 22.504z" fill="none" stroke="#1a1311" stroke-linecap="round" stroke-linejoin="round" stroke-width="2" transform="translate(8.965 23.012)"/><path d="m199.6 1.882a27.2 27.2 0 0 0 -22.281 31.343c1.258 7.471 4.179 12.758 9.919 16.791l-.5 7.2 5.936-3.864c5.021 2.572 9.959 3.19 15.949 2.18a27.2 27.2 0 0 0 -9.023-53.65" fill="#fff" transform="translate(94.408 .803)"/><path d="m199.6 1.882a27.2 27.2 0 0 0 -22.281 31.343c1.258 7.471 4.179 12.758 9.919 16.791l-.5 7.2 5.936-3.864c5.021 2.572 9.959 3.19 15.949 2.18a27.2 27.2 0 0 0 -9.023-53.65z" fill="none" stroke="#1a1311" stroke-linecap="round" stroke-linejoin="round" stroke-width="3" transform="translate(94.408 .803)"/><path d="m190.23 30.334a1.865 1.865 0 0 1 -1.35-.568 1.892 1.892 0 0 1 0-2.7 1.972 1.972 0 0 1 2.714 0 1.919 1.919 0 0 1 -1.365 3.27" fill="#1a1311" transform="translate(100.478 14.197)"/><path d="m11.994 0-11.994 20.12" fill="#fff" transform="translate(294.952 15.379)"/><path d="m193 32.725a1.919 1.919 0 0 1 -1.644-2.9l11.989-20.125a1.917 1.917 0 1 1 3.291 1.967l-11.994 20.123a1.918 1.918 0 0 1 -1.647.935" fill="#1a1311" transform="translate(101.955 4.693)"/><path d="m128.887 66.452c0 5.935-2.593 13.725-5.188 23s-5.187 14.1-4.075 21.514 7.039 14.467 14.08 18.548 8.893 2.6 13.71 6.677 5.826 6.551 5.826 6.551 4.549-.617 9.735-1.729 15.192-1.113 15.192-1.113-1.853-1.113 0-6.307 6.67-9.643 6.67-9.643-9.677-2.047-15.661-5.317c-3.806-2.082-13.239-8.78-13.239-8.78a36.271 36.271 0 0 1 .278-5.687c.37-1.855.741-6.09.741-6.09s6.051-5.733 6.762-9c.742-3.4-1.018-9.459-4.909-9.181s-8.151 3.617-8.151 3.617a5.657 5.657 0 0 1 -3.984.186c-2.5-.649-7.459-3.827-11.023-7.6a63.875 63.875 0 0 1 -6.762-9.645" fill="#fff" transform="translate(63.687 35.571)"/><path d="m128.887 66.452c0 5.935-2.593 13.725-5.188 23s-5.187 14.1-4.075 21.514 7.039 14.467 14.08 18.548 8.893 2.6 13.71 6.677 5.826 6.551 5.826 6.551 4.549-.617 9.735-1.729 15.192-1.113 15.192-1.113-1.853-1.113 0-6.307 6.67-9.643 6.67-9.643-9.677-2.047-15.661-5.317c-3.806-2.082-13.239-8.78-13.239-8.78a36.271 36.271 0 0 1 .278-5.687c.37-1.855.741-6.09.741-6.09s6.051-5.733 6.762-9c.742-3.4-1.018-9.459-4.909-9.181s-8.151 3.617-8.151 3.617a5.657 5.657 0 0 1 -3.984.186c-2.5-.649-7.459-3.827-11.023-7.6a63.875 63.875 0 0 1 -6.764-9.646z" fill="none" stroke="#1a1311" stroke-linecap="round" stroke-linejoin="round" stroke-width="3" transform="translate(63.687 35.571)"/><path d="m146.047 86.6c-.833 1.105-5.188 2.851-6.677 2.965" fill="#fff" transform="translate(74.364 46.355)"/><path d="m146.047 86.6c-.833 1.105-5.188 2.851-6.677 2.965" fill="none" stroke="#1a1311" stroke-linecap="round" stroke-linejoin="round" stroke-width="2" transform="translate(74.364 46.355)"/><path d="m140.189 81.461a17.5 17.5 0 0 1 4.354-1.391 5.371 5.371 0 0 1 2.593 0" fill="#fff" transform="translate(74.801 42.795)"/><path d="m140.189 81.461a17.5 17.5 0 0 1 4.354-1.391 5.371 5.371 0 0 1 2.593 0" fill="none" stroke="#1a1311" stroke-linecap="round" stroke-linejoin="round" stroke-width="2" transform="translate(74.801 42.795)"/><path d="m140.707 86.77a9.017 9.017 0 0 0 1.984-1.756 21.916 21.916 0 0 0 2.13-4.081" fill="#fff" transform="translate(75.077 43.323)"/><path d="m140.707 86.77a9.017 9.017 0 0 0 1.984-1.756 21.916 21.916 0 0 0 2.13-4.081" fill="none" stroke="#1a1311" stroke-linecap="round" stroke-linejoin="round" stroke-width="2" transform="translate(75.077 43.323)"/><path d="m134.205 134.935c-.494-6.183-2.964-10.881 0-12.612a71.357 71.357 0 0 1 11.879-5.071 94.67 94.67 0 0 1 14.86-2.874c4.168-.378 15.006-.643 21.182.683s6.916 2.564 7.659 5.532 1.481 8.9 1.481 8.9-13.586-3.709-25.2-2.719-19.25 2.035-24.066 3.826a36.449 36.449 0 0 0 -7.8 4.334" fill="#fff" transform="translate(70.843 61.06)"/><path d="m134.205 134.935c-.494-6.183-2.964-10.881 0-12.612a71.357 71.357 0 0 1 11.879-5.071 94.67 94.67 0 0 1 14.86-2.874c4.168-.378 15.006-.643 21.182.683s6.916 2.564 7.659 5.532 1.481 8.9 1.481 8.9-13.586-3.709-25.2-2.719-19.25 2.035-24.066 3.826a36.449 36.449 0 0 0 -7.795 4.335z" fill="none" stroke="#1a1311" stroke-linecap="round" stroke-linejoin="round" stroke-width="3" transform="translate(70.843 61.06)"/><path d="m114.687 212.085s4.711-31.5 12.123-46.338 11.253-31.889 17.044-35.364 10.629-6.7 24.7-7.483 27.425-.183 32.366 2.043 5.433.989 10.375 13.848 16.581 72.882 16.581 72.882" fill="#fff" transform="translate(61.194 65.613)"/><path d="m114.687 212.085s4.711-31.5 12.123-46.338 11.253-31.889 17.044-35.364 10.629-6.7 24.7-7.483 27.425-.183 32.366 2.043 5.433.989 10.375 13.848 16.581 72.882 16.581 72.882" fill="none" stroke="#1a1311" stroke-linecap="round" stroke-linejoin="round" stroke-width="3" transform="translate(61.194 65.613)"/><path d="m128.3 79.7-1.341 9.1s-7.183-.19-6.443-10.082a37.034 37.034 0 0 1 25.937-32.4c19.021-6.183 31.334-5.447 42.239-1.979 41.983 13.354 34.173 67.286 22.726 79.629-5.823 6.281-10.868 10.016-19.019 11.624l-6.637 1.308a7.134 7.134 0 0 1 -3.115-.081 71.331 71.331 0 0 1 -14.061-4.936 97.8 97.8 0 0 1 -13.239-8.78l1.018-11.777a14.63 14.63 0 0 0 6.37-7.953c1.422-4.265-.209-9.012-3.153-10.038-2.754-.958-11.77 3.863-11.77 3.863s-12.29-3.955-15.685-11.521a31.72 31.72 0 0 0 -3.827-5.977" fill="#fff" transform="translate(64.276 22.319)"/><path d="m128.3 79.7-1.341 9.1s-7.183-.19-6.443-10.082a37.034 37.034 0 0 1 25.937-32.4c19.021-6.183 31.334-5.447 42.239-1.979 41.983 13.354 34.173 67.286 22.726 79.629-5.823 6.281-10.868 10.016-19.019 11.624l-6.637 1.308a7.134 7.134 0 0 1 -3.115-.081 71.331 71.331 0 0 1 -14.061-4.936 97.8 97.8 0 0 1 -13.239-8.78l1.018-11.777a14.63 14.63 0 0 0 6.37-7.953c1.422-4.265-.209-9.012-3.153-10.038-2.754-.958-11.77 3.863-11.77 3.863s-12.29-3.955-15.685-11.521a31.72 31.72 0 0 0 -3.827-5.977z" fill="none" stroke="#1a1311" stroke-linecap="round" stroke-linejoin="round" stroke-width="3" transform="translate(64.276 22.319)"/><path d="m53.772 38.81s.828 11.674 4.428 13.38c1.993.944 10.2-1.19 10.2-1.19l14.15 21.812a12.5 12.5 0 0 0 4.693-7.79c.989-5.317 1.606-9.026-1.481-13.354s-15.934-21.39-15.934-21.39" fill="#fff" transform="translate(28.691 16.208)"/><path d="m53.772 38.81s.828 11.674 4.428 13.38c1.993.944 10.2-1.19 10.2-1.19l14.15 21.812a12.5 12.5 0 0 0 4.693-7.79c.989-5.317 1.606-9.026-1.481-13.354s-15.934-21.39-15.934-21.39" fill="none" stroke="#1a1311" stroke-linecap="round" stroke-linejoin="round" stroke-width="3" transform="translate(28.691 16.208)"/><path d="m64 43.647s-3.829 8.656 1.235 9.52 6.315-8.779 6.315-8.779" fill="#fff" transform="translate(33.408 23.364)"/><path d="m64 43.647s-3.829 8.656 1.235 9.52 6.315-8.779 6.315-8.779" fill="none" stroke="#1a1311" stroke-linecap="round" stroke-linejoin="round" stroke-width="3" transform="translate(33.408 23.364)"/><path d="m14.752 46.24c.616 2.6 4.656 9.909 7.5 12.876s8.4 6.677 10.25 8.284 3.334 4.7 2.471 6.183-5.188.742-5.188.742l6.735 13.46s-3.147 3.232-11.056 1.007-12.353-5.441-15.319-11.992-6.915-21.023-8.645-28.194" fill="#fff" transform="translate(.8 24.752)"/><path d="m14.752 46.24c.616 2.6 4.656 9.909 7.5 12.876s8.4 6.677 10.25 8.284 3.334 4.7 2.471 6.183-5.188.742-5.188.742l6.735 13.46s-3.147 3.232-11.056 1.007-12.353-5.441-15.319-11.992-6.915-21.023-8.645-28.194" fill="none" stroke="#1a1311" stroke-linecap="round" stroke-linejoin="round" stroke-width="3" transform="translate(.8 24.752)"/><path d="m54.38 63.43c0 2.9-2.727 5.258-6.088 5.258s-6.092-2.353-6.092-5.258 2.727-5.258 6.09-5.258 6.088 2.354 6.088 5.258" fill="#fff" transform="translate(22.518 31.139)"/><path d="m54.38 63.43c0 2.9-2.727 5.258-6.088 5.258s-6.092-2.353-6.092-5.258 2.727-5.258 6.09-5.258 6.09 2.354 6.09 5.258z" fill="none" stroke="#1a1311" stroke-linecap="round" stroke-linejoin="round" stroke-width=".5" transform="translate(22.518 31.139)"/><path d="m63.829 60.554c0 2.9-2.727 5.258-6.088 5.258s-6.09-2.354-6.09-5.258 2.727-5.258 6.09-5.258 6.088 2.354 6.088 5.258" fill="#fff" transform="translate(27.559 29.599)"/><path d="m63.829 60.554c0 2.9-2.727 5.258-6.088 5.258s-6.09-2.354-6.09-5.258 2.727-5.258 6.09-5.258 6.088 2.354 6.088 5.258z" fill="none" stroke="#1a1311" stroke-linecap="round" stroke-linejoin="round" stroke-width=".5" transform="translate(27.559 29.599)"/><path d="m73.278 57.832c0 2.9-2.727 5.258-6.088 5.258s-6.09-2.354-6.09-5.258 2.727-5.258 6.09-5.258 6.088 2.354 6.088 5.258" fill="#fff" transform="translate(32.601 28.142)"/><path d="m73.278 57.832c0 2.9-2.727 5.258-6.088 5.258s-6.09-2.354-6.09-5.258 2.727-5.258 6.09-5.258 6.088 2.354 6.088 5.258z" fill="none" stroke="#1a1311" stroke-linecap="round" stroke-linejoin="round" stroke-width=".5" transform="translate(32.601 28.142)"/><path d="m63.075 68.216c0 2.9-2.727 5.258-6.088 5.258s-6.09-2.354-6.09-5.258 2.727-5.258 6.09-5.258 6.088 2.354 6.088 5.258" fill="#fff" transform="translate(27.157 33.701)"/><path d="m63.075 68.216c0 2.9-2.727 5.258-6.088 5.258s-6.09-2.354-6.09-5.258 2.727-5.258 6.09-5.258 6.088 2.354 6.088 5.258z" fill="none" stroke="#1a1311" stroke-linecap="round" stroke-linejoin="round" stroke-width=".5" transform="translate(27.157 33.701)"/><path d="m72.524 65.494c0 2.9-2.727 5.258-6.088 5.258s-6.09-2.354-6.09-5.258 2.727-5.258 6.09-5.258 6.088 2.354 6.088 5.258" fill="#fff" transform="translate(32.199 32.244)"/><path d="m72.524 65.494c0 2.9-2.727 5.258-6.088 5.258s-6.09-2.354-6.09-5.258 2.727-5.258 6.09-5.258 6.088 2.354 6.088 5.258z" fill="none" stroke="#1a1311" stroke-linecap="round" stroke-linejoin="round" stroke-width=".5" transform="translate(32.199 32.244)"/><path d="m0 0 19.762 6.745" fill="#fff" transform="translate(43.799 85.383)"/><path d="m0 0 19.762 6.745" fill="none" stroke="#1a1311" stroke-linecap="round" stroke-linejoin="round" stroke-width=".5" transform="translate(43.799 85.383)"/><path d="m60.654 69.043s23.9 10.351 27.851 12.008a72.912 72.912 0 0 0 9.14 2.919" fill="#fff" transform="translate(32.363 36.958)"/><path d="m60.654 69.043s23.9 10.351 27.851 12.008a72.912 72.912 0 0 0 9.14 2.919" fill="none" stroke="#1a1311" stroke-linecap="round" stroke-linejoin="round" stroke-width=".5" transform="translate(32.363 36.958)"/><path d="m95.46 90.71c-1.51 6.29-15.86 8.22-32.05 4.318s-28.089-12.159-26.578-18.445 15.862-8.22 32.05-4.319 28.089 12.16 26.578 18.446" fill="#fff" transform="translate(19.583 37.604)"/><path d="m95.46 90.71c-1.51 6.29-15.86 8.22-32.05 4.318s-28.089-12.159-26.578-18.445 15.862-8.22 32.05-4.319 28.089 12.16 26.578 18.446z" fill="none" stroke="#1a1311" stroke-linecap="round" stroke-linejoin="round" stroke-width=".5" transform="translate(19.583 37.604)"/><path d="m0 5.945 20.903-5.945" fill="#fff" transform="translate(65.096 138.464)"/><path d="m0 5.945 20.903-5.945" fill="none" stroke="#1a1311" stroke-linecap="round" stroke-linejoin="round" stroke-width=".5" transform="translate(65.096 138.464)"/><path d="m0 5.945 20.903-5.945" fill="#fff" transform="translate(68.364 141.51)"/><path d="m0 5.945 20.903-5.945" fill="none" stroke="#1a1311" stroke-linecap="round" stroke-linejoin="round" stroke-width=".5" transform="translate(68.364 141.51)"/><path d="m0 5.945 20.903-5.945" fill="#fff" transform="translate(71.631 144.556)"/><path d="m0 5.945 20.903-5.945" fill="none" stroke="#1a1311" stroke-linecap="round" stroke-linejoin="round" stroke-width=".5" transform="translate(71.631 144.556)"/><path d="m0 5.945 20.903-5.945" fill="#fff" transform="translate(74.899 147.602)"/><path d="m0 5.945 20.903-5.945" fill="none" stroke="#1a1311" stroke-linecap="round" stroke-linejoin="round" stroke-width=".5" transform="translate(74.899 147.602)"/><path d="m0 5.945 20.903-5.945" fill="#fff" transform="translate(78.167 150.648)"/><path d="m0 5.945 20.903-5.945" fill="none" stroke="#1a1311" stroke-linecap="round" stroke-linejoin="round" stroke-width=".5" transform="translate(78.167 150.648)"/><path d="m0 5.945 20.903-5.945" fill="#fff" transform="translate(81.435 153.694)"/><path d="m0 5.945 20.903-5.945" fill="none" stroke="#1a1311" stroke-linecap="round" stroke-linejoin="round" stroke-width=".5" transform="translate(81.435 153.694)"/></g></g></svg>