<svg xmlns="http://www.w3.org/2000/svg" xmlns:xlink="http://www.w3.org/1999/xlink" width="508" height="300" viewBox="0 0 508 300">
  <defs>
    <clipPath id="clip-path">
      <rect id="長方形_130" data-name="長方形 130" width="508" height="300" transform="translate(852 2433)" fill="none"/>
    </clipPath>
    <clipPath id="clip-path-2">
      <rect id="長方形_109" data-name="長方形 109" width="335" height="300" fill="none"/>
    </clipPath>
  </defs>
  <g id="マスクグループ_11" data-name="マスクグループ 11" transform="translate(-852 -2433)" clip-path="url(#clip-path)">
    <g id="グループ_14" data-name="グループ 14" transform="translate(920 2433)">
      <g id="グループ_13" data-name="グループ 13" clip-path="url(#clip-path-2)">
        <path id="パス_85" data-name="パス 85" d="M123.721,276.464s8.5-39.064,14.058-45.353,10.9-5.373,19.726-7.718,8.6.676,20.9-2.841,44.323-18.237,51.278-23.832,14.839-11.192,25.5-22.607,37.333-26.587,38.714-31.935-.459-13.378-9.9-11.975c-10.913,1.622-13.433,4.43-9.632,2.5,17.411-8.862,25.8-13.11,34.162-18.734,8.926-6,2.54-22.925-11.836-16.1-5.907,2.8,1.791-1.6,4.516-5.03s1.65-14.535-9.435-13.537a57.178,57.178,0,0,0-15.235,3.356,5.224,5.224,0,0,1-4.22-.2c-4.119-2.051-8.043-7.4-25.126-2.868-13.686,3.629-18.518,7.464-37.609,14.073s-29.641,7.493-54.144,16.166-7.43-.483,2.186-8.139,2.63-2.14,13.477-13.461c10.223-10.669-.715-21.113-9.132-15.47S132.294,90.9,122.283,101.373s-22.812,28.574-32.81,44.263-7.555,28.939-10.733,43-10.7,57.865-10.7,57.865a267.277,267.277,0,0,0-.371,29.958" transform="translate(-64.793 20.948)" fill="#fff"/>
        <path id="パス_86" data-name="パス 86" d="M123.721,276.464s8.5-39.064,14.058-45.353,10.9-5.373,19.726-7.718,8.6.676,20.9-2.841,44.323-18.237,51.278-23.832,14.839-11.192,25.5-22.607,37.333-26.587,38.714-31.935-.459-13.378-9.9-11.975c-10.913,1.622-13.433,4.43-9.632,2.5,17.411-8.862,25.8-13.11,34.162-18.734,8.926-6,2.54-22.925-11.836-16.1-5.907,2.8,1.791-1.6,4.516-5.03s1.65-14.535-9.435-13.537a57.178,57.178,0,0,0-15.235,3.356,5.224,5.224,0,0,1-4.22-.2c-4.119-2.051-8.043-7.4-25.126-2.868-13.686,3.629-18.518,7.464-37.609,14.073s-29.641,7.493-54.144,16.166-7.43-.483,2.186-8.139,2.63-2.14,13.477-13.461c10.223-10.669-.715-21.113-9.132-15.47S132.294,90.9,122.283,101.373s-22.812,28.574-32.81,44.263-7.555,28.939-10.733,43-10.7,57.865-10.7,57.865a267.277,267.277,0,0,0-.371,29.958" transform="translate(-64.793 20.948)" fill="none" stroke="#1a1311" stroke-linecap="round" stroke-linejoin="round" stroke-width="4"/>
        <path id="パス_87" data-name="パス 87" d="M198.5,137.581c3.965-9.942,4.5-9.251,6.167-15.76,1.731-6.767,1.41-15.1,1.374-18.136" transform="translate(-127.884 30.517)" fill="none" stroke="#1a1311" stroke-linecap="round" stroke-linejoin="round" stroke-width="4"/>
        <path id="パス_88" data-name="パス 88" d="M182.6,83.928c-9.75,1.3-60.891,25.894-66.456,29.859s-12.293,6.967-14.147,8.966" transform="translate(20.438 24.702)" fill="none" stroke="#1a1311" stroke-linecap="round" stroke-linejoin="round" stroke-width="2"/>
        <path id="パス_89" data-name="パス 89" d="M164.882,95.205c-17.421,8.6-35.734,16.087-46.583,21.253C106.417,122.115,90.41,131.3,86.9,133.643" transform="translate(57.686 28.021)" fill="none" stroke="#1a1311" stroke-linecap="round" stroke-linejoin="round" stroke-width="2"/>
        <path id="パス_90" data-name="パス 90" d="M154.855,112.4c4.72,1.974,11.879,11.314,14.02,17.158a76.143,76.143,0,0,1,2.921,9.581" transform="translate(-37.137 33.082)" fill="none" stroke="#1a1311" stroke-linecap="round" stroke-linejoin="round" stroke-width="2"/>
        <path id="パス_91" data-name="パス 91" d="M212.294,137.991c-3.729,16.514-11.3,23.519-13.8,28.273" transform="translate(-134.094 40.614)" fill="none" stroke="#1a1311" stroke-linecap="round" stroke-linejoin="round" stroke-width="2"/>
        <path id="パス_92" data-name="パス 92" d="M204.317,152.683c-18.006,4.754-29.761,11.01-34.012,15.512" transform="translate(-89.646 44.938)" fill="none" stroke="#1a1311" stroke-linecap="round" stroke-linejoin="round" stroke-width="2"/>
        <path id="パス_93" data-name="パス 93" d="M152.328,122.008c-11.888,5.813-21.654,12.912-29.057,16.4-8.108,3.823-16.641,8.466-19.283,9.577" transform="translate(48.139 35.91)" fill="none" stroke="#1a1311" stroke-linecap="round" stroke-linejoin="round" stroke-width="2"/>
        <line id="線_3" data-name="線 3" x1="5.069" y2="6.5" transform="translate(230.134 67.65)" fill="#fff"/>
        <line id="線_4" data-name="線 4" x1="5.069" y2="6.5" transform="translate(230.134 67.65)" fill="none" stroke="#1a1311" stroke-linecap="round" stroke-linejoin="round" stroke-width="3"/>
        <line id="線_5" data-name="線 5" x1="45.207" y2="57.972" transform="translate(241.238 1.941)" fill="#fff"/>
        <line id="線_6" data-name="線 6" x1="45.207" y2="57.972" transform="translate(241.238 1.941)" fill="none" stroke="#1a1311" stroke-linecap="round" stroke-linejoin="round" stroke-width="3"/>
        <line id="線_7" data-name="線 7" x1="4.742" y2="4.372" transform="translate(241.664 82.754)" fill="#fff"/>
        <line id="線_8" data-name="線 8" x1="4.742" y2="4.372" transform="translate(241.664 82.754)" fill="none" stroke="#1a1311" stroke-linecap="round" stroke-linejoin="round" stroke-width="3"/>
        <line id="線_9" data-name="線 9" x1="9.988" y2="9.208" transform="translate(254.601 65.989)" fill="#fff"/>
        <line id="線_10" data-name="線 10" x1="9.988" y2="9.208" transform="translate(254.601 65.989)" fill="none" stroke="#1a1311" stroke-linecap="round" stroke-linejoin="round" stroke-width="3"/>
        <line id="線_11" data-name="線 11" x1="44.852" y2="41.352" transform="translate(272.84 17.027)" fill="#fff"/>
        <line id="線_12" data-name="線 12" x1="44.852" y2="41.352" transform="translate(272.84 17.027)" fill="none" stroke="#1a1311" stroke-linecap="round" stroke-linejoin="round" stroke-width="3"/>
        <line id="線_13" data-name="線 13" x1="8.282" y2="4.071" transform="translate(252.18 94.865)" fill="#fff"/>
        <line id="線_14" data-name="線 14" x1="8.282" y2="4.071" transform="translate(252.18 94.865)" fill="none" stroke="#1a1311" stroke-linecap="round" stroke-linejoin="round" stroke-width="3"/>
        <line id="線_15" data-name="線 15" x1="64.314" y2="31.61" transform="translate(268.745 59.183)" fill="#fff"/>
        <line id="線_16" data-name="線 16" x1="64.314" y2="31.61" transform="translate(268.745 59.183)" fill="none" stroke="#1a1311" stroke-linecap="round" stroke-linejoin="round" stroke-width="3"/>
      </g>
    </g>
  </g>
</svg>
