<svg xmlns="http://www.w3.org/2000/svg" xmlns:xlink="http://www.w3.org/1999/xlink" width="508" height="280" viewBox="0 0 508 280">
  <defs>
    <clipPath id="clip-path">
      <rect id="長方形_131" data-name="長方形 131" width="508" height="280" transform="translate(80 2830)" fill="none"/>
    </clipPath>
    <clipPath id="clip-path-2">
      <rect id="長方形_110" data-name="長方形 110" width="328" height="280" fill="none"/>
    </clipPath>
  </defs>
  <g id="マスクグループ_12" data-name="マスクグループ 12" transform="translate(-80 -2830)" clip-path="url(#clip-path)">
    <g id="グループ_18" data-name="グループ 18" transform="translate(228 2830)">
      <g id="グループ_17" data-name="グループ 17" transform="translate(-10)" clip-path="url(#clip-path-2)">
        <path id="パス_94" data-name="パス 94" d="M16.8,65.493s42.734,80.371,44.957,83.833,73.118-21.267,77.07-22.5S92.142,47.689,90.413,45.957a17.406,17.406,0,0,1-2.471-2.968S23.718,63.267,16.8,65.493" transform="translate(8.965 23.012)" fill="#fff"/>
        <path id="パス_95" data-name="パス 95" d="M16.8,65.493s42.734,80.371,44.957,83.833,73.118-21.267,77.07-22.5S92.142,47.689,90.413,45.957a17.406,17.406,0,0,1-2.471-2.968S23.718,63.267,16.8,65.493Z" transform="translate(8.965 23.012)" fill="none" stroke="#1a1311" stroke-linecap="round" stroke-linejoin="round" stroke-width="2"/>
        <path id="パス_96" data-name="パス 96" d="M199.6,1.882a27.2,27.2,0,0,0-22.281,31.343c1.258,7.471,4.179,12.758,9.919,16.791l-.5,7.2,5.936-3.864c5.021,2.572,9.959,3.19,15.949,2.18A27.2,27.2,0,0,0,199.6,1.882" transform="translate(94.408 0.803)" fill="#fff"/>
        <path id="パス_97" data-name="パス 97" d="M199.6,1.882a27.2,27.2,0,0,0-22.281,31.343c1.258,7.471,4.179,12.758,9.919,16.791l-.5,7.2,5.936-3.864c5.021,2.572,9.959,3.19,15.949,2.18A27.2,27.2,0,0,0,199.6,1.882Z" transform="translate(94.408 0.803)" fill="none" stroke="#1a1311" stroke-linecap="round" stroke-linejoin="round" stroke-width="3"/>
        <path id="パス_98" data-name="パス 98" d="M189.565,27.756" transform="translate(101.146 14.858)" fill="#fff"/>
        <path id="パス_99" data-name="パス 99" d="M190.23,30.334a1.865,1.865,0,0,1-1.35-.568,1.892,1.892,0,0,1,0-2.7,1.972,1.972,0,0,1,2.714,0,1.919,1.919,0,0,1-1.365,3.27" transform="translate(100.478 14.197)" fill="#1a1311"/>
        <line id="線_17" data-name="線 17" x1="11.994" y2="20.12" transform="translate(294.952 15.379)" fill="#fff"/>
        <path id="パス_100" data-name="パス 100" d="M193,32.725a1.919,1.919,0,0,1-1.644-2.9L203.345,9.7a1.917,1.917,0,1,1,3.291,1.967L194.642,31.79a1.918,1.918,0,0,1-1.647.935" transform="translate(101.955 4.693)" fill="#1a1311"/>
        <path id="パス_101" data-name="パス 101" d="M128.887,66.452c0,5.935-2.593,13.725-5.188,23s-5.187,14.1-4.075,21.514,7.039,14.467,14.08,18.548,8.893,2.6,13.71,6.677,5.826,6.551,5.826,6.551,4.549-.617,9.735-1.729,15.192-1.113,15.192-1.113-1.853-1.113,0-6.307,6.67-9.643,6.67-9.643-9.677-2.047-15.661-5.317c-3.806-2.082-13.239-8.78-13.239-8.78a36.271,36.271,0,0,1,.278-5.687c.37-1.855.741-6.09.741-6.09s6.051-5.733,6.762-9c.742-3.4-1.018-9.459-4.909-9.181s-8.151,3.617-8.151,3.617a5.657,5.657,0,0,1-3.984.186c-2.5-.649-7.459-3.827-11.023-7.6a63.875,63.875,0,0,1-6.762-9.645" transform="translate(63.687 35.571)" fill="#fff"/>
        <path id="パス_102" data-name="パス 102" d="M128.887,66.452c0,5.935-2.593,13.725-5.188,23s-5.187,14.1-4.075,21.514,7.039,14.467,14.08,18.548,8.893,2.6,13.71,6.677,5.826,6.551,5.826,6.551,4.549-.617,9.735-1.729,15.192-1.113,15.192-1.113-1.853-1.113,0-6.307,6.67-9.643,6.67-9.643-9.677-2.047-15.661-5.317c-3.806-2.082-13.239-8.78-13.239-8.78a36.271,36.271,0,0,1,.278-5.687c.37-1.855.741-6.09.741-6.09s6.051-5.733,6.762-9c.742-3.4-1.018-9.459-4.909-9.181s-8.151,3.617-8.151,3.617a5.657,5.657,0,0,1-3.984.186c-2.5-.649-7.459-3.827-11.023-7.6A63.875,63.875,0,0,1,128.887,66.452Z" transform="translate(63.687 35.571)" fill="none" stroke="#1a1311" stroke-linecap="round" stroke-linejoin="round" stroke-width="3"/>
        <path id="パス_103" data-name="パス 103" d="M146.047,86.6c-.833,1.105-5.188,2.851-6.677,2.965" transform="translate(74.364 46.355)" fill="#fff"/>
        <path id="パス_104" data-name="パス 104" d="M146.047,86.6c-.833,1.105-5.188,2.851-6.677,2.965" transform="translate(74.364 46.355)" fill="none" stroke="#1a1311" stroke-linecap="round" stroke-linejoin="round" stroke-width="2"/>
        <path id="パス_105" data-name="パス 105" d="M140.189,81.461a17.5,17.5,0,0,1,4.354-1.391,5.371,5.371,0,0,1,2.593,0" transform="translate(74.801 42.795)" fill="#fff"/>
        <path id="パス_106" data-name="パス 106" d="M140.189,81.461a17.5,17.5,0,0,1,4.354-1.391,5.371,5.371,0,0,1,2.593,0" transform="translate(74.801 42.795)" fill="none" stroke="#1a1311" stroke-linecap="round" stroke-linejoin="round" stroke-width="2"/>
        <path id="パス_107" data-name="パス 107" d="M140.707,86.77a9.017,9.017,0,0,0,1.984-1.756,21.916,21.916,0,0,0,2.13-4.081" transform="translate(75.077 43.323)" fill="#fff"/>
        <path id="パス_108" data-name="パス 108" d="M140.707,86.77a9.017,9.017,0,0,0,1.984-1.756,21.916,21.916,0,0,0,2.13-4.081" transform="translate(75.077 43.323)" fill="none" stroke="#1a1311" stroke-linecap="round" stroke-linejoin="round" stroke-width="2"/>
        <path id="パス_109" data-name="パス 109" d="M134.205,134.935c-.494-6.183-2.964-10.881,0-12.612a71.357,71.357,0,0,1,11.879-5.071,94.67,94.67,0,0,1,14.86-2.874c4.168-.378,15.006-.643,21.182.683s6.916,2.564,7.659,5.532,1.481,8.9,1.481,8.9-13.586-3.709-25.2-2.719S146.816,128.809,142,130.6a36.449,36.449,0,0,0-7.8,4.334" transform="translate(70.843 61.06)" fill="#fff"/>
        <path id="パス_110" data-name="パス 110" d="M134.205,134.935c-.494-6.183-2.964-10.881,0-12.612a71.357,71.357,0,0,1,11.879-5.071,94.67,94.67,0,0,1,14.86-2.874c4.168-.378,15.006-.643,21.182.683s6.916,2.564,7.659,5.532,1.481,8.9,1.481,8.9-13.586-3.709-25.2-2.719S146.816,128.809,142,130.6A36.449,36.449,0,0,0,134.205,134.935Z" transform="translate(70.843 61.06)" fill="none" stroke="#1a1311" stroke-linecap="round" stroke-linejoin="round" stroke-width="3"/>
        <path id="パス_111" data-name="パス 111" d="M114.687,212.085s4.711-31.5,12.123-46.338,11.253-31.889,17.044-35.364,10.629-6.7,24.7-7.483,27.425-.183,32.366,2.043,5.433.989,10.375,13.848,16.581,72.882,16.581,72.882" transform="translate(61.194 65.613)" fill="#fff"/>
        <path id="パス_112" data-name="パス 112" d="M114.687,212.085s4.711-31.5,12.123-46.338,11.253-31.889,17.044-35.364,10.629-6.7,24.7-7.483,27.425-.183,32.366,2.043,5.433.989,10.375,13.848,16.581,72.882,16.581,72.882" transform="translate(61.194 65.613)" fill="none" stroke="#1a1311" stroke-linecap="round" stroke-linejoin="round" stroke-width="3"/>
        <path id="パス_113" data-name="パス 113" d="M128.3,79.7,126.959,88.8s-7.183-.19-6.443-10.082a37.034,37.034,0,0,1,25.937-32.4c19.021-6.183,31.334-5.447,42.239-1.979,41.983,13.354,34.173,67.286,22.726,79.629-5.823,6.281-10.868,10.016-19.019,11.624l-6.637,1.308a7.134,7.134,0,0,1-3.115-.081,71.331,71.331,0,0,1-14.061-4.936,97.8,97.8,0,0,1-13.239-8.78l1.018-11.777a14.63,14.63,0,0,0,6.37-7.953c1.422-4.265-.209-9.012-3.153-10.038-2.754-.958-11.77,3.863-11.77,3.863s-12.29-3.955-15.685-11.521A31.72,31.72,0,0,0,128.3,79.7" transform="translate(64.276 22.319)" fill="#fff"/>
        <path id="パス_114" data-name="パス 114" d="M128.3,79.7,126.959,88.8s-7.183-.19-6.443-10.082a37.034,37.034,0,0,1,25.937-32.4c19.021-6.183,31.334-5.447,42.239-1.979,41.983,13.354,34.173,67.286,22.726,79.629-5.823,6.281-10.868,10.016-19.019,11.624l-6.637,1.308a7.134,7.134,0,0,1-3.115-.081,71.331,71.331,0,0,1-14.061-4.936,97.8,97.8,0,0,1-13.239-8.78l1.018-11.777a14.63,14.63,0,0,0,6.37-7.953c1.422-4.265-.209-9.012-3.153-10.038-2.754-.958-11.77,3.863-11.77,3.863s-12.29-3.955-15.685-11.521A31.72,31.72,0,0,0,128.3,79.7Z" transform="translate(64.276 22.319)" fill="none" stroke="#1a1311" stroke-linecap="round" stroke-linejoin="round" stroke-width="3"/>
        <path id="パス_115" data-name="パス 115" d="M53.772,38.81S54.6,50.484,58.2,52.19C60.193,53.134,68.4,51,68.4,51l14.15,21.812a12.5,12.5,0,0,0,4.693-7.79c.989-5.317,1.606-9.026-1.481-13.354S69.828,30.278,69.828,30.278" transform="translate(28.691 16.208)" fill="#fff"/>
        <path id="パス_116" data-name="パス 116" d="M53.772,38.81S54.6,50.484,58.2,52.19C60.193,53.134,68.4,51,68.4,51l14.15,21.812a12.5,12.5,0,0,0,4.693-7.79c.989-5.317,1.606-9.026-1.481-13.354S69.828,30.278,69.828,30.278" transform="translate(28.691 16.208)" fill="none" stroke="#1a1311" stroke-linecap="round" stroke-linejoin="round" stroke-width="3"/>
        <path id="パス_117" data-name="パス 117" d="M64,43.647s-3.829,8.656,1.235,9.52,6.315-8.779,6.315-8.779" transform="translate(33.408 23.364)" fill="#fff"/>
        <path id="パス_118" data-name="パス 118" d="M64,43.647s-3.829,8.656,1.235,9.52,6.315-8.779,6.315-8.779" transform="translate(33.408 23.364)" fill="none" stroke="#1a1311" stroke-linecap="round" stroke-linejoin="round" stroke-width="3"/>
        <path id="パス_119" data-name="パス 119" d="M14.752,46.24c.616,2.6,4.656,9.909,7.5,12.876s8.4,6.677,10.25,8.284,3.334,4.7,2.471,6.183-5.188.742-5.188.742l6.735,13.46s-3.147,3.232-11.056,1.007S13.111,83.351,10.145,76.8,3.23,55.777,1.5,48.606" transform="translate(0.8 24.752)" fill="#fff"/>
        <path id="パス_120" data-name="パス 120" d="M14.752,46.24c.616,2.6,4.656,9.909,7.5,12.876s8.4,6.677,10.25,8.284,3.334,4.7,2.471,6.183-5.188.742-5.188.742l6.735,13.46s-3.147,3.232-11.056,1.007S13.111,83.351,10.145,76.8,3.23,55.777,1.5,48.606" transform="translate(0.8 24.752)" fill="none" stroke="#1a1311" stroke-linecap="round" stroke-linejoin="round" stroke-width="3"/>
        <path id="パス_121" data-name="パス 121" d="M54.38,63.43c0,2.9-2.727,5.258-6.088,5.258S42.2,66.335,42.2,63.43s2.727-5.258,6.09-5.258,6.088,2.354,6.088,5.258" transform="translate(22.518 31.139)" fill="#fff"/>
        <path id="パス_122" data-name="パス 122" d="M54.38,63.43c0,2.9-2.727,5.258-6.088,5.258S42.2,66.335,42.2,63.43s2.727-5.258,6.09-5.258S54.38,60.526,54.38,63.43Z" transform="translate(22.518 31.139)" fill="none" stroke="#1a1311" stroke-linecap="round" stroke-linejoin="round" stroke-width="0.5"/>
        <path id="パス_123" data-name="パス 123" d="M63.829,60.554c0,2.9-2.727,5.258-6.088,5.258s-6.09-2.354-6.09-5.258,2.727-5.258,6.09-5.258,6.088,2.354,6.088,5.258" transform="translate(27.559 29.599)" fill="#fff"/>
        <path id="パス_124" data-name="パス 124" d="M63.829,60.554c0,2.9-2.727,5.258-6.088,5.258s-6.09-2.354-6.09-5.258,2.727-5.258,6.09-5.258S63.829,57.65,63.829,60.554Z" transform="translate(27.559 29.599)" fill="none" stroke="#1a1311" stroke-linecap="round" stroke-linejoin="round" stroke-width="0.5"/>
        <path id="パス_125" data-name="パス 125" d="M73.278,57.832c0,2.9-2.727,5.258-6.088,5.258s-6.09-2.354-6.09-5.258,2.727-5.258,6.09-5.258,6.088,2.354,6.088,5.258" transform="translate(32.601 28.142)" fill="#fff"/>
        <path id="パス_126" data-name="パス 126" d="M73.278,57.832c0,2.9-2.727,5.258-6.088,5.258s-6.09-2.354-6.09-5.258,2.727-5.258,6.09-5.258S73.278,54.928,73.278,57.832Z" transform="translate(32.601 28.142)" fill="none" stroke="#1a1311" stroke-linecap="round" stroke-linejoin="round" stroke-width="0.5"/>
        <path id="パス_127" data-name="パス 127" d="M63.075,68.216c0,2.9-2.727,5.258-6.088,5.258s-6.09-2.354-6.09-5.258,2.727-5.258,6.09-5.258,6.088,2.354,6.088,5.258" transform="translate(27.157 33.701)" fill="#fff"/>
        <path id="パス_128" data-name="パス 128" d="M63.075,68.216c0,2.9-2.727,5.258-6.088,5.258s-6.09-2.354-6.09-5.258,2.727-5.258,6.09-5.258S63.075,65.312,63.075,68.216Z" transform="translate(27.157 33.701)" fill="none" stroke="#1a1311" stroke-linecap="round" stroke-linejoin="round" stroke-width="0.5"/>
        <path id="パス_129" data-name="パス 129" d="M72.524,65.494c0,2.9-2.727,5.258-6.088,5.258s-6.09-2.354-6.09-5.258,2.727-5.258,6.09-5.258,6.088,2.354,6.088,5.258" transform="translate(32.199 32.244)" fill="#fff"/>
        <path id="パス_130" data-name="パス 130" d="M72.524,65.494c0,2.9-2.727,5.258-6.088,5.258s-6.09-2.354-6.09-5.258,2.727-5.258,6.09-5.258S72.524,62.59,72.524,65.494Z" transform="translate(32.199 32.244)" fill="none" stroke="#1a1311" stroke-linecap="round" stroke-linejoin="round" stroke-width="0.5"/>
        <line id="線_18" data-name="線 18" x2="19.762" y2="6.745" transform="translate(43.799 85.383)" fill="#fff"/>
        <line id="線_19" data-name="線 19" x2="19.762" y2="6.745" transform="translate(43.799 85.383)" fill="none" stroke="#1a1311" stroke-linecap="round" stroke-linejoin="round" stroke-width="0.5"/>
        <path id="パス_131" data-name="パス 131" d="M60.654,69.043s23.9,10.351,27.851,12.008a72.912,72.912,0,0,0,9.14,2.919" transform="translate(32.363 36.958)" fill="#fff"/>
        <path id="パス_132" data-name="パス 132" d="M60.654,69.043s23.9,10.351,27.851,12.008a72.912,72.912,0,0,0,9.14,2.919" transform="translate(32.363 36.958)" fill="none" stroke="#1a1311" stroke-linecap="round" stroke-linejoin="round" stroke-width="0.5"/>
        <path id="パス_133" data-name="パス 133" d="M95.46,90.71C93.95,97,79.6,98.93,63.41,95.028S35.321,82.869,36.832,76.583s15.862-8.22,32.05-4.319S96.971,84.424,95.46,90.71" transform="translate(19.583 37.604)" fill="#fff"/>
        <path id="パス_134" data-name="パス 134" d="M95.46,90.71C93.95,97,79.6,98.93,63.41,95.028S35.321,82.869,36.832,76.583s15.862-8.22,32.05-4.319S96.971,84.424,95.46,90.71Z" transform="translate(19.583 37.604)" fill="none" stroke="#1a1311" stroke-linecap="round" stroke-linejoin="round" stroke-width="0.5"/>
        <line id="線_20" data-name="線 20" y1="5.945" x2="20.903" transform="translate(65.096 138.464)" fill="#fff"/>
        <line id="線_21" data-name="線 21" y1="5.945" x2="20.903" transform="translate(65.096 138.464)" fill="none" stroke="#1a1311" stroke-linecap="round" stroke-linejoin="round" stroke-width="0.5"/>
        <line id="線_22" data-name="線 22" y1="5.945" x2="20.903" transform="translate(68.364 141.51)" fill="#fff"/>
        <line id="線_23" data-name="線 23" y1="5.945" x2="20.903" transform="translate(68.364 141.51)" fill="none" stroke="#1a1311" stroke-linecap="round" stroke-linejoin="round" stroke-width="0.5"/>
        <line id="線_24" data-name="線 24" y1="5.945" x2="20.903" transform="translate(71.631 144.556)" fill="#fff"/>
        <line id="線_25" data-name="線 25" y1="5.945" x2="20.903" transform="translate(71.631 144.556)" fill="none" stroke="#1a1311" stroke-linecap="round" stroke-linejoin="round" stroke-width="0.5"/>
        <line id="線_26" data-name="線 26" y1="5.945" x2="20.903" transform="translate(74.899 147.602)" fill="#fff"/>
        <line id="線_27" data-name="線 27" y1="5.945" x2="20.903" transform="translate(74.899 147.602)" fill="none" stroke="#1a1311" stroke-linecap="round" stroke-linejoin="round" stroke-width="0.5"/>
        <line id="線_28" data-name="線 28" y1="5.945" x2="20.903" transform="translate(78.167 150.648)" fill="#fff"/>
        <line id="線_29" data-name="線 29" y1="5.945" x2="20.903" transform="translate(78.167 150.648)" fill="none" stroke="#1a1311" stroke-linecap="round" stroke-linejoin="round" stroke-width="0.5"/>
        <line id="線_30" data-name="線 30" y1="5.945" x2="20.903" transform="translate(81.435 153.694)" fill="#fff"/>
        <line id="線_31" data-name="線 31" y1="5.945" x2="20.903" transform="translate(81.435 153.694)" fill="none" stroke="#1a1311" stroke-linecap="round" stroke-linejoin="round" stroke-width="0.5"/>
      </g>
    </g>
  </g>
</svg>
