<svg xmlns="http://www.w3.org/2000/svg" xmlns:xlink="http://www.w3.org/1999/xlink" width="290" height="230" viewBox="0 0 290 230">
  <defs>
    <clipPath id="clip-path">
      <rect id="長方形_196" data-name="長方形 196" width="290" height="230" transform="translate(15 3227)" fill="none" stroke="#707070" stroke-width="1"/>
    </clipPath>
    <clipPath id="clip-path-2">
      <rect id="長方形_109" data-name="長方形 109" width="256" height="228" transform="translate(0 0.34)" fill="none"/>
    </clipPath>
  </defs>
  <g id="マスクグループ_30" data-name="マスクグループ 30" transform="translate(-15 -3227)" clip-path="url(#clip-path)">
    <g id="グループ_14" data-name="グループ 14" transform="translate(32 3228.66)">
      <g id="グループ_13" data-name="グループ 13" clip-path="url(#clip-path-2)">
        <path id="パス_85" data-name="パス 85" d="M110.434,227.659s6.493-29.777,10.743-34.571,8.332-4.1,15.074-5.883,6.57.515,15.971-2.166,33.871-13.9,39.186-18.167,11.34-8.531,19.483-17.232,28.529-20.266,29.584-24.343-.351-10.2-7.569-9.128c-8.339,1.236-10.265,3.377-7.36,1.9,13.305-6.755,19.718-9.993,26.106-14.28,6.821-4.576,1.941-17.475-9.045-12.276-4.514,2.137,1.368-1.221,3.451-3.834s1.261-11.08-7.21-10.319A43.787,43.787,0,0,0,227.2,79.92a4,4,0,0,1-3.225-.149c-3.148-1.564-6.146-5.641-19.2-2.186-10.459,2.767-14.151,5.69-28.74,10.728s-22.651,5.712-41.376,12.323-5.678-.368,1.671-6.2,2.01-1.631,10.3-10.261c7.812-8.133-.547-16.094-6.979-11.792s-22.669,13.834-30.319,21.814S91.9,115.973,84.263,127.933s-5.774,22.059-8.2,32.78-8.173,44.109-8.173,44.109a203.227,203.227,0,0,0-.284,22.836" transform="translate(-65.403 -0.952)" fill="#fff"/>
        <path id="パス_86" data-name="パス 86" d="M110.434,227.659s6.493-29.777,10.743-34.571,8.332-4.1,15.074-5.883,6.57.515,15.971-2.166,33.871-13.9,39.186-18.167,11.34-8.531,19.483-17.232,28.529-20.266,29.584-24.343-.351-10.2-7.569-9.128c-8.339,1.236-10.265,3.377-7.36,1.9,13.305-6.755,19.718-9.993,26.106-14.28,6.821-4.576,1.941-17.475-9.045-12.276-4.514,2.137,1.368-1.221,3.451-3.834s1.261-11.08-7.21-10.319A43.787,43.787,0,0,0,227.2,79.92a4,4,0,0,1-3.225-.149c-3.148-1.564-6.146-5.641-19.2-2.186-10.459,2.767-14.151,5.69-28.74,10.728s-22.651,5.712-41.376,12.323-5.678-.368,1.671-6.2,2.01-1.631,10.3-10.261c7.812-8.133-.547-16.094-6.979-11.792s-22.669,13.834-30.319,21.814S91.9,115.973,84.263,127.933s-5.774,22.059-8.2,32.78-8.173,44.109-8.173,44.109a203.227,203.227,0,0,0-.284,22.836" transform="translate(-65.403 -0.952)" fill="none" stroke="#1a1311" stroke-linecap="round" stroke-linejoin="round" stroke-width="4"/>
        <path id="パス_87" data-name="パス 87" d="M198.5,129.523c3.03-7.578,3.439-7.051,4.713-12.013,1.323-5.158,1.078-11.509,1.05-13.825" transform="translate(-144.536 -1.387)" fill="none" stroke="#1a1311" stroke-linecap="round" stroke-linejoin="round" stroke-width="4"/>
        <path id="パス_88" data-name="パス 88" d="M163.594,83.928c-7.45.993-46.531,19.738-50.785,22.76S103.416,112,102,113.523" transform="translate(-8.435 -1.123)" fill="none" stroke="#1a1311" stroke-linecap="round" stroke-linejoin="round" stroke-width="2"/>
        <path id="パス_89" data-name="パス 89" d="M146.493,95.205c-13.313,6.554-27.307,12.263-35.6,16.2-9.08,4.313-21.312,11.317-23.99,13.1" transform="translate(23.589 -1.274)" fill="none" stroke="#1a1311" stroke-linecap="round" stroke-linejoin="round" stroke-width="2"/>
        <path id="パス_90" data-name="パス 90" d="M154.855,112.4c3.607,1.5,9.078,8.624,10.714,13.079a57.932,57.932,0,0,1,2.232,7.3" transform="translate(-64.897 -1.504)" fill="none" stroke="#1a1311" stroke-linecap="round" stroke-linejoin="round" stroke-width="2"/>
        <path id="パス_91" data-name="パス 91" d="M209.04,137.991c-2.849,12.588-8.633,17.928-10.544,21.552" transform="translate(-149.281 -1.846)" fill="none" stroke="#1a1311" stroke-linecap="round" stroke-linejoin="round" stroke-width="2"/>
        <path id="パス_92" data-name="パス 92" d="M196.3,152.683c-13.76,3.624-22.743,8.392-25.991,11.825" transform="translate(-108.667 -2.043)" fill="none" stroke="#1a1311" stroke-linecap="round" stroke-linejoin="round" stroke-width="2"/>
        <path id="パス_93" data-name="パス 93" d="M140.929,122.008c-9.085,4.431-16.548,9.843-22.2,12.5-6.2,2.914-12.717,6.453-14.736,7.3" transform="translate(12.264 -1.632)" fill="none" stroke="#1a1311" stroke-linecap="round" stroke-linejoin="round" stroke-width="2"/>
        <line id="線_3" data-name="線 3" x1="3.873" y2="4.955" transform="translate(175.864 51.568)" fill="#fff"/>
        <line id="線_4" data-name="線 4" x1="3.873" y2="4.955" transform="translate(175.864 51.568)" fill="none" stroke="#1a1311" stroke-linecap="round" stroke-linejoin="round" stroke-width="3"/>
        <line id="線_5" data-name="線 5" x1="34.546" y2="44.19" transform="translate(184.349 1.48)" fill="#fff"/>
        <line id="線_6" data-name="線 6" x1="34.546" y2="44.19" transform="translate(184.349 1.48)" fill="none" stroke="#1a1311" stroke-linecap="round" stroke-linejoin="round" stroke-width="3"/>
        <line id="線_7" data-name="線 7" x1="3.623" y2="3.333" transform="translate(184.674 63.08)" fill="#fff"/>
        <line id="線_8" data-name="線 8" x1="3.623" y2="3.333" transform="translate(184.674 63.08)" fill="none" stroke="#1a1311" stroke-linecap="round" stroke-linejoin="round" stroke-width="3"/>
        <line id="線_9" data-name="線 9" x1="7.632" y2="7.019" transform="translate(194.561 50.301)" fill="#fff"/>
        <line id="線_10" data-name="線 10" x1="7.632" y2="7.019" transform="translate(194.561 50.301)" fill="none" stroke="#1a1311" stroke-linecap="round" stroke-linejoin="round" stroke-width="3"/>
        <line id="線_11" data-name="線 11" x1="34.275" y2="31.522" transform="translate(208.499 12.979)" fill="#fff"/>
        <line id="線_12" data-name="線 12" x1="34.275" y2="31.522" transform="translate(208.499 12.979)" fill="none" stroke="#1a1311" stroke-linecap="round" stroke-linejoin="round" stroke-width="3"/>
        <line id="線_13" data-name="線 13" x1="6.329" y2="3.103" transform="translate(192.711 72.312)" fill="#fff"/>
        <line id="線_14" data-name="線 14" x1="6.329" y2="3.103" transform="translate(192.711 72.312)" fill="none" stroke="#1a1311" stroke-linecap="round" stroke-linejoin="round" stroke-width="3"/>
        <line id="線_15" data-name="線 15" x1="49.147" y2="24.095" transform="translate(205.37 45.113)" fill="#fff"/>
        <line id="線_16" data-name="線 16" x1="49.147" y2="24.095" transform="translate(205.37 45.113)" fill="none" stroke="#1a1311" stroke-linecap="round" stroke-linejoin="round" stroke-width="3"/>
      </g>
    </g>
  </g>
</svg>
