<svg xmlns="http://www.w3.org/2000/svg" xmlns:xlink="http://www.w3.org/1999/xlink" width="290" height="230" viewBox="0 0 290 230">
  <defs>
    <clipPath id="clip-path">
      <rect id="長方形_197" data-name="長方形 197" width="290" height="230" transform="translate(15 4079)" fill="none" stroke="#707070" stroke-width="1"/>
    </clipPath>
    <clipPath id="clip-path-2">
      <rect id="長方形_110" data-name="長方形 110" width="253" height="215" fill="none"/>
    </clipPath>
  </defs>
  <g id="マスクグループ_31" data-name="マスクグループ 31" transform="translate(-15 -4079)" clip-path="url(#clip-path)">
    <g id="グループ_17" data-name="グループ 17" transform="translate(34 4094)" clip-path="url(#clip-path-2)">
      <path id="パス_94" data-name="パス 94" d="M16.8,60.269s32.963,61.713,34.677,64.372,56.4-16.33,59.447-17.28S74.915,46.6,73.582,45.268a13.377,13.377,0,0,1-1.906-2.279S22.137,58.56,16.8,60.269" transform="translate(3.073 7.69)" fill="#fff"/>
      <path id="パス_95" data-name="パス 95" d="M16.8,60.269s32.963,61.713,34.677,64.372,56.4-16.33,59.447-17.28S74.915,46.6,73.582,45.268a13.377,13.377,0,0,1-1.906-2.279S22.137,58.56,16.8,60.269Z" transform="translate(3.073 7.69)" fill="none" stroke="#1a1311" stroke-linecap="round" stroke-linejoin="round" stroke-width="2"/>
      <path id="パス_96" data-name="パス 96" d="M194.418,1.794A20.9,20.9,0,0,0,177.232,25.86c.97,5.736,3.223,9.8,7.651,12.893l-.382,5.528,4.579-2.967a18.7,18.7,0,0,0,12.3,1.674,20.89,20.89,0,1,0-6.964-41.195" transform="translate(32.363 0.268)" fill="#fff"/>
      <path id="パス_97" data-name="パス 97" d="M194.418,1.794A20.9,20.9,0,0,0,177.232,25.86c.97,5.736,3.223,9.8,7.651,12.893l-.382,5.528,4.579-2.967a18.7,18.7,0,0,0,12.3,1.674,20.89,20.89,0,1,0-6.964-41.195Z" transform="translate(32.363 0.268)" fill="none" stroke="#1a1311" stroke-linecap="round" stroke-linejoin="round" stroke-width="3"/>
      <path id="パス_98" data-name="パス 98" d="M189.565,27.756" transform="translate(34.673 4.965)" fill="#fff"/>
      <path id="パス_99" data-name="パス 99" d="M189.792,29.449a1.442,1.442,0,0,1-1.041-.436,1.448,1.448,0,0,1,0-2.075,1.526,1.526,0,0,1,2.094,0,1.477,1.477,0,0,1,0,2.075,1.489,1.489,0,0,1-1.053.436" transform="translate(34.444 4.744)" fill="#1a1311"/>
      <line id="線_17" data-name="線 17" x1="9.252" y2="15.449" transform="translate(227.509 11.809)" fill="#fff"/>
      <path id="パス_100" data-name="パス 100" d="M192.557,27.164a1.475,1.475,0,0,1-1.268-2.229l9.252-15.449A1.477,1.477,0,0,1,203.079,11l-9.251,15.45a1.481,1.481,0,0,1-1.27.718" transform="translate(34.95 1.568)" fill="#1a1311"/>
      <path id="パス_101" data-name="パス 101" d="M126.708,66.452c0,4.558-2,10.539-4,17.66s-4,10.823-3.143,16.52,5.43,11.109,10.86,14.242S137.283,116.867,141,120s4.494,5.03,4.494,5.03S149,124.557,153,123.7s11.718-.855,11.718-.855-1.429-.855,0-4.843a22.016,22.016,0,0,1,5.144-7.4s-7.464-1.571-12.08-4.082c-2.936-1.6-10.212-6.742-10.212-6.742a27.728,27.728,0,0,1,.214-4.367c.285-1.424.571-4.677.571-4.677s4.668-4.4,5.215-6.907c.573-2.611-.785-7.263-3.786-7.05s-6.287,2.777-6.287,2.777a4.381,4.381,0,0,1-3.073.143c-1.929-.5-5.754-2.939-8.5-5.839a49.039,49.039,0,0,1-5.215-7.406" transform="translate(21.832 11.887)" fill="#fff"/>
      <path id="パス_102" data-name="パス 102" d="M126.708,66.452c0,4.558-2,10.539-4,17.66s-4,10.823-3.143,16.52,5.43,11.109,10.86,14.242S137.283,116.867,141,120s4.494,5.03,4.494,5.03S149,124.557,153,123.7s11.718-.855,11.718-.855-1.429-.855,0-4.843a22.016,22.016,0,0,1,5.144-7.4s-7.464-1.571-12.08-4.082c-2.936-1.6-10.212-6.742-10.212-6.742a27.728,27.728,0,0,1,.214-4.367c.285-1.424.571-4.677.571-4.677s4.668-4.4,5.215-6.907c.573-2.611-.785-7.263-3.786-7.05s-6.287,2.777-6.287,2.777a4.381,4.381,0,0,1-3.073.143c-1.929-.5-5.754-2.939-8.5-5.839A49.039,49.039,0,0,1,126.708,66.452Z" transform="translate(21.832 11.887)" fill="none" stroke="#1a1311" stroke-linecap="round" stroke-linejoin="round" stroke-width="3"/>
      <path id="パス_103" data-name="パス 103" d="M144.52,86.6c-.642.849-4,2.189-5.15,2.276" transform="translate(25.492 15.491)" fill="#fff"/>
      <path id="パス_104" data-name="パス 104" d="M144.52,86.6c-.642.849-4,2.189-5.15,2.276" transform="translate(25.492 15.491)" fill="none" stroke="#1a1311" stroke-linecap="round" stroke-linejoin="round" stroke-width="2"/>
      <path id="パス_105" data-name="パス 105" d="M140.189,81.109a13.544,13.544,0,0,1,3.358-1.068,4.161,4.161,0,0,1,2,0" transform="translate(25.641 14.301)" fill="#fff"/>
      <path id="パス_106" data-name="パス 106" d="M140.189,81.109a13.544,13.544,0,0,1,3.358-1.068,4.161,4.161,0,0,1,2,0" transform="translate(25.641 14.301)" fill="none" stroke="#1a1311" stroke-linecap="round" stroke-linejoin="round" stroke-width="2"/>
      <path id="パス_107" data-name="パス 107" d="M140.707,85.415a6.947,6.947,0,0,0,1.531-1.349,16.8,16.8,0,0,0,1.643-3.133" transform="translate(25.736 14.478)" fill="#fff"/>
      <path id="パス_108" data-name="パス 108" d="M140.707,85.415a6.947,6.947,0,0,0,1.531-1.349,16.8,16.8,0,0,0,1.643-3.133" transform="translate(25.736 14.478)" fill="none" stroke="#1a1311" stroke-linecap="round" stroke-linejoin="round" stroke-width="2"/>
      <path id="パス_109" data-name="パス 109" d="M133.877,130.091c-.381-4.747-2.287-8.355,0-9.685a55.175,55.175,0,0,1,9.163-3.894,73.317,73.317,0,0,1,11.462-2.207c3.215-.29,11.575-.494,16.338.525s5.335,1.969,5.907,4.248,1.143,6.835,1.143,6.835-10.479-2.848-19.435-2.088-14.851,1.562-18.564,2.938a28.148,28.148,0,0,0-6.014,3.328" transform="translate(24.285 20.405)" fill="#fff"/>
      <path id="パス_110" data-name="パス 110" d="M133.877,130.091c-.381-4.747-2.287-8.355,0-9.685a55.175,55.175,0,0,1,9.163-3.894,73.317,73.317,0,0,1,11.462-2.207c3.215-.29,11.575-.494,16.338.525s5.335,1.969,5.907,4.248,1.143,6.835,1.143,6.835-10.479-2.848-19.435-2.088-14.851,1.562-18.564,2.938A28.148,28.148,0,0,0,133.877,130.091Z" transform="translate(24.285 20.405)" fill="none" stroke="#1a1311" stroke-linecap="round" stroke-linejoin="round" stroke-width="3"/>
      <path id="パス_111" data-name="パス 111" d="M114.687,191.305s3.634-24.188,9.351-35.581,8.68-24.487,13.147-27.154,8.2-5.146,19.05-5.746,21.154-.14,24.965,1.569,4.191.759,8,10.634,12.79,55.963,12.79,55.963" transform="translate(20.977 21.926)" fill="#fff"/>
      <path id="パス_112" data-name="パス 112" d="M114.687,191.305s3.634-24.188,9.351-35.581,8.68-24.487,13.147-27.154,8.2-5.146,19.05-5.746,21.154-.14,24.965,1.569,4.191.759,8,10.634,12.79,55.963,12.79,55.963" transform="translate(20.977 21.926)" fill="none" stroke="#1a1311" stroke-linecap="round" stroke-linejoin="round" stroke-width="3"/>
      <path id="パス_113" data-name="パス 113" d="M126.506,70.881l-1.033,6.983s-5.541-.146-4.969-7.742a28.455,28.455,0,0,1,20.006-24.876c14.672-4.747,24.169-4.183,32.581-1.52,32.383,10.254,26.359,51.666,17.529,61.144-4.492,4.823-8.383,7.691-14.67,8.925l-5.12,1a5.527,5.527,0,0,1-2.4-.062,55.189,55.189,0,0,1-10.846-3.79,75.456,75.456,0,0,1-10.212-6.742l.785-9.043a11.25,11.25,0,0,0,4.914-6.107c1.1-3.275-.161-6.92-2.432-7.708-2.124-.736-9.079,2.966-9.079,2.966s-9.48-3.037-12.1-8.846a24.347,24.347,0,0,0-2.954-4.587" transform="translate(22.033 7.459)" fill="#fff"/>
      <path id="パス_114" data-name="パス 114" d="M126.506,70.881l-1.033,6.983s-5.541-.146-4.969-7.742a28.455,28.455,0,0,1,20.006-24.876c14.672-4.747,24.169-4.183,32.581-1.52,32.383,10.254,26.359,51.666,17.529,61.144-4.492,4.823-8.383,7.691-14.67,8.925l-5.12,1a5.527,5.527,0,0,1-2.4-.062,55.189,55.189,0,0,1-10.846-3.79,75.456,75.456,0,0,1-10.212-6.742l.785-9.043a11.25,11.25,0,0,0,4.914-6.107c1.1-3.275-.161-6.92-2.432-7.708-2.124-.736-9.079,2.966-9.079,2.966s-9.48-3.037-12.1-8.846A24.347,24.347,0,0,0,126.506,70.881Z" transform="translate(22.033 7.459)" fill="none" stroke="#1a1311" stroke-linecap="round" stroke-linejoin="round" stroke-width="3"/>
      <path id="パス_115" data-name="パス 115" d="M53.772,36.829s.635,8.964,3.415,10.274c1.538.725,7.868-.912,7.868-.912L75.969,62.939a9.594,9.594,0,0,0,3.62-5.982c.763-4.082,1.239-6.931-1.143-10.254S66.157,30.278,66.157,30.278" transform="translate(9.835 5.416)" fill="#fff"/>
      <path id="パス_116" data-name="パス 116" d="M53.772,36.829s.635,8.964,3.415,10.274c1.538.725,7.868-.912,7.868-.912L75.969,62.939a9.594,9.594,0,0,0,3.62-5.982c.763-4.082,1.239-6.931-1.143-10.254S66.157,30.278,66.157,30.278" transform="translate(9.835 5.416)" fill="none" stroke="#1a1311" stroke-linecap="round" stroke-linejoin="round" stroke-width="3"/>
      <path id="パス_117" data-name="パス 117" d="M63.682,43.647s-2.954,6.647.952,7.31,4.871-6.741,4.871-6.741" transform="translate(11.452 7.808)" fill="#fff"/>
      <path id="パス_118" data-name="パス 118" d="M63.682,43.647s-2.954,6.647.952,7.31,4.871-6.741,4.871-6.741" transform="translate(11.452 7.808)" fill="none" stroke="#1a1311" stroke-linecap="round" stroke-linejoin="round" stroke-width="3"/>
      <path id="パス_119" data-name="パス 119" d="M11.721,46.24c.476,1.993,3.591,7.609,5.784,9.887s6.478,5.127,7.907,6.361,2.572,3.607,1.906,4.747-4,.569-4,.569l5.2,10.335s-2.427,2.482-8.528.773S10.456,74.736,8.168,69.7,2.834,53.563,1.5,48.057" transform="translate(0.274 8.272)" fill="#fff"/>
      <path id="パス_120" data-name="パス 120" d="M11.721,46.24c.476,1.993,3.591,7.609,5.784,9.887s6.478,5.127,7.907,6.361,2.572,3.607,1.906,4.747-4,.569-4,.569l5.2,10.335s-2.427,2.482-8.528.773S10.456,74.736,8.168,69.7,2.834,53.563,1.5,48.057" transform="translate(0.274 8.272)" fill="none" stroke="#1a1311" stroke-linecap="round" stroke-linejoin="round" stroke-width="3"/>
      <path id="パス_121" data-name="パス 121" d="M51.6,62.21c0,2.23-2.1,4.038-4.7,4.038s-4.7-1.807-4.7-4.038,2.1-4.038,4.7-4.038,4.7,1.807,4.7,4.038" transform="translate(7.719 10.406)" fill="#fff"/>
      <path id="パス_122" data-name="パス 122" d="M51.6,62.21c0,2.23-2.1,4.038-4.7,4.038s-4.7-1.807-4.7-4.038,2.1-4.038,4.7-4.038S51.6,59.979,51.6,62.21Z" transform="translate(7.719 10.406)" fill="none" stroke="#1a1311" stroke-linecap="round" stroke-linejoin="round" stroke-width="0.5"/>
      <path id="パス_123" data-name="パス 123" d="M61.044,59.334c0,2.23-2.1,4.038-4.7,4.038s-4.7-1.807-4.7-4.038,2.1-4.038,4.7-4.038,4.7,1.807,4.7,4.038" transform="translate(9.447 9.892)" fill="#fff"/>
      <path id="パス_124" data-name="パス 124" d="M61.044,59.334c0,2.23-2.1,4.038-4.7,4.038s-4.7-1.807-4.7-4.038,2.1-4.038,4.7-4.038S61.044,57.1,61.044,59.334Z" transform="translate(9.447 9.892)" fill="none" stroke="#1a1311" stroke-linecap="round" stroke-linejoin="round" stroke-width="0.5"/>
      <path id="パス_125" data-name="パス 125" d="M70.493,56.612c0,2.23-2.1,4.038-4.7,4.038s-4.7-1.807-4.7-4.038,2.1-4.038,4.7-4.038,4.7,1.807,4.7,4.038" transform="translate(11.176 9.405)" fill="#fff"/>
      <path id="パス_126" data-name="パス 126" d="M70.493,56.612c0,2.23-2.1,4.038-4.7,4.038s-4.7-1.807-4.7-4.038,2.1-4.038,4.7-4.038S70.493,54.381,70.493,56.612Z" transform="translate(11.176 9.405)" fill="none" stroke="#1a1311" stroke-linecap="round" stroke-linejoin="round" stroke-width="0.5"/>
      <path id="パス_127" data-name="パス 127" d="M60.29,67c0,2.23-2.1,4.038-4.7,4.038S50.9,69.226,50.9,67s2.1-4.038,4.7-4.038,4.7,1.807,4.7,4.038" transform="translate(9.309 11.262)" fill="#fff"/>
      <path id="パス_128" data-name="パス 128" d="M60.29,67c0,2.23-2.1,4.038-4.7,4.038S50.9,69.226,50.9,67s2.1-4.038,4.7-4.038S60.29,64.765,60.29,67Z" transform="translate(9.309 11.262)" fill="none" stroke="#1a1311" stroke-linecap="round" stroke-linejoin="round" stroke-width="0.5"/>
      <path id="パス_129" data-name="パス 129" d="M69.739,64.274c0,2.23-2.1,4.038-4.7,4.038s-4.7-1.807-4.7-4.038,2.1-4.038,4.7-4.038,4.7,1.807,4.7,4.038" transform="translate(11.038 10.775)" fill="#fff"/>
      <path id="パス_130" data-name="パス 130" d="M69.739,64.274c0,2.23-2.1,4.038-4.7,4.038s-4.7-1.807-4.7-4.038,2.1-4.038,4.7-4.038S69.739,62.043,69.739,64.274Z" transform="translate(11.038 10.775)" fill="none" stroke="#1a1311" stroke-linecap="round" stroke-linejoin="round" stroke-width="0.5"/>
      <line id="線_18" data-name="線 18" x2="15.243" y2="5.179" transform="translate(33.784 65.562)" fill="#fff"/>
      <line id="線_19" data-name="線 19" x2="15.243" y2="5.179" transform="translate(33.784 65.562)" fill="none" stroke="#1a1311" stroke-linecap="round" stroke-linejoin="round" stroke-width="0.5"/>
      <path id="パス_131" data-name="パス 131" d="M60.654,69.043s18.434,7.948,21.483,9.22a56.428,56.428,0,0,0,7.05,2.241" transform="translate(11.094 12.351)" fill="#fff"/>
      <path id="パス_132" data-name="パス 132" d="M60.654,69.043s18.434,7.948,21.483,9.22a56.428,56.428,0,0,0,7.05,2.241" transform="translate(11.094 12.351)" fill="none" stroke="#1a1311" stroke-linecap="round" stroke-linejoin="round" stroke-width="0.5"/>
      <path id="パス_133" data-name="パス 133" d="M82.025,85.96C80.86,90.786,69.791,92.272,57.3,89.276S35.637,79.939,36.8,75.113,49.037,68.8,61.524,71.8s21.666,9.337,20.5,14.163" transform="translate(6.713 12.566)" fill="#fff"/>
      <path id="パス_134" data-name="パス 134" d="M82.025,85.96C80.86,90.786,69.791,92.272,57.3,89.276S35.637,79.939,36.8,75.113,49.037,68.8,61.524,71.8,83.19,81.134,82.025,85.96Z" transform="translate(6.713 12.566)" fill="none" stroke="#1a1311" stroke-linecap="round" stroke-linejoin="round" stroke-width="0.5"/>
      <line id="線_20" data-name="線 20" y1="4.565" x2="16.123" transform="translate(50.211 106.321)" fill="#fff"/>
      <line id="線_21" data-name="線 21" y1="4.565" x2="16.123" transform="translate(50.211 106.321)" fill="none" stroke="#1a1311" stroke-linecap="round" stroke-linejoin="round" stroke-width="0.5"/>
      <line id="線_22" data-name="線 22" y1="4.565" x2="16.123" transform="translate(52.732 108.66)" fill="#fff"/>
      <line id="線_23" data-name="線 23" y1="4.565" x2="16.123" transform="translate(52.732 108.66)" fill="none" stroke="#1a1311" stroke-linecap="round" stroke-linejoin="round" stroke-width="0.5"/>
      <line id="線_24" data-name="線 24" y1="4.565" x2="16.123" transform="translate(55.252 110.998)" fill="#fff"/>
      <line id="線_25" data-name="線 25" y1="4.565" x2="16.123" transform="translate(55.252 110.998)" fill="none" stroke="#1a1311" stroke-linecap="round" stroke-linejoin="round" stroke-width="0.5"/>
      <line id="線_26" data-name="線 26" y1="4.565" x2="16.123" transform="translate(57.773 113.337)" fill="#fff"/>
      <line id="線_27" data-name="線 27" y1="4.565" x2="16.123" transform="translate(57.773 113.337)" fill="none" stroke="#1a1311" stroke-linecap="round" stroke-linejoin="round" stroke-width="0.5"/>
      <line id="線_28" data-name="線 28" y1="4.565" x2="16.123" transform="translate(60.293 115.676)" fill="#fff"/>
      <line id="線_29" data-name="線 29" y1="4.565" x2="16.123" transform="translate(60.293 115.676)" fill="none" stroke="#1a1311" stroke-linecap="round" stroke-linejoin="round" stroke-width="0.5"/>
      <line id="線_30" data-name="線 30" y1="4.565" x2="16.123" transform="translate(62.814 118.015)" fill="#fff"/>
      <line id="線_31" data-name="線 31" y1="4.565" x2="16.123" transform="translate(62.814 118.015)" fill="none" stroke="#1a1311" stroke-linecap="round" stroke-linejoin="round" stroke-width="0.5"/>
    </g>
  </g>
</svg>
