<svg height="280" viewBox="0 0 508 280" width="508" xmlns="http://www.w3.org/2000/svg" xmlns:xlink="http://www.w3.org/1999/xlink"><clipPath id="a"><path d="m80 2070h508v280h-508z"/></clipPath><clipPath id="b"><path d="m0 0h313v280h-313z"/></clipPath><g clip-path="url(#a)" transform="translate(-80 -2070)"><g clip-path="url(#b)" transform="translate(217 2070)"><path d="m111.894 228.709-26.339 13.2a20.193 20.193 0 0 1 -27.107-9.009l-36.669-81.964a20.216 20.216 0 0 1 9.012-27.122l18.745-9.532a20.194 20.194 0 0 1 27.107 9.018l44.262 78.288a20.216 20.216 0 0 1 -9.012 27.122" fill="#fff" transform="translate(3.752 21.505)"/><path d="m111.894 228.709-26.339 13.2a20.193 20.193 0 0 1 -27.107-9.009l-36.669-81.964a20.216 20.216 0 0 1 9.012-27.122l18.745-9.532a20.194 20.194 0 0 1 27.107 9.018l44.262 78.288a20.216 20.216 0 0 1 -9.011 27.121z" fill="none" stroke="#1a1311" stroke-linecap="round" stroke-linejoin="round" stroke-width="3" transform="translate(3.752 21.505)"/><path d="m17.008 33.663-17.008-33.663" fill="#fff" transform="translate(47.802 148.066)"/><path d="m17.008 33.663-17.008-33.663" fill="none" stroke="#1a1311" stroke-linecap="round" stroke-linejoin="round" transform="translate(47.802 148.066)"/><path d="m0 9.121 18.654-9.121" fill="#fff" transform="translate(46.156 181.728)"/><path d="m0 9.121 18.654-9.121" fill="none" stroke="#1a1311" stroke-linecap="round" stroke-linejoin="round" transform="translate(46.156 181.728)"/><path d="m0 7.09 14.044-7.09" fill="#fff" transform="translate(68.794 172.143)"/><path d="m0 7.09 14.044-7.09" fill="none" stroke="#1a1311" stroke-linecap="round" stroke-linejoin="round" transform="translate(68.794 172.143)"/><path d="m41.678 128.121-10.192-15.705 10.192-13.258-22.627 3.059 27.009-35.082-45.56 41.813 26.909-46.5-20.386 12.438 7.951-17.338-5.097-7.748" fill="none" stroke="#1a1311" stroke-linecap="round" stroke-linejoin="round" transform="translate(.095 9.55)"/><path d="m138.017 247.465s-6.829-4.336-8.884-6.14c-1.962-1.721-7.185-7.959-7.185-7.959l149.352-170.423a2.153 2.153 0 0 1 2.713-.447c2.211 1.3 4.486 2.108 7.58 4.916a37.454 37.454 0 0 1 5.855 6.867 2.176 2.176 0 0 1 -.089 2.773z" fill="#fff" transform="translate(23.304 11.929)"/><path d="m138.017 247.465s-6.829-4.336-8.884-6.14c-1.962-1.721-7.185-7.959-7.185-7.959l149.352-170.423a2.153 2.153 0 0 1 2.713-.447c2.211 1.3 4.486 2.108 7.58 4.916a37.454 37.454 0 0 1 5.855 6.867 2.176 2.176 0 0 1 -.089 2.773z" fill="none" stroke="#1a1311" stroke-linecap="round" stroke-linejoin="round" stroke-width="3" transform="translate(23.304 11.929)"/><path d="m124.293 205.823-14.615 32.918 30.684-18.819s-6.882-4.382-8.886-6.139-7.184-7.96-7.184-7.96" fill="#fff" transform="translate(20.959 39.471)"/><path d="m124.293 205.823-14.615 32.918 30.684-18.819s-6.882-4.382-8.886-6.139-7.183-7.96-7.183-7.96z" fill="none" stroke="#1a1311" stroke-linecap="round" stroke-linejoin="round" stroke-width="3" transform="translate(20.959 39.471)"/><path d="m0 171.762 150.53-171.762" fill="#fff" transform="translate(148.718 76.574)"/><path d="m0 171.762 150.53-171.762" fill="none" stroke="#1a1311" stroke-linecap="round" stroke-linejoin="round" transform="translate(148.718 76.574)"/><path d="m0 171.762 150.53-171.762" fill="#fff" transform="translate(157.598 84.365)"/><path d="m0 171.762 150.53-171.762" fill="none" stroke="#1a1311" stroke-linecap="round" stroke-linejoin="round" transform="translate(157.598 84.365)"/><path d="m113 227.736c.3 1.224 1.97 2.823 3.078 2.876l-6.4 3.927z" fill="#1a1311" transform="translate(20.959 43.674)"/><path d="m113 227.736c.3 1.224 1.97 2.823 3.078 2.876l-6.4 3.927z" fill="none" stroke="#1a1311" stroke-linecap="round" stroke-linejoin="round" transform="translate(20.959 43.674)"/><path d="m157.614 51.589c-6.179 2.661-28.491-2.385-52.563-3.008s-43.479 5.643-60.514 5.05c-10.653-.371-22.2-6.5-29.209-14.529a20.22 20.22 0 0 1 3.347-29.423c8.635-6.247 21.261-9.622 31.725-7.588 16.733 3.255 34.235 13.724 57.832 18.529 13.627 2.776 27.014 3.982 36.937 5.272 7.26.945 12.665 1.934 14.957 3.618" fill="#fff" transform="translate(1.999 .288)"/><path d="m157.614 51.589c-6.179 2.661-28.491-2.385-52.563-3.008s-43.479 5.643-60.514 5.05c-10.653-.371-22.2-6.5-29.209-14.529a20.22 20.22 0 0 1 3.347-29.423c8.635-6.247 21.261-9.622 31.725-7.588 16.733 3.255 34.235 13.724 57.832 18.529 13.627 2.776 27.014 3.982 36.937 5.272 7.26.945 12.665 1.934 14.957 3.618" fill="none" stroke="#1a1311" stroke-linecap="round" stroke-linejoin="round" stroke-width="3" transform="translate(1.999 .288)"/><path d="m49.156 53.639c-13.588 1.894-26.818-6.5-33.828-14.532a20.218 20.218 0 0 1 3.348-29.422c8.634-6.248 24.037-10.304 34.119-7.075 0 0-9.313-3.37-22.251 11.036-5.772 6.427-7.553 15.1-2.653 24.425 9.547 18.182 21.265 15.568 21.265 15.568" fill="#fff" transform="translate(1.999 .283)"/><path d="m49.156 53.639c-13.588 1.894-26.818-6.5-33.828-14.532a20.218 20.218 0 0 1 3.348-29.422c8.634-6.248 24.037-10.304 34.119-7.075 0 0-9.313-3.37-22.251 11.036-5.772 6.427-7.553 15.1-2.653 24.425 9.547 18.182 21.265 15.568 21.265 15.568z" fill="none" stroke="#1a1311" stroke-linecap="round" stroke-linejoin="round" transform="translate(1.999 .283)"/><path d="m136 46.447c-2.711-.267-4.448-5.169-3.879-10.948s3.227-10.248 5.938-9.981" fill="#fff" transform="translate(25.227 4.891)"/><path d="m136 46.447c-2.711-.267-4.448-5.169-3.879-10.948s3.227-10.248 5.938-9.981" fill="none" stroke="#1a1311" stroke-linecap="round" stroke-linejoin="round" stroke-width="2" transform="translate(25.227 4.891)"/><path d="m137.418 25.517c2.711.267 4.448 5.169 3.879 10.948s-3.227 10.248-5.938 9.981" fill="#fff" transform="translate(25.867 4.893)"/><path d="m137.418 25.517c2.711.267 4.448 5.169 3.879 10.948s-3.227 10.248-5.938 9.981" fill="none" stroke="#1a1311" stroke-linecap="round" stroke-linejoin="round" stroke-width="3" transform="translate(25.867 4.893)"/><path d="m120.882 43.944c-1.794-1.377-3.44-4.719-2.913-10.073s2.131-8.071 4.82-9.31" fill="#fff" transform="translate(22.524 4.71)"/><g fill="none" stroke="#1a1311" stroke-linecap="round" stroke-linejoin="round"><path d="m120.882 43.944c-1.794-1.377-3.44-4.719-2.913-10.073s2.131-8.071 4.82-9.31" transform="translate(22.524 4.71)"/><path d="m127.554 35.624c-6.8-1.946-29.92-4.191-42.208-5.075s-22.729-2.291-34.5-2.169-16.989 8.085-1.92 14.393" transform="translate(7.576 5.441)"/><path d="m127.759 33.192c-7.057.4-30.107-2.522-42.285-4.375s-22.674-2.787-34.128-5.506-14.785-11.638 1.3-14.462" transform="translate(7.96 1.697)"/></g><path d="m266.52 49.233-5.984 4.344-121.061-14.363s-3.012-1.41-2.709-4.461c.375-3.044 3.625-3.754 3.625-3.754l121.248 12.677z" fill="#fff" transform="translate(26.132 5.945)"/><g fill="none" stroke="#1a1311" stroke-linecap="round" stroke-linejoin="round"><path d="m266.52 49.233-5.984 4.344-121.061-14.363s-3.012-1.41-2.709-4.461c.375-3.044 3.625-3.754 3.625-3.754l121.248 12.677z" stroke-width="3" transform="translate(26.132 5.945)"/><path d="m259.412 44.848c.136 1.508 1.877 3.2 1.877 3.2l-122.769-13.948" stroke-width=".5" transform="translate(26.471 6.54)"/></g></g></g></svg>