<svg height="230" viewBox="0 0 290 230" width="290" xmlns="http://www.w3.org/2000/svg" xmlns:xlink="http://www.w3.org/1999/xlink"><clipPath id="a"><path d="m15 4079h290v230h-290z"/></clipPath><clipPath id="b"><path d="m0 0h253v215h-253z"/></clipPath><g clip-path="url(#a)" transform="translate(-15 -4079)"><g clip-path="url(#b)" transform="translate(34 4094)"><path d="m16.8 60.269s32.963 61.713 34.677 64.372 56.4-16.33 59.447-17.28-36.009-60.761-37.342-62.093a13.377 13.377 0 0 1 -1.906-2.279s-49.539 15.571-54.876 17.28" fill="#fff" transform="translate(3.073 7.69)"/><path d="m16.8 60.269s32.963 61.713 34.677 64.372 56.4-16.33 59.447-17.28-36.009-60.761-37.342-62.093a13.377 13.377 0 0 1 -1.906-2.279s-49.539 15.571-54.876 17.28z" fill="none" stroke="#1a1311" stroke-linecap="round" stroke-linejoin="round" stroke-width="2" transform="translate(3.073 7.69)"/><path d="m194.418 1.794a20.9 20.9 0 0 0 -17.186 24.066c.97 5.736 3.223 9.8 7.651 12.893l-.382 5.528 4.579-2.967a18.7 18.7 0 0 0 12.3 1.674 20.89 20.89 0 1 0 -6.964-41.195" fill="#fff" transform="translate(32.363 .268)"/><path d="m194.418 1.794a20.9 20.9 0 0 0 -17.186 24.066c.97 5.736 3.223 9.8 7.651 12.893l-.382 5.528 4.579-2.967a18.7 18.7 0 0 0 12.3 1.674 20.89 20.89 0 1 0 -6.964-41.195z" fill="none" stroke="#1a1311" stroke-linecap="round" stroke-linejoin="round" stroke-width="3" transform="translate(32.363 .268)"/><path d="m189.792 29.449a1.442 1.442 0 0 1 -1.041-.436 1.448 1.448 0 0 1 0-2.075 1.526 1.526 0 0 1 2.094 0 1.477 1.477 0 0 1 0 2.075 1.489 1.489 0 0 1 -1.053.436" fill="#1a1311" transform="translate(34.444 4.744)"/><path d="m9.252 0-9.252 15.449" fill="#fff" transform="translate(227.509 11.809)"/><path d="m192.557 27.164a1.475 1.475 0 0 1 -1.268-2.229l9.252-15.449a1.477 1.477 0 0 1 2.538 1.514l-9.251 15.45a1.481 1.481 0 0 1 -1.27.718" fill="#1a1311" transform="translate(34.95 1.568)"/><path d="m126.708 66.452c0 4.558-2 10.539-4 17.66s-4 10.823-3.143 16.52 5.43 11.109 10.86 14.242 6.858 1.993 10.575 5.126 4.494 5.03 4.494 5.03 3.506-.473 7.506-1.33 11.718-.855 11.718-.855-1.429-.855 0-4.843a22.016 22.016 0 0 1 5.144-7.4s-7.464-1.571-12.08-4.082c-2.936-1.6-10.212-6.742-10.212-6.742a27.728 27.728 0 0 1 .214-4.367c.285-1.424.571-4.677.571-4.677s4.668-4.4 5.215-6.907c.573-2.611-.785-7.263-3.786-7.05s-6.287 2.777-6.287 2.777a4.381 4.381 0 0 1 -3.073.143c-1.929-.5-5.754-2.939-8.5-5.839a49.039 49.039 0 0 1 -5.215-7.406" fill="#fff" transform="translate(21.832 11.887)"/><path d="m126.708 66.452c0 4.558-2 10.539-4 17.66s-4 10.823-3.143 16.52 5.43 11.109 10.86 14.242 6.858 1.993 10.575 5.126 4.494 5.03 4.494 5.03 3.506-.473 7.506-1.33 11.718-.855 11.718-.855-1.429-.855 0-4.843a22.016 22.016 0 0 1 5.144-7.4s-7.464-1.571-12.08-4.082c-2.936-1.6-10.212-6.742-10.212-6.742a27.728 27.728 0 0 1 .214-4.367c.285-1.424.571-4.677.571-4.677s4.668-4.4 5.215-6.907c.573-2.611-.785-7.263-3.786-7.05s-6.287 2.777-6.287 2.777a4.381 4.381 0 0 1 -3.073.143c-1.929-.5-5.754-2.939-8.5-5.839a49.039 49.039 0 0 1 -5.216-7.406z" fill="none" stroke="#1a1311" stroke-linecap="round" stroke-linejoin="round" stroke-width="3" transform="translate(21.832 11.887)"/><path d="m144.52 86.6c-.642.849-4 2.189-5.15 2.276" fill="#fff" transform="translate(25.492 15.491)"/><path d="m144.52 86.6c-.642.849-4 2.189-5.15 2.276" fill="none" stroke="#1a1311" stroke-linecap="round" stroke-linejoin="round" stroke-width="2" transform="translate(25.492 15.491)"/><path d="m140.189 81.109a13.544 13.544 0 0 1 3.358-1.068 4.161 4.161 0 0 1 2 0" fill="#fff" transform="translate(25.641 14.301)"/><path d="m140.189 81.109a13.544 13.544 0 0 1 3.358-1.068 4.161 4.161 0 0 1 2 0" fill="none" stroke="#1a1311" stroke-linecap="round" stroke-linejoin="round" stroke-width="2" transform="translate(25.641 14.301)"/><path d="m140.707 85.415a6.947 6.947 0 0 0 1.531-1.349 16.8 16.8 0 0 0 1.643-3.133" fill="#fff" transform="translate(25.736 14.478)"/><path d="m140.707 85.415a6.947 6.947 0 0 0 1.531-1.349 16.8 16.8 0 0 0 1.643-3.133" fill="none" stroke="#1a1311" stroke-linecap="round" stroke-linejoin="round" stroke-width="2" transform="translate(25.736 14.478)"/><path d="m133.877 130.091c-.381-4.747-2.287-8.355 0-9.685a55.175 55.175 0 0 1 9.163-3.894 73.317 73.317 0 0 1 11.462-2.207c3.215-.29 11.575-.494 16.338.525s5.335 1.969 5.907 4.248 1.143 6.835 1.143 6.835-10.479-2.848-19.435-2.088-14.851 1.562-18.564 2.938a28.148 28.148 0 0 0 -6.014 3.328" fill="#fff" transform="translate(24.285 20.405)"/><path d="m133.877 130.091c-.381-4.747-2.287-8.355 0-9.685a55.175 55.175 0 0 1 9.163-3.894 73.317 73.317 0 0 1 11.462-2.207c3.215-.29 11.575-.494 16.338.525s5.335 1.969 5.907 4.248 1.143 6.835 1.143 6.835-10.479-2.848-19.435-2.088-14.851 1.562-18.564 2.938a28.148 28.148 0 0 0 -6.014 3.328z" fill="none" stroke="#1a1311" stroke-linecap="round" stroke-linejoin="round" stroke-width="3" transform="translate(24.285 20.405)"/><path d="m114.687 191.305s3.634-24.188 9.351-35.581 8.68-24.487 13.147-27.154 8.2-5.146 19.05-5.746 21.154-.14 24.965 1.569 4.191.759 8 10.634 12.79 55.963 12.79 55.963" fill="#fff" transform="translate(20.977 21.926)"/><path d="m114.687 191.305s3.634-24.188 9.351-35.581 8.68-24.487 13.147-27.154 8.2-5.146 19.05-5.746 21.154-.14 24.965 1.569 4.191.759 8 10.634 12.79 55.963 12.79 55.963" fill="none" stroke="#1a1311" stroke-linecap="round" stroke-linejoin="round" stroke-width="3" transform="translate(20.977 21.926)"/><path d="m126.506 70.881-1.033 6.983s-5.541-.146-4.969-7.742a28.455 28.455 0 0 1 20.006-24.876c14.672-4.747 24.169-4.183 32.581-1.52 32.383 10.254 26.359 51.666 17.529 61.144-4.492 4.823-8.383 7.691-14.67 8.925l-5.12 1a5.527 5.527 0 0 1 -2.4-.062 55.189 55.189 0 0 1 -10.846-3.79 75.456 75.456 0 0 1 -10.212-6.742l.785-9.043a11.25 11.25 0 0 0 4.914-6.107c1.1-3.275-.161-6.92-2.432-7.708-2.124-.736-9.079 2.966-9.079 2.966s-9.48-3.037-12.1-8.846a24.347 24.347 0 0 0 -2.954-4.587" fill="#fff" transform="translate(22.033 7.459)"/><path d="m126.506 70.881-1.033 6.983s-5.541-.146-4.969-7.742a28.455 28.455 0 0 1 20.006-24.876c14.672-4.747 24.169-4.183 32.581-1.52 32.383 10.254 26.359 51.666 17.529 61.144-4.492 4.823-8.383 7.691-14.67 8.925l-5.12 1a5.527 5.527 0 0 1 -2.4-.062 55.189 55.189 0 0 1 -10.846-3.79 75.456 75.456 0 0 1 -10.212-6.742l.785-9.043a11.25 11.25 0 0 0 4.914-6.107c1.1-3.275-.161-6.92-2.432-7.708-2.124-.736-9.079 2.966-9.079 2.966s-9.48-3.037-12.1-8.846a24.347 24.347 0 0 0 -2.954-4.582z" fill="none" stroke="#1a1311" stroke-linecap="round" stroke-linejoin="round" stroke-width="3" transform="translate(22.033 7.459)"/><path d="m53.772 36.829s.635 8.964 3.415 10.274c1.538.725 7.868-.912 7.868-.912l10.914 16.748a9.594 9.594 0 0 0 3.62-5.982c.763-4.082 1.239-6.931-1.143-10.254s-12.289-16.425-12.289-16.425" fill="#fff" transform="translate(9.835 5.416)"/><path d="m53.772 36.829s.635 8.964 3.415 10.274c1.538.725 7.868-.912 7.868-.912l10.914 16.748a9.594 9.594 0 0 0 3.62-5.982c.763-4.082 1.239-6.931-1.143-10.254s-12.289-16.425-12.289-16.425" fill="none" stroke="#1a1311" stroke-linecap="round" stroke-linejoin="round" stroke-width="3" transform="translate(9.835 5.416)"/><path d="m63.682 43.647s-2.954 6.647.952 7.31 4.871-6.741 4.871-6.741" fill="#fff" transform="translate(11.452 7.808)"/><path d="m63.682 43.647s-2.954 6.647.952 7.31 4.871-6.741 4.871-6.741" fill="none" stroke="#1a1311" stroke-linecap="round" stroke-linejoin="round" stroke-width="3" transform="translate(11.452 7.808)"/><path d="m11.721 46.24c.476 1.993 3.591 7.609 5.784 9.887s6.478 5.127 7.907 6.361 2.572 3.607 1.906 4.747-4 .569-4 .569l5.2 10.335s-2.427 2.482-8.528.773-9.534-4.176-11.822-9.212-5.334-16.137-6.668-21.643" fill="#fff" transform="translate(.274 8.272)"/><path d="m11.721 46.24c.476 1.993 3.591 7.609 5.784 9.887s6.478 5.127 7.907 6.361 2.572 3.607 1.906 4.747-4 .569-4 .569l5.2 10.335s-2.427 2.482-8.528.773-9.534-4.176-11.822-9.212-5.334-16.137-6.668-21.643" fill="none" stroke="#1a1311" stroke-linecap="round" stroke-linejoin="round" stroke-width="3" transform="translate(.274 8.272)"/><path d="m51.6 62.21c0 2.23-2.1 4.038-4.7 4.038s-4.7-1.807-4.7-4.038 2.1-4.038 4.7-4.038 4.7 1.807 4.7 4.038" fill="#fff" transform="translate(7.719 10.406)"/><path d="m51.6 62.21c0 2.23-2.1 4.038-4.7 4.038s-4.7-1.807-4.7-4.038 2.1-4.038 4.7-4.038 4.7 1.807 4.7 4.038z" fill="none" stroke="#1a1311" stroke-linecap="round" stroke-linejoin="round" stroke-width=".5" transform="translate(7.719 10.406)"/><path d="m61.044 59.334c0 2.23-2.1 4.038-4.7 4.038s-4.7-1.807-4.7-4.038 2.1-4.038 4.7-4.038 4.7 1.807 4.7 4.038" fill="#fff" transform="translate(9.447 9.892)"/><path d="m61.044 59.334c0 2.23-2.1 4.038-4.7 4.038s-4.7-1.807-4.7-4.038 2.1-4.038 4.7-4.038 4.7 1.804 4.7 4.038z" fill="none" stroke="#1a1311" stroke-linecap="round" stroke-linejoin="round" stroke-width=".5" transform="translate(9.447 9.892)"/><path d="m70.493 56.612c0 2.23-2.1 4.038-4.7 4.038s-4.7-1.807-4.7-4.038 2.1-4.038 4.7-4.038 4.7 1.807 4.7 4.038" fill="#fff" transform="translate(11.176 9.405)"/><path d="m70.493 56.612c0 2.23-2.1 4.038-4.7 4.038s-4.7-1.807-4.7-4.038 2.1-4.038 4.7-4.038 4.7 1.807 4.7 4.038z" fill="none" stroke="#1a1311" stroke-linecap="round" stroke-linejoin="round" stroke-width=".5" transform="translate(11.176 9.405)"/><path d="m60.29 67c0 2.23-2.1 4.038-4.7 4.038s-4.69-1.812-4.69-4.038 2.1-4.038 4.7-4.038 4.7 1.807 4.7 4.038" fill="#fff" transform="translate(9.309 11.262)"/><path d="m60.29 67c0 2.23-2.1 4.038-4.7 4.038s-4.69-1.812-4.69-4.038 2.1-4.038 4.7-4.038 4.69 1.803 4.69 4.038z" fill="none" stroke="#1a1311" stroke-linecap="round" stroke-linejoin="round" stroke-width=".5" transform="translate(9.309 11.262)"/><path d="m69.739 64.274c0 2.23-2.1 4.038-4.7 4.038s-4.7-1.807-4.7-4.038 2.1-4.038 4.7-4.038 4.7 1.807 4.7 4.038" fill="#fff" transform="translate(11.038 10.775)"/><path d="m69.739 64.274c0 2.23-2.1 4.038-4.7 4.038s-4.7-1.807-4.7-4.038 2.1-4.038 4.7-4.038 4.7 1.807 4.7 4.038z" fill="none" stroke="#1a1311" stroke-linecap="round" stroke-linejoin="round" stroke-width=".5" transform="translate(11.038 10.775)"/><path d="m0 0 15.243 5.179" fill="#fff" transform="translate(33.784 65.562)"/><path d="m0 0 15.243 5.179" fill="none" stroke="#1a1311" stroke-linecap="round" stroke-linejoin="round" stroke-width=".5" transform="translate(33.784 65.562)"/><path d="m60.654 69.043s18.434 7.948 21.483 9.22a56.428 56.428 0 0 0 7.05 2.241" fill="#fff" transform="translate(11.094 12.351)"/><path d="m60.654 69.043s18.434 7.948 21.483 9.22a56.428 56.428 0 0 0 7.05 2.241" fill="none" stroke="#1a1311" stroke-linecap="round" stroke-linejoin="round" stroke-width=".5" transform="translate(11.094 12.351)"/><path d="m82.025 85.96c-1.165 4.826-12.234 6.312-24.725 3.316s-21.663-9.337-20.5-14.163 12.237-6.313 24.724-3.313 21.666 9.337 20.5 14.163" fill="#fff" transform="translate(6.713 12.566)"/><path d="m82.025 85.96c-1.165 4.826-12.234 6.312-24.725 3.316s-21.663-9.337-20.5-14.163 12.237-6.313 24.724-3.313 21.666 9.334 20.501 14.16z" fill="none" stroke="#1a1311" stroke-linecap="round" stroke-linejoin="round" stroke-width=".5" transform="translate(6.713 12.566)"/><path d="m0 4.565 16.123-4.565" fill="#fff" transform="translate(50.211 106.321)"/><path d="m0 4.565 16.123-4.565" fill="none" stroke="#1a1311" stroke-linecap="round" stroke-linejoin="round" stroke-width=".5" transform="translate(50.211 106.321)"/><path d="m0 4.565 16.123-4.565" fill="#fff" transform="translate(52.732 108.66)"/><path d="m0 4.565 16.123-4.565" fill="none" stroke="#1a1311" stroke-linecap="round" stroke-linejoin="round" stroke-width=".5" transform="translate(52.732 108.66)"/><path d="m0 4.565 16.123-4.565" fill="#fff" transform="translate(55.252 110.998)"/><path d="m0 4.565 16.123-4.565" fill="none" stroke="#1a1311" stroke-linecap="round" stroke-linejoin="round" stroke-width=".5" transform="translate(55.252 110.998)"/><path d="m0 4.565 16.123-4.565" fill="#fff" transform="translate(57.773 113.337)"/><path d="m0 4.565 16.123-4.565" fill="none" stroke="#1a1311" stroke-linecap="round" stroke-linejoin="round" stroke-width=".5" transform="translate(57.773 113.337)"/><path d="m0 4.565 16.123-4.565" fill="#fff" transform="translate(60.293 115.676)"/><path d="m0 4.565 16.123-4.565" fill="none" stroke="#1a1311" stroke-linecap="round" stroke-linejoin="round" stroke-width=".5" transform="translate(60.293 115.676)"/><path d="m0 4.565 16.123-4.565" fill="#fff" transform="translate(62.814 118.015)"/><path d="m0 4.565 16.123-4.565" fill="none" stroke="#1a1311" stroke-linecap="round" stroke-linejoin="round" stroke-width=".5" transform="translate(62.814 118.015)"/></g></g></svg>