<svg height="230" viewBox="0 0 290 230" width="290" xmlns="http://www.w3.org/2000/svg" xmlns:xlink="http://www.w3.org/1999/xlink"><clipPath id="a"><path d="m15 2472h290v230h-290z"/></clipPath><clipPath id="b"><path d="m0 0h255v226h-255z"/></clipPath><g clip-path="url(#a)" transform="translate(-15 -2472)"><g clip-path="url(#b)" transform="translate(32 2473)"><path d="m94.8 206.308-21.46 10.666a16.517 16.517 0 0 1 -22.084-7.284l-29.874-66.21a16.267 16.267 0 0 1 7.342-21.91l15.276-7.7a16.518 16.518 0 0 1 22.084 7.284l36.056 63.246a16.267 16.267 0 0 1 -7.342 21.91" fill="#fff" transform="translate(-.582 -4.177)"/><path d="m94.8 206.308-21.46 10.666a16.517 16.517 0 0 1 -22.084-7.284l-29.874-66.21a16.267 16.267 0 0 1 7.342-21.91l15.276-7.7a16.518 16.518 0 0 1 22.084 7.284l36.056 63.246a16.267 16.267 0 0 1 -7.34 21.908z" fill="none" stroke="#1a1311" stroke-linecap="round" stroke-linejoin="round" stroke-width="3" transform="translate(-.582 -4.177)"/><path d="m13.856 27.194-13.856-27.194" fill="#fff" transform="translate(38.944 119.612)"/><path d="m13.856 27.194-13.856-27.194" fill="none" stroke="#1a1311" stroke-linecap="round" stroke-linejoin="round" transform="translate(38.944 119.612)"/><path d="m0 7.368 15.197-7.368" fill="#fff" transform="translate(37.603 146.806)"/><path d="m0 7.368 15.197-7.368" fill="none" stroke="#1a1311" stroke-linecap="round" stroke-linejoin="round" transform="translate(37.603 146.806)"/><path d="m0 5.727 11.442-5.727" fill="#fff" transform="translate(56.046 139.063)"/><path d="m0 5.727 11.442-5.727" fill="none" stroke="#1a1311" stroke-linecap="round" stroke-linejoin="round" transform="translate(56.046 139.063)"/><path d="m34.048 113.07-8.3-12.687 8.3-10.711-18.435 2.472 22-28.341-37.113 33.778 21.923-37.567-16.609 10.051 6.477-14.006-4.151-6.259" fill="none" stroke="#1a1311" stroke-linecap="round" stroke-linejoin="round" transform="translate(-.015 -1.855)"/><path d="m135.039 211.863s-5.563-3.5-7.238-4.96c-1.6-1.39-5.853-6.429-5.853-6.429l121.68-137.674a1.764 1.764 0 0 1 2.211-.361 27.847 27.847 0 0 1 6.176 3.971 30.321 30.321 0 0 1 4.77 5.547 1.747 1.747 0 0 1 -.073 2.24z" fill="#fff" transform="translate(-3.612 -2.317)"/><path d="m135.039 211.863s-5.563-3.5-7.238-4.96c-1.6-1.39-5.853-6.429-5.853-6.429l121.68-137.674a1.764 1.764 0 0 1 2.211-.361 27.847 27.847 0 0 1 6.176 3.971 30.321 30.321 0 0 1 4.77 5.547 1.747 1.747 0 0 1 -.073 2.24z" fill="none" stroke="#1a1311" stroke-linecap="round" stroke-linejoin="round" stroke-width="3" transform="translate(-3.612 -2.317)"/><path d="m121.585 205.823-11.907 26.592 25-15.2s-5.607-3.54-7.239-4.959-5.852-6.43-5.852-6.43" fill="#fff" transform="translate(-3.248 -7.666)"/><path d="m121.585 205.823-11.907 26.592 25-15.2s-5.607-3.54-7.239-4.959-5.854-6.433-5.854-6.433z" fill="none" stroke="#1a1311" stroke-linecap="round" stroke-linejoin="round" stroke-width="3" transform="translate(-3.248 -7.666)"/><path d="m0 138.755 122.636-138.755" fill="#fff" transform="translate(121.16 61.859)"/><path d="m0 138.755 122.636-138.755" fill="none" stroke="#1a1311" stroke-linecap="round" stroke-linejoin="round" transform="translate(121.16 61.859)"/><path d="m0 138.755 122.636-138.755" fill="#fff" transform="translate(128.395 68.153)"/><path d="m0 138.755 122.636-138.755" fill="none" stroke="#1a1311" stroke-linecap="round" stroke-linejoin="round" transform="translate(128.395 68.153)"/><path d="m112.388 227.736a3.621 3.621 0 0 0 2.507 2.323l-5.218 3.172z" fill="#1a1311" transform="translate(-3.248 -8.482)"/><path d="m112.388 227.736a3.621 3.621 0 0 0 2.507 2.323l-5.218 3.172z" fill="none" stroke="#1a1311" stroke-linecap="round" stroke-linejoin="round" transform="translate(-3.248 -8.482)"/><path d="m130.346 41.964c-5.034 2.15-23.212-1.926-42.823-2.43s-35.422 4.559-49.3 4.079c-8.679-.3-18.085-5.251-23.8-11.737a16.245 16.245 0 0 1 2.73-23.769c7.035-5.046 17.321-7.773 25.847-6.129 13.632 2.629 27.891 11.086 47.115 14.967 11.1 2.242 22.008 3.217 30.093 4.259 5.914.763 10.318 1.563 12.185 2.923" fill="#fff" transform="translate(-.31 -.056)"/><path d="m130.346 41.964c-5.034 2.15-23.212-1.926-42.823-2.43s-35.422 4.559-49.3 4.079c-8.679-.3-18.085-5.251-23.8-11.737a16.245 16.245 0 0 1 2.73-23.769c7.035-5.046 17.321-7.773 25.847-6.129 13.632 2.629 27.891 11.086 47.115 14.967 11.1 2.242 22.008 3.217 30.093 4.259 5.914.763 10.318 1.563 12.185 2.923" fill="none" stroke="#1a1311" stroke-linecap="round" stroke-linejoin="round" stroke-width="3" transform="translate(-.31 -.056)"/><path d="m41.986 43.615c-11.07 1.53-21.848-5.253-27.56-11.74a16.244 16.244 0 0 1 2.728-23.768c7.034-5.047 19.583-8.324 27.796-5.716 0 0-7.587-2.723-18.128 8.915-4.7 5.192-6.153 12.2-2.161 19.732 7.778 14.688 17.324 12.576 17.324 12.576" fill="#fff" transform="translate(-.31 -.055)"/><path d="m41.986 43.615c-11.07 1.53-21.848-5.253-27.56-11.74a16.244 16.244 0 0 1 2.728-23.768c7.034-5.047 19.583-8.324 27.796-5.716 0 0-7.587-2.723-18.128 8.915-4.7 5.192-6.153 12.2-2.161 19.732 7.778 14.688 17.325 12.577 17.325 12.577z" fill="none" stroke="#1a1311" stroke-linecap="round" stroke-linejoin="round" transform="translate(-.31 -.055)"/><path d="m135.26 42.423c-2.209-.216-3.623-4.175-3.161-8.844s2.629-8.279 4.837-8.063" fill="#fff" transform="translate(-3.91 -.95)"/><path d="m135.26 42.423c-2.209-.216-3.623-4.175-3.161-8.844s2.629-8.279 4.837-8.063" fill="none" stroke="#1a1311" stroke-linecap="round" stroke-linejoin="round" stroke-width="2" transform="translate(-3.91 -.95)"/><path d="m137.037 25.517c2.209.216 3.623 4.175 3.161 8.844s-2.629 8.279-4.837 8.063" fill="#fff" transform="translate(-4.009 -.95)"/><path d="m137.037 25.517c2.209.216 3.623 4.175 3.161 8.844s-2.629 8.279-4.837 8.063" fill="none" stroke="#1a1311" stroke-linecap="round" stroke-linejoin="round" stroke-width="3" transform="translate(-4.009 -.95)"/><path d="m120.324 40.219c-1.461-1.112-2.8-3.813-2.374-8.137s1.736-6.52 3.927-7.521" fill="#fff" transform="translate(-3.491 -.915)"/><g fill="none" stroke="#1a1311" stroke-linecap="round" stroke-linejoin="round"><path d="m120.324 40.219c-1.461-1.112-2.8-3.813-2.374-8.137s1.736-6.52 3.927-7.521" transform="translate(-3.491 -.915)"/><path d="m111.264 34.23c-5.537-1.572-24.376-3.386-34.386-4.1s-18.517-1.85-28.107-1.752-13.841 6.532-1.565 11.628" transform="translate(-1.174 -1.057)"/><path d="m111.8 28.514c-5.75.321-24.528-2.037-34.45-3.534s-18.472-2.252-27.8-4.448-12.05-9.401 1.062-11.683" transform="translate(-1.234 -.33)"/></g><path d="m242.472 45.729-4.872 3.509-98.628-11.6s-2.454-1.139-2.207-3.6c.306-2.459 2.953-3.033 2.953-3.033l98.782 10.235z" fill="#fff" transform="translate(-4.05 -1.155)"/><path d="m242.472 45.729-4.872 3.509-98.628-11.6s-2.454-1.139-2.207-3.6c.306-2.459 2.953-3.033 2.953-3.033l98.782 10.235 3.977 4.489" fill="none" stroke="#1a1311" stroke-linecap="round" stroke-linejoin="round" stroke-width="3" transform="translate(-4.05 -1.155)"/><path d="m237.01 42.783a5.4 5.4 0 0 0 1.529 2.584l-100.019-11.267" fill="none" stroke="#1a1311" stroke-linecap="round" stroke-linejoin="round" stroke-width=".5" transform="translate(-4.103 -1.27)"/></g></g></svg>