<svg height="300" viewBox="0 0 508 300" width="508" xmlns="http://www.w3.org/2000/svg" xmlns:xlink="http://www.w3.org/1999/xlink"><clipPath id="a"><path d="m852 2433h508v300h-508z"/></clipPath><clipPath id="b"><path d="m0 0h335v300h-335z"/></clipPath><g clip-path="url(#a)" transform="translate(-852 -2433)"><g clip-path="url(#b)" transform="translate(920 2433)"><path d="m123.721 276.464s8.5-39.064 14.058-45.353 10.9-5.373 19.726-7.718 8.6.676 20.9-2.841 44.323-18.237 51.278-23.832 14.839-11.192 25.5-22.607 37.333-26.587 38.714-31.935-.459-13.378-9.9-11.975c-10.913 1.622-13.433 4.43-9.632 2.5 17.411-8.862 25.8-13.11 34.162-18.734 8.926-6 2.54-22.925-11.836-16.1-5.907 2.8 1.791-1.6 4.516-5.03s1.65-14.535-9.435-13.537a57.178 57.178 0 0 0 -15.235 3.356 5.224 5.224 0 0 1 -4.22-.2c-4.119-2.051-8.043-7.4-25.126-2.868-13.686 3.629-18.518 7.464-37.609 14.073s-29.641 7.493-54.144 16.166-7.43-.483 2.186-8.139 2.63-2.14 13.477-13.461c10.223-10.669-.715-21.113-9.132-15.47s-29.675 18.141-39.686 28.614-22.812 28.574-32.81 44.263-7.555 28.939-10.733 43-10.7 57.865-10.7 57.865a267.277 267.277 0 0 0 -.371 29.958" fill="#fff" transform="translate(-64.793 20.948)"/><g fill="none" stroke="#1a1311" stroke-linecap="round" stroke-linejoin="round"><path d="m123.721 276.464s8.5-39.064 14.058-45.353 10.9-5.373 19.726-7.718 8.6.676 20.9-2.841 44.323-18.237 51.278-23.832 14.839-11.192 25.5-22.607 37.333-26.587 38.714-31.935-.459-13.378-9.9-11.975c-10.913 1.622-13.433 4.43-9.632 2.5 17.411-8.862 25.8-13.11 34.162-18.734 8.926-6 2.54-22.925-11.836-16.1-5.907 2.8 1.791-1.6 4.516-5.03s1.65-14.535-9.435-13.537a57.178 57.178 0 0 0 -15.235 3.356 5.224 5.224 0 0 1 -4.22-.2c-4.119-2.051-8.043-7.4-25.126-2.868-13.686 3.629-18.518 7.464-37.609 14.073s-29.641 7.493-54.144 16.166-7.43-.483 2.186-8.139 2.63-2.14 13.477-13.461c10.223-10.669-.715-21.113-9.132-15.47s-29.675 18.141-39.686 28.614-22.812 28.574-32.81 44.263-7.555 28.939-10.733 43-10.7 57.865-10.7 57.865a267.277 267.277 0 0 0 -.371 29.958" stroke-width="4" transform="translate(-64.793 20.948)"/><path d="m198.5 137.581c3.965-9.942 4.5-9.251 6.167-15.76 1.731-6.767 1.41-15.1 1.374-18.136" stroke-width="4" transform="translate(-127.884 30.517)"/><g stroke-width="2"><path d="m182.6 83.928c-9.75 1.3-60.891 25.894-66.456 29.859s-12.293 6.967-14.147 8.966" transform="translate(20.438 24.702)"/><path d="m164.882 95.205c-17.421 8.6-35.734 16.087-46.583 21.253-11.882 5.657-27.889 14.842-31.399 17.185" transform="translate(57.686 28.021)"/><path d="m154.855 112.4c4.72 1.974 11.879 11.314 14.02 17.158a76.143 76.143 0 0 1 2.921 9.581" transform="translate(-37.137 33.082)"/><path d="m212.294 137.991c-3.729 16.514-11.3 23.519-13.8 28.273" transform="translate(-134.094 40.614)"/><path d="m204.317 152.683c-18.006 4.754-29.761 11.01-34.012 15.512" transform="translate(-89.646 44.938)"/><path d="m152.328 122.008c-11.888 5.813-21.654 12.912-29.057 16.4-8.108 3.823-16.641 8.466-19.283 9.577" transform="translate(48.139 35.91)"/></g></g><path d="m5.069 0-5.069 6.5" fill="#fff" transform="translate(230.134 67.65)"/><path d="m5.069 0-5.069 6.5" fill="none" stroke="#1a1311" stroke-linecap="round" stroke-linejoin="round" stroke-width="3" transform="translate(230.134 67.65)"/><path d="m45.207 0-45.207 57.972" fill="#fff" transform="translate(241.238 1.941)"/><path d="m45.207 0-45.207 57.972" fill="none" stroke="#1a1311" stroke-linecap="round" stroke-linejoin="round" stroke-width="3" transform="translate(241.238 1.941)"/><path d="m4.742 0-4.742 4.372" fill="#fff" transform="translate(241.664 82.754)"/><path d="m4.742 0-4.742 4.372" fill="none" stroke="#1a1311" stroke-linecap="round" stroke-linejoin="round" stroke-width="3" transform="translate(241.664 82.754)"/><path d="m9.988 0-9.988 9.208" fill="#fff" transform="translate(254.601 65.989)"/><path d="m9.988 0-9.988 9.208" fill="none" stroke="#1a1311" stroke-linecap="round" stroke-linejoin="round" stroke-width="3" transform="translate(254.601 65.989)"/><path d="m44.852 0-44.852 41.352" fill="#fff" transform="translate(272.84 17.027)"/><path d="m44.852 0-44.852 41.352" fill="none" stroke="#1a1311" stroke-linecap="round" stroke-linejoin="round" stroke-width="3" transform="translate(272.84 17.027)"/><path d="m8.282 0-8.282 4.071" fill="#fff" transform="translate(252.18 94.865)"/><path d="m8.282 0-8.282 4.071" fill="none" stroke="#1a1311" stroke-linecap="round" stroke-linejoin="round" stroke-width="3" transform="translate(252.18 94.865)"/><path d="m64.314 0-64.314 31.61" fill="#fff" transform="translate(268.745 59.183)"/><path d="m64.314 0-64.314 31.61" fill="none" stroke="#1a1311" stroke-linecap="round" stroke-linejoin="round" stroke-width="3" transform="translate(268.745 59.183)"/></g></g></svg>