<svg height="230" viewBox="0 0 290 230" width="290" xmlns="http://www.w3.org/2000/svg" xmlns:xlink="http://www.w3.org/1999/xlink"><clipPath id="a"><path d="m15 3227h290v230h-290z"/></clipPath><clipPath id="b"><path d="m0 .34h256v228h-256z"/></clipPath><g clip-path="url(#a)" transform="translate(-15 -3227)"><g clip-path="url(#b)" transform="translate(32 3228.66)"><path d="m110.434 227.659s6.493-29.777 10.743-34.571 8.332-4.1 15.074-5.883 6.57.515 15.971-2.166 33.871-13.9 39.186-18.167 11.34-8.531 19.483-17.232 28.529-20.266 29.584-24.343-.351-10.2-7.569-9.128c-8.339 1.236-10.265 3.377-7.36 1.9 13.305-6.755 19.718-9.993 26.106-14.28 6.821-4.576 1.941-17.475-9.045-12.276-4.514 2.137 1.368-1.221 3.451-3.834s1.261-11.08-7.21-10.319a43.787 43.787 0 0 0 -11.648 2.56 4 4 0 0 1 -3.225-.149c-3.148-1.564-6.146-5.641-19.2-2.186-10.459 2.767-14.151 5.69-28.74 10.728s-22.651 5.712-41.376 12.323-5.678-.368 1.671-6.2 2.01-1.631 10.3-10.261c7.812-8.133-.547-16.094-6.979-11.792s-22.669 13.834-30.319 21.814-17.432 21.776-25.069 33.736-5.774 22.059-8.2 32.78-8.173 44.109-8.173 44.109a203.227 203.227 0 0 0 -.284 22.836" fill="#fff" transform="translate(-65.403 -.952)"/><g fill="none" stroke="#1a1311" stroke-linecap="round" stroke-linejoin="round"><path d="m110.434 227.659s6.493-29.777 10.743-34.571 8.332-4.1 15.074-5.883 6.57.515 15.971-2.166 33.871-13.9 39.186-18.167 11.34-8.531 19.483-17.232 28.529-20.266 29.584-24.343-.351-10.2-7.569-9.128c-8.339 1.236-10.265 3.377-7.36 1.9 13.305-6.755 19.718-9.993 26.106-14.28 6.821-4.576 1.941-17.475-9.045-12.276-4.514 2.137 1.368-1.221 3.451-3.834s1.261-11.08-7.21-10.319a43.787 43.787 0 0 0 -11.648 2.56 4 4 0 0 1 -3.225-.149c-3.148-1.564-6.146-5.641-19.2-2.186-10.459 2.767-14.151 5.69-28.74 10.728s-22.651 5.712-41.376 12.323-5.678-.368 1.671-6.2 2.01-1.631 10.3-10.261c7.812-8.133-.547-16.094-6.979-11.792s-22.669 13.834-30.319 21.814-17.432 21.776-25.069 33.736-5.774 22.059-8.2 32.78-8.173 44.109-8.173 44.109a203.227 203.227 0 0 0 -.284 22.836" stroke-width="4" transform="translate(-65.403 -.952)"/><path d="m198.5 129.523c3.03-7.578 3.439-7.051 4.713-12.013 1.323-5.158 1.078-11.509 1.05-13.825" stroke-width="4" transform="translate(-144.536 -1.387)"/><g stroke-width="2"><path d="m163.594 83.928c-7.45.993-46.531 19.738-50.785 22.76s-9.393 5.312-10.809 6.835" transform="translate(-8.435 -1.123)"/><path d="m146.493 95.205c-13.313 6.554-27.307 12.263-35.6 16.2-9.08 4.313-21.312 11.317-23.99 13.1" transform="translate(23.589 -1.274)"/><path d="m154.855 112.4c3.607 1.5 9.078 8.624 10.714 13.079a57.932 57.932 0 0 1 2.232 7.3" transform="translate(-64.897 -1.504)"/><path d="m209.04 137.991c-2.849 12.588-8.633 17.928-10.544 21.552" transform="translate(-149.281 -1.846)"/><path d="m196.3 152.683c-13.76 3.624-22.743 8.392-25.991 11.825" transform="translate(-108.667 -2.043)"/><path d="m140.929 122.008c-9.085 4.431-16.548 9.843-22.2 12.5-6.2 2.914-12.717 6.453-14.736 7.3" transform="translate(12.264 -1.632)"/></g></g><path d="m3.873 0-3.873 4.955" fill="#fff" transform="translate(175.864 51.568)"/><path d="m3.873 0-3.873 4.955" fill="none" stroke="#1a1311" stroke-linecap="round" stroke-linejoin="round" stroke-width="3" transform="translate(175.864 51.568)"/><path d="m34.546 0-34.546 44.19" fill="#fff" transform="translate(184.349 1.48)"/><path d="m34.546 0-34.546 44.19" fill="none" stroke="#1a1311" stroke-linecap="round" stroke-linejoin="round" stroke-width="3" transform="translate(184.349 1.48)"/><path d="m3.623 0-3.623 3.333" fill="#fff" transform="translate(184.674 63.08)"/><path d="m3.623 0-3.623 3.333" fill="none" stroke="#1a1311" stroke-linecap="round" stroke-linejoin="round" stroke-width="3" transform="translate(184.674 63.08)"/><path d="m7.632 0-7.632 7.019" fill="#fff" transform="translate(194.561 50.301)"/><path d="m7.632 0-7.632 7.019" fill="none" stroke="#1a1311" stroke-linecap="round" stroke-linejoin="round" stroke-width="3" transform="translate(194.561 50.301)"/><path d="m34.275 0-34.275 31.522" fill="#fff" transform="translate(208.499 12.979)"/><path d="m34.275 0-34.275 31.522" fill="none" stroke="#1a1311" stroke-linecap="round" stroke-linejoin="round" stroke-width="3" transform="translate(208.499 12.979)"/><path d="m6.329 0-6.329 3.103" fill="#fff" transform="translate(192.711 72.312)"/><path d="m6.329 0-6.329 3.103" fill="none" stroke="#1a1311" stroke-linecap="round" stroke-linejoin="round" stroke-width="3" transform="translate(192.711 72.312)"/><path d="m49.147 0-49.147 24.095" fill="#fff" transform="translate(205.37 45.113)"/><path d="m49.147 0-49.147 24.095" fill="none" stroke="#1a1311" stroke-linecap="round" stroke-linejoin="round" stroke-width="3" transform="translate(205.37 45.113)"/></g></g></svg>