<svg height="11" viewBox="0 0 10 11" width="10" xmlns="http://www.w3.org/2000/svg"><g fill="#1d293f"><path d="m2681.16 2747.706a1.064 1.064 0 0 1 -.747-.3.971.971 0 0 1 .018-1.414l4.011-3.752a1.076 1.076 0 0 1 1.468.01l3.9 3.752a.971.971 0 0 1 0 1.414 1.075 1.075 0 0 1 -1.476 0l-3.173-3.052-3.273 3.061a1.064 1.064 0 0 1 -.728.281z" transform="translate(-2680.117 -2741.953)"/><path d="m2693 2749.761a1.017 1.017 0 0 1 -1-1.034v-8.739a1 1 0 1 1 2 0v8.739a1.017 1.017 0 0 1 -1 1.034z" transform="translate(-2688 -2738.761)"/></g></svg>