<svg xmlns="http://www.w3.org/2000/svg" width="10" height="11" viewBox="0 0 10 11">
  <g id="グループ_58" data-name="グループ 58" transform="translate(1 1)">
    <path id="パス_4" data-name="パス 4" d="M2681.16,2747.706a1.064,1.064,0,0,1-.747-.3.971.971,0,0,1,.018-1.414l4.011-3.752a1.076,1.076,0,0,1,1.468.01l3.9,3.752a.971.971,0,0,1,0,1.414,1.075,1.075,0,0,1-1.476,0l-3.173-3.052-3.273,3.061A1.064,1.064,0,0,1,2681.16,2747.706Z" transform="translate(-2681.117 -2742.953)" fill="#1d293f"/>
    <path id="パス_5" data-name="パス 5" d="M2693,2749.761a1.017,1.017,0,0,1-1-1.034v-8.739a1,1,0,1,1,2,0v8.739A1.017,1.017,0,0,1,2693,2749.761Z" transform="translate(-2689 -2739.761)" fill="#1d293f"/>
  </g>
</svg>
